<svg xmlns="http://www.w3.org/2000/svg" width="25" height="30" viewBox="0 0 25 30">
  <path id="Icon_material-android" data-name="Icon material-android" d="M8,22.5a1.254,1.254,0,0,0,1.25,1.25H10.5v4.375a1.875,1.875,0,0,0,3.75,0V23.75h2.5v4.375a1.875,1.875,0,0,0,3.75,0V23.75h1.25A1.254,1.254,0,0,0,23,22.5V10H8ZM4.875,10A1.872,1.872,0,0,0,3,11.875v8.75a1.875,1.875,0,0,0,3.75,0v-8.75A1.872,1.872,0,0,0,4.875,10Zm21.25,0a1.872,1.872,0,0,0-1.875,1.875v8.75a1.875,1.875,0,1,0,3.75,0v-8.75A1.872,1.872,0,0,0,26.125,10ZM19.912,2.7l1.625-1.625a.619.619,0,0,0,0-.888.619.619,0,0,0-.888,0L18.8,2.037a7.3,7.3,0,0,0-3.3-.788,7.4,7.4,0,0,0-3.325.788L10.313.187a.619.619,0,0,0-.888,0,.619.619,0,0,0,0,.887l1.637,1.638A7.479,7.479,0,0,0,8,8.75H23A7.457,7.457,0,0,0,19.912,2.7ZM13,6.25H11.75V5H13Zm6.25,0H18V5h1.25Z" transform="translate(-3)" fill="#f3f3ff"/>
</svg>
