<svg xmlns="http://www.w3.org/2000/svg" width="20.357" height="25" viewBox="0 0 20.357 25">
  <path id="Icon_metro-apple" data-name="Icon metro-apple" d="M22.438,15.212a5.656,5.656,0,0,1,2.7-4.76,5.838,5.838,0,0,0-4.571-2.477c-1.947-.2-3.8,1.146-4.787,1.146S13.268,8,11.653,8.033a6.117,6.117,0,0,0-5.171,3.134c-2.2,3.826-.565,9.493,1.584,12.6,1.05,1.519,2.3,3.225,3.946,3.164,1.583-.063,2.182-1.024,4.1-1.024s2.452,1.024,4.127.993c1.7-.032,2.783-1.548,3.825-3.071a13.78,13.78,0,0,0,1.732-3.555,5.522,5.522,0,0,1-3.355-5.057ZM19.29,5.92a5.51,5.51,0,0,0,1.3-3.992,5.6,5.6,0,0,0-3.682,1.893,5.241,5.241,0,0,0-1.327,3.868A4.637,4.637,0,0,0,19.29,5.92Z" transform="translate(-5.436 -1.928)" fill="#f3f3ff"/>
</svg>
