<svg xmlns="http://www.w3.org/2000/svg" width="15.093" height="8.805" viewBox="0 0 15.093 8.805"><g transform="translate(-4.5 -10.123)"><path d="M22.683,10.308a.629.629,0,0,1,.89,0l3.773,3.773a.629.629,0,0,1,0,.89l-3.773,3.773a.63.63,0,1,1-.89-.89l3.328-3.328L22.682,11.2a.629.629,0,0,1,0-.89Z" transform="translate(-7.938)" fill="#fff" fill-rule="evenodd"/><path d="M4.5,17.5a.629.629,0,0,1,.629-.629h13.2a.629.629,0,0,1,0,1.258H5.129A.629.629,0,0,1,4.5,17.5Z" transform="translate(0 -2.978)" fill="#fff" fill-rule="evenodd"/></g></svg>