<svg xmlns="http://www.w3.org/2000/svg" width="13.556" height="12.709" viewBox="0 0 13.556 12.709"><g transform="translate(0 0)"><path d="M14.815,6H13.438v.847h1.271v9.32H2.847V6.847H4.118V6H2.741A.754.754,0,0,0,2,6.767v9.481a.754.754,0,0,0,.741.767H14.815a.754.754,0,0,0,.741-.767V6.767A.754.754,0,0,0,14.815,6Z" transform="translate(-2 -4.305)"/><path d="M8,14h.847v.847H8Z" transform="translate(-5.458 -8.916)"/><path d="M14,14h.847v.847H14Z" transform="translate(-8.916 -8.916)"/><path d="M20,14h.847v.847H20Z" transform="translate(-12.375 -8.916)"/><path d="M26,14h.847v.847H26Z" transform="translate(-15.833 -8.916)"/><path d="M8,19h.847v.847H8Z" transform="translate(-5.458 -11.798)"/><path d="M14,19h.847v.847H14Z" transform="translate(-8.916 -11.798)"/><path d="M20,19h.847v.847H20Z" transform="translate(-12.375 -11.798)"/><path d="M26,19h.847v.847H26Z" transform="translate(-15.833 -11.798)"/><path d="M8,24h.847v.847H8Z" transform="translate(-5.458 -14.68)"/><path d="M14,24h.847v.847H14Z" transform="translate(-8.916 -14.68)"/><path d="M20,24h.847v.847H20Z" transform="translate(-12.375 -14.68)"/><path d="M26,24h.847v.847H26Z" transform="translate(-15.833 -14.68)"/><path d="M9.424,5.389a.424.424,0,0,0,.424-.424V2.424a.424.424,0,0,0-.847,0V4.965A.424.424,0,0,0,9.424,5.389Z" transform="translate(-6.035 -2)"/><path d="M25.424,5.389a.424.424,0,0,0,.424-.424V2.424a.424.424,0,0,0-.847,0V4.965A.424.424,0,0,0,25.424,5.389Z" transform="translate(-15.256 -2)"/><path d="M13,6h4.236v.847H13Z" transform="translate(-8.34 -4.305)"/></g></svg>