<svg xmlns="http://www.w3.org/2000/svg" width="130.705" height="109.131" viewBox="0 0 130.705 109.131">
  <g id="undraw_newspaper_k-72-w" transform="translate(0 0.042)">
    <path id="Path_435" data-name="Path 435" d="M443.839,503.224H364.5l.036-8.412A39.243,39.243,0,0,1,402.9,455.626q.345-.006.691-.006h0a39.8,39.8,0,0,1,39.866,38.432Z" transform="translate(-337.672 -400.174)" fill="#796ac8"/>
    <rect id="Rectangle_191" data-name="Rectangle 191" width="130.705" height="0.327" transform="translate(0 103.05)" fill="#2f2e41"/>
    <path id="Path_436" data-name="Path 436" d="M398.287,369.29l3.5,2.543,3.5,29.874h8.263l-2.86-34.006-11.441-4.449Z" transform="translate(-333.133 -303.864)" fill="#2f2e41"/>
    <path id="Path_437" data-name="Path 437" d="M508.876,422.594s-.953,10.806,2.86,11.123,18.433-3.178,18.433-3.178l6.992,24.789,10.488-5.4s-6.356-27.967-10.17-29.557-16.526-4.767-16.526-4.767l-9.217,1.589Z" transform="translate(-458.342 -366.702)" fill="#2f2e41"/>
    <path id="Path_438" data-name="Path 438" d="M643.815,710.906s-1.907,7.31-.636,7.945a22.982,22.982,0,0,1,2.225,1.271v-1.271s1.589,1.589,1.589,2.86,8.581,1.589,8.581,0-.318-3.5-1.907-4.449-3.5-6.356-3.5-6.356Z" transform="translate(-570.398 -613.698)" fill="#2f2e41"/>
    <path id="Path_439" data-name="Path 439" d="M505.14,500.165l.636,6.038L508,510.017l5.4-6.038-4.132-6.674Z" transform="translate(-422.506 -415.988)" fill="#2f2e41"/>
    <path id="Path_440" data-name="Path 440" d="M710.725,649.659s1.17-4,2.333-3.59,5.612,4.543,5.612,4.543l3.178,1.907s6.356.636,4.449,2.543-8.9,4.449-12.077,3.178-3.814-1.589-3.814-1.589l-.953.636-3.814-.953.636-6.674S707.229,652.519,710.725,649.659Z" transform="translate(-623.006 -559.443)" fill="#2f2e41"/>
    <circle id="Ellipse_78" data-name="Ellipse 78" cx="7.31" cy="7.31" r="7.31" transform="translate(54.031 1.546)" fill="#9f616a"/>
    <path id="Path_441" data-name="Path 441" d="M537.344,186.429s.636,6.674-1.271,6.674.318,8.263,5.4,8.263,6.992-9.852,6.992-9.852a4.784,4.784,0,0,1-2.86-5.4C546.242,181.979,537.344,186.429,537.344,186.429Z" transform="translate(-480.612 -173.283)" fill="#9f616a"/>
    <path id="Path_442" data-name="Path 442" d="M488.878,222.95l-2.672,1.145-7.251,3.068a1.472,1.472,0,0,0-.889,1.52l2.737,24.333s-2.86,6.038,1.589,6.356l.636,2.225,5.085-6.038,19.069-.636.318-30.828-8.725-3.448S497.588,227.208,488.878,222.95Z" transform="translate(-432.652 -203.639)" fill="#3f3d56"/>
    <path id="Path_443" data-name="Path 443" d="M461.322,264.1l-1.174-.336a.968.968,0,0,0-1.222.779l-3.117,19.55a6.789,6.789,0,0,0,.663,4.24c.963,1.823,2.963,3.477,7.075,1.51l2.86-20.658Z" transform="translate(-413.965 -239.673)" fill="#3f3d56"/>
    <path id="Path_444" data-name="Path 444" d="M635.7,238.809l3.814.636L650,254.064l.953,2.543,6.038-1.907s-.318,2.86,2.86,2.543c0,0-3.814,10.488-11.759,7.31s-10.488-12.713-10.488-12.713Z" transform="translate(-564.507 -218.83)" fill="#3f3d56"/>
    <path id="Path_445" data-name="Path 445" d="M386.025,131.953l-14.3-5.721-.636,1.907,6.674,5.721Z" transform="translate(-310.383 -105.617)" fill="#ccc"/>
    <path id="Path_446" data-name="Path 446" d="M525.678,125.784c.27-.072.31-.431.319-.71a3.711,3.711,0,0,1,2.381-3.466,4,4,0,0,1,1.687-.093,6.391,6.391,0,0,1,2.285.762,3.564,3.564,0,0,0,1.162.526c.279.042,1.489.394,1.767.443.611.109,1.18.656,1.767.452.561-.195.686-.922.7-1.516a7.4,7.4,0,0,0-1.9-4.233,4.721,4.721,0,0,0-2.732-1.3,18.185,18.185,0,0,0-3.572-.217,11.352,11.352,0,0,0-4.739.854A4.593,4.593,0,0,0,522.045,121c-.015.337.02.675-.008,1.011a14.871,14.871,0,0,1-.708,2.356,4.311,4.311,0,0,0,.6,3.445c.541.8,2.706,1.52,2.675,2.483.391-.405-.531-.813-.14-1.219a.964.964,0,0,0,.287-1.178l-.415-1.621a1.462,1.462,0,0,1-.036-.9C524.746,124.27,525.228,125.9,525.678,125.784Z" transform="translate(-468.738 -116.462)" fill="#2f2e41"/>
    <path id="Path_447" data-name="Path 447" d="M340.213,110.265l-6.038,23.518,23.518,8.263L371.359,130.6l8.581-25.743-13.984,10.17Z" transform="translate(-279.509 -87.743)" fill="#f2f2f2"/>
    <rect id="Rectangle_192" data-name="Rectangle 192" width="0.318" height="23.666" transform="matrix(0.255, -0.967, 0.967, 0.255, 61.776, 25.377)" fill="#e6e6e6"/>
    <rect id="Rectangle_193" data-name="Rectangle 193" width="0.318" height="23.666" transform="matrix(0.255, -0.967, 0.967, 0.255, 61.14, 26.966)" fill="#e6e6e6"/>
    <rect id="Rectangle_194" data-name="Rectangle 194" width="0.318" height="23.666" transform="matrix(0.255, -0.967, 0.967, 0.255, 60.823, 28.555)" fill="#e6e6e6"/>
    <rect id="Rectangle_195" data-name="Rectangle 195" width="0.318" height="23.666" transform="matrix(0.255, -0.967, 0.967, 0.255, 60.505, 30.144)" fill="#e6e6e6"/>
    <rect id="Rectangle_196" data-name="Rectangle 196" width="0.318" height="23.666" transform="matrix(0.255, -0.967, 0.967, 0.255, 60.187, 31.733)" fill="#e6e6e6"/>
    <rect id="Rectangle_197" data-name="Rectangle 197" width="0.318" height="23.666" transform="matrix(0.255, -0.967, 0.967, 0.255, 59.869, 33.322)" fill="#e6e6e6"/>
    <rect id="Rectangle_198" data-name="Rectangle 198" width="0.318" height="23.666" transform="matrix(0.255, -0.967, 0.967, 0.255, 59.551, 34.911)" fill="#e6e6e6"/>
    <rect id="Rectangle_199" data-name="Rectangle 199" width="0.318" height="23.666" transform="matrix(0.255, -0.967, 0.967, 0.255, 59.233, 36.5)" fill="#e6e6e6"/>
    <rect id="Rectangle_200" data-name="Rectangle 200" width="0.318" height="23.666" transform="matrix(0.255, -0.967, 0.967, 0.255, 58.916, 38.089)" fill="#e6e6e6"/>
    <path id="Path_448" data-name="Path 448" d="M512.35,347.855s7.148-4.269,10.326-1.409-9.217,6.992-9.217,6.992Z" transform="translate(-461.336 -308.034)" fill="#9f616a"/>
    <path id="Path_449" data-name="Path 449" d="M462.4,354.986l9.217-3.5s-1.589,6.038,1.589,6.356l-4.449,5.4S459.856,363.25,462.4,354.986Z" transform="translate(-419.173 -313.078)" fill="#3f3d56"/>
    <path id="Path_450" data-name="Path 450" d="M397.7,255.6l12.23,4.122-2.894,6.309-12.23-4.122Z" transform="translate(-330.217 -213.824)" fill="#e6e6e6"/>
    <path id="Path_451" data-name="Path 451" d="M530.342,138.081l9.217-6.992-2.542,8.581-9.534,6.992Z" transform="translate(-441.193 -109.68)" fill="#ccc"/>
    <rect id="Rectangle_201" data-name="Rectangle 201" width="11.569" height="0.318" transform="matrix(0.797, -0.604, 0.604, 0.797, 84.604, 40.033)" fill="#e6e6e6"/>
    <rect id="Rectangle_202" data-name="Rectangle 202" width="11.569" height="0.318" transform="matrix(0.797, -0.604, 0.604, 0.797, 83.968, 43.529)" fill="#e6e6e6"/>
    <path id="Path_452" data-name="Path 452" d="M766.083,317.686s7.945-4.767,2.86-6.674-5.085,5.4-5.085,5.4S763.541,318,766.083,317.686Z" transform="translate(-671.69 -278.956)" fill="#9f616a"/>
    <path id="Path_453" data-name="Path 453" d="M290.78,171.888l-.318,12.395,4.926-1.406-3.973.134Z" transform="translate(-242.947 -143.805)" opacity="0.1"/>
    <path id="Path_454" data-name="Path 454" d="M279.375,674.761a11.8,11.8,0,0,0,4.4,5.947,10.163,10.163,0,0,0-3.6-13.3A11.8,11.8,0,0,0,279.375,674.761Z" transform="translate(-266.221 -577.317)" fill="#8985a8"/>
    <path id="Path_455" data-name="Path 455" d="M255,692.82a11.8,11.8,0,0,1,3.059,6.733,10.163,10.163,0,0,1-9.872-9.61A11.8,11.8,0,0,1,255,692.82Z" transform="translate(-240.384 -596.165)" fill="#3f3d56"/>
    <rect id="Rectangle_203" data-name="Rectangle 203" width="4.908" height="4.908" transform="translate(102.405 61.99)" fill="#f2f2f2"/>
    <rect id="Rectangle_204" data-name="Rectangle 204" width="4.908" height="4.908" transform="translate(82.774 6.371)" fill="#f2f2f2"/>
    <circle id="Ellipse_79" data-name="Ellipse 79" cx="2.454" cy="2.454" r="2.454" transform="translate(23.556 51.193)" fill="#f2f2f2"/>
  </g>
</svg>
