<svg xmlns="http://www.w3.org/2000/svg" width="192.49" height="92.079" viewBox="0 0 192.49 92.079">
  <g id="undraw_subway_-7-vh7" transform="translate(0.002)">
    <path id="Path_387" data-name="Path 387" d="M301.292,218.217v85.9a3.192,3.192,0,0,1-.072.676,3.024,3.024,0,0,1-2.94,2.411H112a3,3,0,0,1-2.78-1.923,3.117,3.117,0,0,1-.223-1.164v-85.9a3.044,3.044,0,0,1,3-3.087H298.289A3.044,3.044,0,0,1,301.292,218.217Z" transform="translate(-109 -215.13)" fill="#f2f2f2"/>
    <rect id="Rectangle_160" data-name="Rectangle 160" width="71.743" height="80.759" transform="translate(60.176 8.821)" opacity="0.03"/>
    <rect id="Rectangle_161" data-name="Rectangle 161" width="22.346" height="41.948" rx="11.173" transform="translate(69.585 19.602)" opacity="0.03"/>
    <rect id="Rectangle_162" data-name="Rectangle 162" width="22.346" height="41.948" rx="11.173" transform="translate(122.51 61.55) rotate(180)" opacity="0.03"/>
    <rect id="Rectangle_163" data-name="Rectangle 163" width="51.357" height="51.357" rx="19.62" transform="translate(5.095 10.193)" opacity="0.03"/>
    <rect id="Rectangle_164" data-name="Rectangle 164" width="51.357" height="51.357" rx="19.62" transform="translate(187 61.55) rotate(180)" opacity="0.03"/>
    <path id="Path_388" data-name="Path 388" d="M367.577,100,355,113.768v4.244L370.607,100Z" transform="translate(-285.415 -80.398)" fill="#f2f2f2"/>
    <path id="Path_389" data-name="Path 389" d="M377.346,172.3,355,194.125l.1,3.893,22.346-21.878Z" transform="translate(-285.415 -138.526)" fill="#f2f2f2"/>
    <path id="Path_390" data-name="Path 390" d="M523.577,100,511,113.768v4.244L526.607,100Z" transform="translate(-410.836 -80.398)" fill="#f2f2f2"/>
    <path id="Path_391" data-name="Path 391" d="M533.346,172.3,511,194.125l.1,3.893,22.346-21.878Z" transform="translate(-410.836 -138.526)" fill="#f2f2f2"/>
    <path id="Path_392" data-name="Path 392" d="M43.048,52,26,71.541V84.069L51.678,52Z" transform="translate(-20.905 -41.807)" fill="#f2f2f2"/>
    <path id="Path_393" data-name="Path 393" d="M65.682,52,26,91.008v2.964L70.935,52Z" transform="translate(-20.905 -41.807)" fill="#f2f2f2"/>
    <path id="Path_394" data-name="Path 394" d="M710.548,52.5,693.5,72.041V84.569L719.178,52.5Z" transform="translate(-557.563 -42.209)" fill="#f2f2f2"/>
    <path id="Path_395" data-name="Path 395" d="M733.182,52.5,693.5,91.508v2.964L738.435,52.5Z" transform="translate(-557.563 -42.209)" fill="#f2f2f2"/>
    <path id="Path_396" data-name="Path 396" d="M297.214,401.514v1.776a3.846,3.846,0,0,1-3.846,3.846h-6.52c-.2-.184-.378-.37-.565-.561a10.031,10.031,0,0,1-2.1-2.84,11.312,11.312,0,0,1-.653-4.977c0-.143.01-.284.014-.429a5.712,5.712,0,0,1-10.5-1.554,5.582,5.582,0,0,1-.145-1.568,5.684,5.684,0,0,1,1.846-3.944l2.076,1.992L275.8,390.49a5.7,5.7,0,0,1,7.929,2.478q.092-2.123.21-4.238h-.024c-.12-.02-.239-.045-.355-.071l-.2-.051c-.108-.031-.216-.063-.32-.1l-.2-.069c-.106-.039-.212-.086-.314-.133a1.761,1.761,0,0,1-.165-.074c-.127-.061-.249-.125-.37-.2-.027-.016-.055-.029-.082-.047-.145-.088-.284-.182-.419-.282-.047-.031-.09-.071-.133-.1-.09-.071-.178-.143-.263-.216l-.149-.139c-.074-.071-.147-.143-.216-.216s-.1-.1-.145-.161-.131-.151-.2-.231l-.127-.165c-.067-.092-.129-.184-.2-.28-.031-.047-.065-.094-.094-.143-.084-.141-.163-.284-.235-.433-.027-.057-.051-.118-.076-.173-.045-.1-.088-.2-.127-.3-.027-.067-.049-.137-.074-.21s-.061-.184-.088-.282-.039-.147-.059-.223a.662.662,0,0,0-.029-.12h0a5.673,5.673,0,0,1,2.725-6.155l1.278,2.529-.037-3.062a5.712,5.712,0,0,1,6.706,2.9h0l.018.043c.027.053.051.1.076.159.045.1.09.2.129.31.02.047.039.09.057.137.051.143.094.286.135.433.014.049.025.1.037.149.033.135.061.271.084.408a.138.138,0,0,0,.016.076c.023.161.039.327.051.494v.127c0,.173.01.343,0,.517a5.7,5.7,0,0,1-5.073,5.4c-.2,3.348-.331,6.706-.418,10.034a9.769,9.769,0,0,0,.516,4.287,6.794,6.794,0,0,0,1.129,1.666v-.321a5.712,5.712,0,0,1,5.973-5.441h.016l1.294,2.562-.029-2.352A5.718,5.718,0,0,1,297.214,401.514Z" transform="translate(-240.762 -345.587)" fill="#f2f2f2"/>
    <rect id="Rectangle_165" data-name="Rectangle 165" width="2.352" height="80.759" transform="translate(94.871 8.821)" opacity="0.03"/>
    <path id="Path_397" data-name="Path 397" d="M302.138,653.373a3.025,3.025,0,0,1-2.94,2.411H112.92a3,3,0,0,1-2.78-1.923c8.454-2.142,30.883-3.877,59.954-4.687q2.429-.071,4.918-.125h.308c.392-.01.8-.016,1.207-.027q2.644-.057,5.351-.108l.623-.012,2.137-.037.761-.012q2.252-.035,4.544-.063c4.84-.059,9.8-.094,14.846-.1h8.59l4.167.027c8.45.057,16.591.2,24.291.392l3.038.084q2.182.059,4.312.129C273.733,650.107,292.976,651.571,302.138,653.373Z" transform="translate(-109.918 -563.705)" fill="#3f3d56"/>
    <path id="Path_398" data-name="Path 398" d="M186.857,548.786h0a2.051,2.051,0,0,1-1.925,2.156H137.425a2.051,2.051,0,0,1-1.925-2.156h0a2.05,2.05,0,0,1,1.925-2.156h47.507A2.05,2.05,0,0,1,186.857,548.786Z" transform="translate(-130.307 -481.65)" fill="#3f3d56"/>
    <rect id="Rectangle_166" data-name="Rectangle 166" width="6.833" height="11.79" transform="translate(101.109 21.44)" fill="#3f3d56"/>
    <rect id="Rectangle_167" data-name="Rectangle 167" width="6.833" height="11.79" transform="translate(101.109 21.44)" opacity="0.1"/>
    <path id="Path_399" data-name="Path 399" d="M780.153,372.829a2.355,2.355,0,0,1,1.39-.2,1.764,1.764,0,0,1,.825.176c.49.3.565.964.588,1.537a2.77,2.77,0,0,1-.431,1.96,2.454,2.454,0,0,1-1.458.649,3.95,3.95,0,0,0-1.1.278,4.813,4.813,0,0,0-.953.731,5.077,5.077,0,0,1-2.319,1.207,2.623,2.623,0,0,1,.17-3.187c.484-.537,1.109-.951,1.635-1.449A11.7,11.7,0,0,1,780.153,372.829Z" transform="translate(-645.455 -341.745)" fill="#a0616a"/>
    <path id="Path_400" data-name="Path 400" d="M631.435,630.5a1.842,1.842,0,0,0-.137.743c.055.588.637.959,1.176,1.2a2.238,2.238,0,0,0,2.258.086c.7-.543.588-1.605.861-2.448.161-.492.463-.925.661-1.4a7.156,7.156,0,0,0-.037-4.191l-.429-2.021a.759.759,0,0,0-.2-.429,3.013,3.013,0,0,0-2.172-.114c-.6.417-.457,1.827-.553,2.489A35.184,35.184,0,0,1,631.435,630.5Z" transform="translate(-528.919 -542.061)" fill="#575a89"/>
    <path id="Path_401" data-name="Path 401" d="M599.378,630.5a1.879,1.879,0,0,1,.137.743c-.055.588-.637.959-1.176,1.2a2.238,2.238,0,0,1-2.258.086c-.7-.543-.588-1.605-.862-2.448-.159-.492-.461-.925-.659-1.4a7.141,7.141,0,0,1,.037-4.191l.429-2.021a.759.759,0,0,1,.2-.429,3.013,3.013,0,0,1,2.172-.114c.6.417.455,1.827.551,2.489A35.185,35.185,0,0,0,599.378,630.5Z" transform="translate(-499.136 -542.061)" fill="#575a89"/>
    <path id="Path_402" data-name="Path 402" d="M636.033,345.241a.916.916,0,0,1,.229.406c.071.369-.272.694-.623.827a5.557,5.557,0,0,0-1.06.367,1.841,1.841,0,0,0-.67.98,4.3,4.3,0,0,0,1.845,5.147,7.423,7.423,0,0,0,4.038.418,1.548,1.548,0,0,0,.559-.118,1.422,1.422,0,0,0,.455-.412,8.019,8.019,0,0,0,1.466-6.986.785.785,0,0,0-.116-.28c-.353-.484-1.2.112-1.7-.218a1.017,1.017,0,0,1-.331-.47,10.053,10.053,0,0,1-.7-2.519,16.677,16.677,0,0,0-2.433.841c-.759.392-.8.031-1.36.672C636.227,344.065,635.534,344.664,636.033,345.241Z" transform="translate(-530.824 -317.432)" fill="#a0616a"/>
    <path id="Path_403" data-name="Path 403" d="M636.033,345.241a.916.916,0,0,1,.229.406c.071.369-.272.694-.623.827a5.557,5.557,0,0,0-1.06.367,1.841,1.841,0,0,0-.67.98,4.3,4.3,0,0,0,1.845,5.147,7.423,7.423,0,0,0,4.038.418,1.548,1.548,0,0,0,.559-.118,1.422,1.422,0,0,0,.455-.412,8.019,8.019,0,0,0,1.466-6.986.785.785,0,0,0-.116-.28c-.353-.484-1.2.112-1.7-.218a1.017,1.017,0,0,1-.331-.47,10.053,10.053,0,0,1-.7-2.519,16.677,16.677,0,0,0-2.433.841c-.759.392-.8.031-1.36.672C636.227,344.065,635.534,344.664,636.033,345.241Z" transform="translate(-530.824 -317.432)" opacity="0.1"/>
    <path id="Path_404" data-name="Path 404" d="M595.7,469.219q.2,1.893.276,3.795a10.317,10.317,0,0,1-.29,3.624c-.2.651-.531,1.258-.706,1.917a9.257,9.257,0,0,0-.186,2.388,5.559,5.559,0,0,0,.129,1.372,12.36,12.36,0,0,0,.455,1.176,9.4,9.4,0,0,1,.225,4.453c-.343,2.8-.878,5.579-1.413,8.35l-.966,5.026a16.243,16.243,0,0,0,3.27.958c.694.125,1.6.1,1.876-.549a1.843,1.843,0,0,0,.041-.919,9.379,9.379,0,0,1,.474-4.136c.38-1.076.955-2.082,1.247-3.185a11.424,11.424,0,0,0,.3-2.121q.135-1.882.114-3.769a16.229,16.229,0,0,1,.38-5.057c.665-2.121,2.366-4.01,2.168-6.226.041,2.44.084,4.883-.08,7.317a24.171,24.171,0,0,0-.118,3.034c.082,1.484.512,2.981.2,4.436a16.354,16.354,0,0,0-.441,1.764c-.1.945.255,1.937-.061,2.834-.272.784-1.031,1.4-1.008,2.229a1.707,1.707,0,0,0,1.057,1.405,4.993,4.993,0,0,0,1.807.343c.666.043,1.474.016,1.809-.563.41-.7-.239-1.535-.361-2.339a3.906,3.906,0,0,1,.692-2.309,29.721,29.721,0,0,0,3.473-13.208c.033-1.394-.031-2.789-.023-4.183a40.429,40.429,0,0,1,1.176-9.489C605.963,467.39,600.647,467.439,595.7,469.219Z" transform="translate(-498.306 -418.039)" fill="#3c354c"/>
    <circle id="Ellipse_69" data-name="Ellipse 69" cx="3.954" cy="3.954" r="3.954" transform="translate(101.846 19.9)" fill="#a0616a"/>
    <path id="Path_405" data-name="Path 405" d="M634.837,357.863a4.471,4.471,0,0,1-1.748,1.941,1.905,1.905,0,0,1-2.389-.437c-.374-.555-.382-1.388-.964-1.713a1.16,1.16,0,0,0-1.411.408,3.039,3.039,0,0,0-.482,1.505,31.039,31.039,0,0,0-.137,3.983c.082,6.478.6,12.951.518,19.431a24.856,24.856,0,0,1-.175,3.03,39.723,39.723,0,0,1,7.253-1.36c1.19-.073,2.387-.039,3.568-.2a22.039,22.039,0,0,0,2.405-.51.535.535,0,0,0,.284-.135.525.525,0,0,0,.1-.3c.243-2.291-.559-4.548-.914-6.823-.333-2.123-.274-4.291-.561-6.422-.392-2.989-1.472-5.9-1.449-8.917a14.77,14.77,0,0,0-.082-3.279c-.2-.882-.876-2.058-1.862-2.231C635.7,355.648,635.248,357.12,634.837,357.863Z" transform="translate(-526.019 -328.244)" fill="#6c63ff"/>
    <path id="Path_406" data-name="Path 406" d="M644.318,358.241a25.457,25.457,0,0,0-2.833,7.541c-.355,2.407-.014,4.871-.306,7.286-.374,3.1-1.778,6.257-.825,9.232.212.664.535,1.288.761,1.946.98,2.893,0,6.118.633,9.109a.5.5,0,0,0,.225.38c.167.073.349-.049.523-.1.755-.241,1.274.717,1.872,1.239a2.013,2.013,0,0,0,2.2.267c1.119-.576,1.417-2.011,1.568-3.26q1.127-8.958,1.372-18a21.335,21.335,0,0,0-.169-4.1c-.272-1.641-.9-3.2-1.237-4.828a31.075,31.075,0,0,1-.169-8c.041-.784-.178-3.042-1.509-2.305C645.4,355.219,644.814,357.255,644.318,358.241Z" transform="translate(-535.939 -327.186)" fill="#82849b"/>
    <path id="Path_407" data-name="Path 407" d="M619.222,373.124a8.6,8.6,0,0,1-.288,2.536,14.5,14.5,0,0,1-1.176,2.3,13.735,13.735,0,0,0-1.384,6.1,62.614,62.614,0,0,0,.359,6.294,80.214,80.214,0,0,1,.167,9.585,7.006,7.006,0,0,1,4.073-.171c.784.2,1.719.517,2.333-.016a2.154,2.154,0,0,0,.51-1.607q.312-8.838.2-17.685a18.628,18.628,0,0,1,.065-2.317,16.448,16.448,0,0,0,.2-1.788,9.192,9.192,0,0,0-.455-2.478l-2.068-7.329a3.318,3.318,0,0,0-.616-1.356c-.335-.376-1.349-.874-1.743-.392-.341.423-.088,1.874-.094,2.4Z" transform="translate(-516.916 -335.296)" opacity="0.1"/>
    <path id="Path_408" data-name="Path 408" d="M617.854,372.45a8.617,8.617,0,0,1-.29,2.538,14.418,14.418,0,0,1-1.176,2.3,13.736,13.736,0,0,0-1.384,6.1,62.632,62.632,0,0,0,.359,6.294,80.168,80.168,0,0,1,.167,9.583,7.029,7.029,0,0,1,4.075-.171c.784.206,1.717.519,2.331-.014a2.166,2.166,0,0,0,.512-1.609q.31-8.839.2-17.685a18.608,18.608,0,0,1,.063-2.315,17.258,17.258,0,0,0,.2-1.788,9.175,9.175,0,0,0-.453-2.478l-2.068-7.329a3.354,3.354,0,0,0-.617-1.358c-.335-.378-1.349-.872-1.743-.382-.339.421-.086,1.874-.094,2.393Z" transform="translate(-515.814 -334.758)" fill="#82849b"/>
    <path id="Path_409" data-name="Path 409" d="M601.674,361.582a3.073,3.073,0,0,0-2.307,2.017c-.418.988-.539,2.074-.857,3.1-.555,1.774-1.705,3.373-1.892,5.222-.172,1.745.541,3.515.2,5.232a10.582,10.582,0,0,1-.414,1.354,43.041,43.041,0,0,0-1.427,6.012l-.565,3.017a18.55,18.55,0,0,0-.433,6.443,2.013,2.013,0,0,1,2.548.163c.2.182.359.414.615.453.441.063.712-.463.827-.892a26.729,26.729,0,0,0,.833-4.683,12.162,12.162,0,0,1,.363-2.548c.161-.516.392-1,.568-1.511a20.661,20.661,0,0,0,.5-3.771c.139-1.092.439-2.156.61-3.242a27.139,27.139,0,0,0,.233-3.991l.076-7.678a3.544,3.544,0,0,1,.833-2.76c.392-.327,1.409-.629,1.315-1.245C603.209,361.692,602.113,361.539,601.674,361.582Z" transform="translate(-498.799 -332.869)" fill="#796ac8"/>
    <path id="Path_410" data-name="Path 410" d="M666.05,350.9a4.865,4.865,0,0,1,5.244-1.486l3.242.81a3.2,3.2,0,0,1-1.382,1.274,2.352,2.352,0,0,1,2.572,1.417c.453,1.188-.143,2.489-.67,3.648a15.183,15.183,0,0,0-1.643,6.259c0,1.1-.763,2.2-.837,3.3a6.47,6.47,0,0,0,.169,2.056,13.789,13.789,0,0,0,.737,1.913A34.224,34.224,0,0,1,675.7,385h-4.426a1.96,1.96,0,0,0-.723.092,3.912,3.912,0,0,0-.735.5,1.947,1.947,0,0,1-1.451.3c-.472-2.156.274-4.348.643-6.516a32.189,32.189,0,0,0,.355-3.585q.155-2.854.157-5.718a12.893,12.893,0,0,0-.512-4.275c-.235-.674-.576-1.311-.8-1.992a11.957,11.957,0,0,1-.412-2.088C667.3,358.083,666.544,354.545,666.05,350.9Z" transform="translate(-556.86 -322.9)" fill="#796ac8"/>
    <path id="Path_411" data-name="Path 411" d="M600.757,372.04a2.176,2.176,0,0,0-.578,1.072,19.975,19.975,0,0,1-1.664,2.611,10.393,10.393,0,0,0-.729,1.729,13.619,13.619,0,0,0-1.129,6.006,2.116,2.116,0,0,0,.494,1.262,1.768,1.768,0,0,0,2.562-.57,6.5,6.5,0,0,0,.688-2.9,51.169,51.169,0,0,1,1.176-5.587,21.755,21.755,0,0,0,.494-2.838c.029-.294.2-.949-.082-1.135C601.813,371.576,600.92,371.93,600.757,372.04Z" transform="translate(-501.028 -340.985)" fill="#796ac8"/>
    <path id="Path_412" data-name="Path 412" d="M698.133,383.705a2.557,2.557,0,0,0,1.839,1.19,2.607,2.607,0,0,0,1.06-.355,50.912,50.912,0,0,1,7.905-3.15,3.677,3.677,0,0,0,.861,4.152,27.244,27.244,0,0,0-6.567,2.627,5.632,5.632,0,0,0-1.209.841,8.007,8.007,0,0,1-.757.768,3.6,3.6,0,0,1-2.17.5,3.172,3.172,0,0,1-2.493-.763l-5.414-3.871a.578.578,0,0,1-.18-.943l1.713-3.056c.392-.692.833-1.837,1.752-1.96s1.256.864,1.692,1.511A28.7,28.7,0,0,0,698.133,383.705Z" transform="translate(-576.787 -347.422)" fill="#796ac8"/>
    <rect id="Rectangle_168" data-name="Rectangle 168" width="3.618" height="7.504" rx="1.809" transform="translate(94.765 30.684) rotate(-21.57)" fill="#3f3d56"/>
    <rect id="Rectangle_169" data-name="Rectangle 169" width="3.618" height="7.504" rx="1.809" transform="translate(94.765 30.684) rotate(-21.57)" opacity="0.1"/>
    <rect id="Rectangle_170" data-name="Rectangle 170" width="3.618" height="7.504" rx="1.809" transform="translate(94.495 30.816) rotate(-21.57)" fill="#3f3d56"/>
    <circle id="Ellipse_70" data-name="Ellipse 70" cx="0.468" cy="0.468" r="0.468" transform="translate(96.822 31.892)" fill="#6c63ff"/>
    <path id="Path_413" data-name="Path 413" d="M593.085,385.586c-.243-.3-.547-.553-.761-.874a3.352,3.352,0,0,1-.447-1.409,13.022,13.022,0,0,1-.127-1.637.476.476,0,0,1,.588-.47,3.858,3.858,0,0,1,2.015,1.215,5.222,5.222,0,0,1,1.192,2.68,13.311,13.311,0,0,1,.112,1.531l.071,2.1a7.132,7.132,0,0,1-1.747,0c-.7-.2-.419-.073-.349-.764A3.079,3.079,0,0,0,593.085,385.586Z" transform="translate(-497.123 -348.633)" fill="#a0616a"/>
    <path id="Path_414" data-name="Path 414" d="M595.927,409.3a1.884,1.884,0,0,1-.829-.114,2.546,2.546,0,0,1-1.111-1.3,18.589,18.589,0,0,1-.173,3.37,9.244,9.244,0,0,0-.247,1.778,3.123,3.123,0,0,0,.843,2.046,1.466,1.466,0,0,0,.518.378,1.5,1.5,0,0,0,1.294-.223,3.279,3.279,0,0,0,1.284-1.447,6.941,6.941,0,0,0,.392-2.762c.02-.872.3-1.788.284-2.625C597.5,408.325,596.752,409.26,595.927,409.3Z" transform="translate(-498.583 -370.106)" fill="#796ac8"/>
    <path id="Path_415" data-name="Path 415" d="M624.35,301.4a5.416,5.416,0,0,0,4.508.251c-.229,1,.3,2,.568,2.993.717,2.613-.392,5.451-2.156,7.5a5.488,5.488,0,0,0,4.463-1.617,11.685,11.685,0,0,1-2.2,3.671c3.393-1.057,5.816-4.2,6.9-7.586a11.147,11.147,0,0,0-.153-7.972,6.851,6.851,0,0,0-6.447-4.136,6.324,6.324,0,0,0-4.793,3.136,8.157,8.157,0,0,0-.827,5.767Z" transform="translate(-523.071 -278.933)" fill="#3f3d56"/>
    <path id="Path_416" data-name="Path 416" d="M631.675,330.234a7.084,7.084,0,0,1-.249,4.267,7.349,7.349,0,0,0,.518-4.938c-.272-.992-.8-1.992-.57-2.993a5.412,5.412,0,0,1-4.508-.251l-.055.784a5.42,5.42,0,0,0,4.312.145C630.877,328.243,631.4,329.243,631.675,330.234Z" transform="translate(-525.311 -304.525)" opacity="0.1"/>
    <path id="Path_417" data-name="Path 417" d="M624.717,313.77a8.333,8.333,0,0,0-.512,5.142l.12-1.682A8.292,8.292,0,0,1,624.717,313.77Z" transform="translate(-523.061 -294.435)" opacity="0.1"/>
    <path id="Path_418" data-name="Path 418" d="M645.362,372.9a5.508,5.508,0,0,1-4.212,1.637c-.167.225-.339.443-.519.651a5.488,5.488,0,0,0,4.448-1.6C645.18,373.359,645.276,373.131,645.362,372.9Z" transform="translate(-536.422 -341.974)" opacity="0.1"/>
    <path id="Path_419" data-name="Path 419" d="M652.8,365.6a9.6,9.6,0,0,1-.645.8c3.193-.994,5.528-3.84,6.7-6.992A11.075,11.075,0,0,1,652.8,365.6Z" transform="translate(-545.692 -331.129)" opacity="0.1"/>
    <path id="Path_420" data-name="Path 420" d="M801.812,223.863V215.63H797.5v86.64a2.156,2.156,0,1,0,4.312,0V228.175H812.4v6.106c-3.76.235-6.665,1.8-6.665,3.695,0,1.745,2.47,3.213,5.8,3.615a15.576,15.576,0,0,0,1.844.11c4.222,0,7.645-1.67,7.645-3.724,0-1.411-1.607-2.638-3.979-3.27a13.871,13.871,0,0,0-2.685-.425v-6.106h21.562v6.106a14.618,14.618,0,0,0-1.8.225c-2.846.543-4.861,1.892-4.861,3.47a1.924,1.924,0,0,0,.214.872c.806,1.635,3.826,2.852,7.431,2.852,4.222,0,7.645-1.67,7.645-3.724,0-1.9-2.905-3.46-6.665-3.695v-6.106h17.152v-4.312Zm41.164,14.113c0,1.633-2.721,2.958-6.077,2.958s-6.077-1.325-6.077-2.958a1.432,1.432,0,0,1,.076-.463,3.121,3.121,0,0,1,1.786-1.668,9.667,9.667,0,0,1,3.515-.81h1.4C840.626,235.2,842.976,236.457,842.976,237.976Zm-26.508-2.548c1.788.519,2.985,1.466,2.985,2.548,0,1.633-2.721,2.958-6.077,2.958a12.125,12.125,0,0,1-1.268-.065c-2.744-.282-4.808-1.47-4.808-2.893,0-1.519,2.352-2.774,5.377-2.94h1.4a11.068,11.068,0,0,1,2.391.388Z" transform="translate(-662.543 -215.532)" fill="#3f3d56"/>
  </g>
</svg>
