<?xml version="1.0" encoding="utf-8"?>
<!-- Generator: Adobe Illustrator 16.0.0, SVG Export Plug-In . SVG Version: 6.00 Build 0)  -->
<!DOCTYPE svg PUBLIC "-//W3C//DTD SVG 1.1//EN" "http://www.w3.org/Graphics/SVG/1.1/DTD/svg11.dtd">
<svg version="1.1" xmlns="http://www.w3.org/2000/svg" xmlns:xlink="http://www.w3.org/1999/xlink" x="0px" y="0px" width="750px"
	 height="500px" viewBox="0 0 750 500" enable-background="new 0 0 750 500" xml:space="preserve">
<g id="BACKGROUND" display="none">
	<g display="inline">
		<g>
			<rect fill="#A4D2F5" width="750" height="500"/>
			<rect y="404.854" fill="#FFFFFF" width="750" height="95.146"/>
		</g>
		<g opacity="0.2">
			<g>
				<g>
					<path fill="#FFFFFF" d="M159.491,201.069H36.128c0,0,0-11.103,21.054-6.182c0,0,7.855-11.437,27.227-5.836
						c9.015-9.47,41.237-8.044,40.278,6.517C139.264,189.254,156.511,193.436,159.491,201.069z"/>
				</g>
				<g>
					<path fill="#FFFFFF" d="M183.02,56.274h92.832c0,0-3.069-7.433-22.632-4.175c-4.604-12.83-26.277-9.674-30.497-5.6
						c-13.618-7.23-29.729-0.509-25.893,6.72C188.007,51.794,183.02,56.274,183.02,56.274z"/>
				</g>
				<g>
					<path fill="#FFFFFF" d="M516.654,64.546h72.879c0,0,0-5.633-12.438-3.136c0,0-4.641-5.803-16.085-2.961
						c-5.325-4.804-24.361-4.081-23.795,3.307C528.604,58.552,518.415,60.674,516.654,64.546z"/>
				</g>
				<g>
					<path fill="#FFFFFF" d="M556.903,87.183h112.381c0,0,0-10.114-19.18-5.632c0,0-7.155-10.418-24.803-5.317
						c-8.212-8.626-37.566-7.328-36.692,5.937C575.33,76.42,559.619,80.229,556.903,87.183z"/>
				</g>
				<g>
					<path fill="#FFFFFF" d="M119.428,69.19h46.032c0,0-0.192-5.091-10.549-4.175c-3.644-8.146-19.18-5.312-22.44-0.11
						C123.072,61.655,119.428,69.19,119.428,69.19z"/>
				</g>
				<g>
					<path fill="#FFFFFF" d="M368.926,60.288h46.032c0,0-0.191-5.859-10.549-4.805c-3.645-9.375-19.18-6.113-22.44-0.127
						C372.57,51.616,368.926,60.288,368.926,60.288z"/>
				</g>
				<g>
					<path fill="#FFFFFF" d="M667.84,164.106h46.032c0,0-0.191-5.859-10.549-4.804c-3.645-9.375-19.181-6.113-22.44-0.127
						C671.484,155.435,667.84,164.106,667.84,164.106z"/>
				</g>
			</g>
		</g>
	</g>
</g>
<g id="OBJECTS">
	<g>
		<g>
			<path fill="#433F93" d="M570.515,293.112c-0.238,0-0.478-0.002-0.719-0.006c-0.845-0.012-1.517-0.719-1.479-1.563v-0.019
				c0.036-0.817,0.722-1.442,1.539-1.43c27.591,0.407,32.832-23.14,33.725-29.224c0.113-0.777,0.813-1.325,1.596-1.264l0,0
				c0.874,0.07,1.498,0.868,1.357,1.733C605.452,268.01,599.448,293.112,570.515,293.112z"/>
		</g>
		<ellipse fill="#736ECC" cx="569.885" cy="416.476" rx="16.525" ry="2.465"/>
		<circle fill="#8882BF" cx="569.885" cy="188.495" r="79.076"/>
		<circle fill="#8882BF" cx="501.083" cy="226.982" r="23.88"/>
		<circle fill="#8882BF" cx="520.866" cy="245.308" r="23.88"/>
		<circle fill="#8882BF" cx="547.825" cy="254.536" r="23.88"/>
		<circle fill="#8882BF" cx="607.633" cy="257.156" r="23.88"/>
		<circle fill="#8882BF" cx="648.746" cy="198.614" r="23.88"/>
		<circle fill="#8882BF" cx="613.094" cy="122.682" r="23.88"/>
		<circle fill="#8882BF" cx="527.916" cy="122.682" r="23.88"/>
		<circle fill="#8882BF" cx="501.083" cy="161.711" r="23.88"/>
		<circle fill="#8882BF" cx="542.942" cy="117.06" r="25.427"/>
		<circle fill="#8882BF" cx="491.634" cy="188.495" r="11.426"/>
		<circle fill="#8882BF" cx="487.288" cy="206.282" r="11.426"/>
		<circle fill="#8882BF" cx="505.494" cy="132.9" r="11.426"/>
		<circle fill="#8882BF" cx="565.001" cy="106.72" r="11.426"/>
		<circle fill="#8882BF" cx="578.325" cy="104.558" r="14.425"/>
		<circle fill="#8882BF" cx="594.302" cy="108.488" r="11.426"/>
		<circle fill="#8882BF" cx="640.771" cy="137.851" r="13.288"/>
		<circle fill="#8882BF" cx="641.194" cy="152.079" r="11.426"/>
		<circle fill="#8882BF" cx="650.595" cy="224.509" r="11.426"/>
		<circle fill="#8882BF" cx="646.918" cy="238.456" r="11.426"/>
		<circle fill="#8882BF" cx="636.441" cy="248.018" r="11.426"/>
		<circle fill="#8882BF" cx="588.35" cy="270.768" r="11.426"/>
		<circle fill="#8882BF" cx="570.378" cy="270.768" r="11.426"/>
		<circle fill="#8882BF" cx="637.641" cy="233.784" r="11.426"/>
		<circle fill="#8882BF" cx="650.601" cy="165.211" r="11.426"/>
		<g>
			<g>
				<g>
					
						<ellipse transform="matrix(-0.7071 -0.7071 0.7071 -0.7071 1011.3607 807.4545)" fill="#433F93" cx="672.91" cy="194.268" rx="3.046" ry="5.339"/>
				</g>
				<g>
					
						<ellipse transform="matrix(0.6048 -0.7964 0.7964 0.6048 -4.1862 545.7809)" fill="#433F93" cx="547.825" cy="277.108" rx="3.046" ry="5.338"/>
				</g>
				<g>
					
						<ellipse transform="matrix(-0.7071 -0.7071 0.7071 -0.7071 1002.64 656.5708)" fill="#433F93" cx="637.3" cy="120.632" rx="3.046" ry="5.339"/>
				</g>
				<g>
					
						<ellipse transform="matrix(-0.1307 -0.9914 0.9914 -0.1307 595.8733 774.0582)" fill="#433F93" cx="637.305" cy="125.782" rx="3.046" ry="5.338"/>
				</g>
				<g>
					
						<ellipse transform="matrix(-0.7071 0.7071 -0.7071 -0.7071 932.1965 -102.3111)" fill="#433F93" cx="487.288" cy="141.909" rx="3.046" ry="5.339"/>
				</g>
				<g>
					
						<ellipse transform="matrix(-0.9914 0.1307 -0.1307 -0.9914 997.3053 210.8336)" fill="#433F93" cx="491.733" cy="138.149" rx="3.046" ry="5.339"/>
				</g>
				<g>
					
						<ellipse transform="matrix(-0.9914 0.1306 -0.1306 -0.9914 1026.7717 146.0824)" fill="#433F93" cx="508.594" cy="106.72" rx="3.046" ry="5.338"/>
				</g>
				<g>
					
						<ellipse transform="matrix(-0.1797 0.9837 -0.9837 -0.1797 787.5543 -196.4504)" fill="#433F93" cx="475.683" cy="230.129" rx="3.046" ry="5.338"/>
				</g>
				<g>
					
						<ellipse transform="matrix(-0.7071 -0.7071 0.7071 -0.7071 995.9465 823.7461)" fill="#433F93" cx="668.563" cy="205.622" rx="3.046" ry="5.339"/>
				</g>
				<g>
					
						<ellipse transform="matrix(-0.0824 0.9966 -0.9966 -0.0824 668.7266 -314.2847)" fill="#433F93" cx="479.05" cy="150.718" rx="3.046" ry="5.338"/>
				</g>
				<g>
					
						<ellipse transform="matrix(0.9654 0.2607 -0.2607 0.9654 80.0692 -117.9187)" fill="#433F93" cx="484.442" cy="242.802" rx="3.046" ry="5.338"/>
				</g>
				<g>
					
						<ellipse transform="matrix(0.6459 0.7634 -0.7634 0.6459 267.4451 -389.7443)" fill="#433F93" cx="553.862" cy="93.43" rx="3.046" ry="5.338"/>
				</g>
				<g>
					
						<ellipse transform="matrix(0.9986 -0.0529 0.0529 0.9986 -13.585 33.3645)" fill="#433F93" cx="623.429" cy="273.288" rx="3.046" ry="5.339"/>
				</g>
				<g>
					
						<ellipse transform="matrix(0.6459 0.7635 -0.7635 0.6459 335.0055 -361.45)" fill="#433F93" cx="557.115" cy="180.382" rx="3.046" ry="5.339"/>
				</g>
				<g>
					
						<ellipse transform="matrix(-0.7413 0.6712 -0.6712 -0.7413 981.6291 70.6269)" fill="#433F93" cx="477.202" cy="224.509" rx="3.046" ry="5.338"/>
				</g>
				<g>
					
						<ellipse transform="matrix(-0.707 -0.7072 0.7072 -0.707 1013.188 732.5951)" fill="#433F93" cx="658.344" cy="156.426" rx="3.046" ry="5.338"/>
				</g>
				<g>
					
						<ellipse transform="matrix(-0.707 -0.7072 0.7072 -0.707 800.2316 616.9702)" fill="#433F93" cx="527.915" cy="142.725" rx="3.046" ry="5.338"/>
				</g>
				<g>
					
						<ellipse transform="matrix(-0.7071 -0.7071 0.7071 -0.7071 949.1453 878.7223)" fill="#433F93" cx="656.547" cy="242.802" rx="3.046" ry="5.338"/>
				</g>
				<g>
					
						<ellipse transform="matrix(-0.9966 -0.0823 0.0823 -0.9966 1034.7098 319.1125)" fill="#433F93" cx="523.933" cy="138.227" rx="3.046" ry="5.338"/>
				</g>
				<g>
					
						<ellipse transform="matrix(-0.9804 -0.1972 0.1972 -0.9804 1199.781 397.9723)" fill="#433F93" cx="619.705" cy="139.252" rx="3.046" ry="5.339"/>
				</g>
				<g>
					
						<ellipse transform="matrix(-0.9804 -0.1972 0.1972 -0.9804 1178.7551 318.7537)" fill="#433F93" cx="605.248" cy="100.689" rx="3.046" ry="5.338"/>
				</g>
				<g>
					
						<ellipse transform="matrix(-0.9804 -0.1972 0.1972 -0.9804 1069.9495 290.1273)" fill="#433F93" cx="549.419" cy="91.793" rx="3.046" ry="5.338"/>
				</g>
				<g>
					
						<ellipse transform="matrix(-0.1307 -0.9914 0.9914 -0.1307 588.0096 839.0213)" fill="#433F93" cx="661.855" cy="161.711" rx="3.046" ry="5.338"/>
				</g>
				<g>
					
						<ellipse transform="matrix(-0.8687 -0.4953 0.4953 -0.8687 1007.4261 829.5142)" fill="#433F93" cx="613.655" cy="281.235" rx="3.046" ry="5.338"/>
				</g>
				<g>
					
						<ellipse transform="matrix(-0.4564 -0.8898 0.8898 -0.4564 646.7202 938.9537)" fill="#433F93" cx="610.198" cy="271.913" rx="3.046" ry="5.338"/>
				</g>
				<g>
					
						<ellipse transform="matrix(-0.4564 -0.8898 0.8898 -0.4564 717.772 832.1768)" fill="#433F93" cx="613.094" cy="196.828" rx="3.046" ry="5.339"/>
				</g>
				<g>
					
						<ellipse transform="matrix(0.9317 -0.3631 0.3631 0.9317 -45.8136 226.5452)" fill="#433F93" cx="579.701" cy="235.136" rx="3.046" ry="5.338"/>
				</g>
				<g>
					
						<ellipse transform="matrix(0.9317 -0.3632 0.3632 0.9317 -22.6239 213.2809)" fill="#433F93" cx="555.896" cy="166.807" rx="3.046" ry="5.339"/>
				</g>
				<g>
					
						<ellipse transform="matrix(0.4329 -0.9015 0.9015 0.4329 182.1995 519.5983)" fill="#433F93" cx="504.045" cy="114.998" rx="3.046" ry="5.338"/>
				</g>
				<g>
					
						<ellipse transform="matrix(-0.9804 -0.1972 0.1972 -0.9804 1232.4236 342.7178)" fill="#433F93" cx="633.275" cy="110" rx="3.046" ry="5.338"/>
				</g>
				<g>
					
						<ellipse transform="matrix(-0.1307 -0.9914 0.9914 -0.1307 548.895 900.0652)" fill="#433F93" cx="669.061" cy="209.382" rx="3.046" ry="5.338"/>
				</g>
			</g>
		</g>
		<g>
			<g>
				<g>
					
						<ellipse transform="matrix(0.7071 0.7071 -0.7071 0.7071 268.8252 -290.1938)" fill="#9E9DC6" cx="484.708" cy="179.404" rx="2.65" ry="4.644"/>
				</g>
				<g>
					
						<ellipse transform="matrix(-0.6049 0.7963 -0.7963 -0.6049 1038.0215 -300.3892)" fill="#9E9DC6" cx="593.535" cy="107.33" rx="2.65" ry="4.645"/>
				</g>
				<g>
					
						<ellipse transform="matrix(0.7072 0.7071 -0.7071 0.7072 323.1653 -293.3239)" fill="#9E9DC6" cx="515.688" cy="243.469" rx="2.65" ry="4.645"/>
				</g>
				<g>
					
						<ellipse transform="matrix(0.1306 0.9914 -0.9914 0.1306 685.254 -303.498)" fill="#9E9DC6" cx="515.684" cy="238.989" rx="2.65" ry="4.645"/>
				</g>
				<g>
					
						<ellipse transform="matrix(0.7071 -0.7072 0.7072 0.7071 30.2189 522.8637)" fill="#9E9DC6" cx="646.204" cy="224.958" rx="2.65" ry="4.644"/>
				</g>
				<g>
					
						<ellipse transform="matrix(0.9914 -0.1306 0.1306 0.9914 -24.3095 85.8646)" fill="#9E9DC6" cx="642.336" cy="228.229" rx="2.65" ry="4.645"/>
				</g>
				<g>
					
						<ellipse transform="matrix(0.9914 -0.1306 0.1306 0.9914 -28.0073 84.1826)" fill="#9E9DC6" cx="627.667" cy="255.573" rx="2.65" ry="4.645"/>
				</g>
				<g>
					
						<ellipse transform="matrix(0.1797 -0.9837 0.9837 0.1797 392.5956 767.1973)" fill="#9E9DC6" cx="656.3" cy="148.203" rx="2.65" ry="4.644"/>
				</g>
				<g>
					
						<ellipse transform="matrix(0.7072 0.7071 -0.7071 0.7072 262.9169 -295.7468)" fill="#9E9DC6" cx="488.489" cy="169.525" rx="2.65" ry="4.645"/>
				</g>
				<g>
					
						<ellipse transform="matrix(0.0822 -0.9966 0.9966 0.0822 383.121 850.5983)" fill="#9E9DC6" cx="653.371" cy="217.293" rx="2.65" ry="4.645"/>
				</g>
				<g>
					
						<ellipse transform="matrix(-0.9654 -0.2607 0.2607 -0.9654 1239.1504 438.7491)" fill="#9E9DC6" cx="648.679" cy="137.177" rx="2.65" ry="4.645"/>
				</g>
				<g>
					
						<ellipse transform="matrix(-0.646 -0.7634 0.7634 -0.646 764.3848 888.7662)" fill="#9E9DC6" cx="588.282" cy="267.135" rx="2.65" ry="4.644"/>
				</g>
				<g>
					
						<ellipse transform="matrix(-0.9986 0.0529 -0.0529 -0.9986 1060.6265 193.2461)" fill="#9E9DC6" cx="527.757" cy="110.654" rx="2.65" ry="4.645"/>
				</g>
				<g>
					
						<ellipse transform="matrix(-0.6459 -0.7634 0.7634 -0.6459 817.4407 762.1)" fill="#9E9DC6" cx="585.452" cy="191.485" rx="2.65" ry="4.645"/>
				</g>
				<g>
					
						<ellipse transform="matrix(0.7413 -0.6712 0.6712 0.7413 66.6943 479.2148)" fill="#9E9DC6" cx="654.978" cy="153.093" rx="2.65" ry="4.644"/>
				</g>
				<g>
					
						<ellipse transform="matrix(0.7072 0.7071 -0.7071 0.7072 295.7847 -289.4983)" fill="#9E9DC6" cx="497.38" cy="212.327" rx="2.65" ry="4.645"/>
				</g>
				<g>
					
						<ellipse transform="matrix(0.7071 0.7072 -0.7072 0.7071 337.5211 -366.2783)" fill="#9E9DC6" cx="610.857" cy="224.247" rx="2.65" ry="4.644"/>
				</g>
				<g>
					
						<ellipse transform="matrix(0.7071 0.7072 -0.7072 0.7071 243.1651 -312.6443)" fill="#9E9DC6" cx="498.943" cy="137.177" rx="2.65" ry="4.644"/>
				</g>
				<g>
					
						<ellipse transform="matrix(0.9966 0.0823 -0.0823 0.9966 20.8569 -49.7744)" fill="#9E9DC6" cx="614.321" cy="228.161" rx="2.65" ry="4.644"/>
				</g>
				<g>
					
						<ellipse transform="matrix(0.9804 0.1971 -0.1971 0.9804 62.0867 -102.0438)" fill="#9E9DC6" cx="543.576" cy="260.819" rx="2.65" ry="4.644"/>
				</g>
				<g>
					
						<ellipse transform="matrix(0.9803 0.1974 -0.1974 0.9803 64.6483 -111.5819)" fill="#9E9DC6" cx="592.147" cy="268.559" rx="2.65" ry="4.644"/>
				</g>
				<g>
					
						<ellipse transform="matrix(0.1306 0.9914 -0.9914 0.1306 635.6932 -309.4976)" fill="#9E9DC6" cx="494.325" cy="207.729" rx="2.65" ry="4.645"/>
				</g>
				<g>
					
						<ellipse transform="matrix(0.8687 0.4954 -0.4954 0.8687 121.828 -252.0459)" fill="#9E9DC6" cx="536.261" cy="103.739" rx="2.65" ry="4.644"/>
				</g>
				<g>
					
						<ellipse transform="matrix(0.4563 0.8898 -0.8898 0.4563 392.7532 -419.0494)" fill="#9E9DC6" cx="539.269" cy="111.85" rx="2.65" ry="4.644"/>
				</g>
				<g>
					
						<ellipse transform="matrix(-0.9317 0.3631 -0.3631 -0.9317 1250.5159 -25.6241)" fill="#9E9DC6" cx="627.667" cy="104.731" rx="2.65" ry="4.645"/>
				</g>
				<g>
					
						<ellipse transform="matrix(-0.9317 0.3632 -0.3632 -0.9317 1208.39 215.143)" fill="#9E9DC6" cx="583.969" cy="221.176" rx="2.65" ry="4.645"/>
				</g>
				<g>
					
						<ellipse transform="matrix(-0.4328 0.9015 -0.9015 -0.4328 1128.9061 -213.5259)" fill="#9E9DC6" cx="631.625" cy="248.371" rx="2.65" ry="4.644"/>
				</g>
				<g>
					
						<ellipse transform="matrix(0.9804 0.1971 -0.1971 0.9804 60.0114 -97.3954)" fill="#9E9DC6" cx="519.191" cy="252.72" rx="2.65" ry="4.644"/>
				</g>
				<g>
					
						<ellipse transform="matrix(0.1306 0.9914 -0.9914 0.1306 589.1235 -339.3381)" fill="#9E9DC6" cx="488.055" cy="166.254" rx="2.65" ry="4.645"/>
				</g>
			</g>
		</g>
		<g>
			<g>
				<path fill="#433F93" d="M569.884,416.476L569.884,416.476c-1.222,0-2.213-1.188-2.213-2.655V218.069
					c0-1.466,0.991-2.655,2.213-2.655l0,0c1.223,0,2.213,1.189,2.213,2.655V413.82C572.097,415.287,571.106,416.476,569.884,416.476
					z"/>
			</g>
		</g>
		<g>
			<path fill="#433F93" d="M566.965,250.083c-39.265,0-46.711-34.815-47.894-42.722c-0.128-0.854,0.501-1.636,1.362-1.705
				l0.983-0.078c0.79-0.063,1.494,0.497,1.6,1.281c0.99,7.346,7.519,40.013,45.302,39.209c0.818-0.017,1.507,0.609,1.543,1.427
				l0.044,1.011c0.036,0.832-0.613,1.542-1.445,1.56C567.956,250.077,567.458,250.083,566.965,250.083z"/>
		</g>
	</g>
	<g>
		<rect x="99.707" y="402.318" fill="#4F4D96" width="449.57" height="16.6"/>
		<rect x="137.143" y="66.886" fill="#796AC8" width="374.698" height="15.946"/>
		<g>
			<rect x="99.707" y="94.372" fill="#191549" width="35.681" height="6.021"/>
			<rect x="99.707" y="133.045" fill="#191549" width="35.681" height="6.021"/>
		</g>
		<rect x="122.141" y="97.731" fill="#F7F7FF" width="404.702" height="289.327"/>
		<rect x="143.564" y="235.432" fill="#4F4D96" width="107.056" height="160.287"/>
		<rect x="153.854" y="245.308" fill="#B0A8C6" width="86.478" height="150.411"/>
		<rect x="265.404" y="235.432" fill="#4F4D96" width="239.155" height="127.607"/>
		<rect x="153.854" y="245.308" fill="#E9E4F2" width="86.478" height="120.244"/>
		<rect x="273.104" y="245.308" fill="#E9E4F2" width="223.754" height="98.169"/>
		<g>
			<defs>
				<rect id="SVGID_1_" x="273.104" y="245.308" width="223.754" height="98.169"/>
			</defs>
			<clipPath id="SVGID_2_">
				<use xlink:href="#SVGID_1_"  overflow="visible"/>
			</clipPath>
			<g clip-path="url(#SVGID_2_)">
				<g>
					<g>
						<g>
							<path fill="#CEC7DD" d="M396.732,314.09c0,0-0.783,2.588-1.038,3.505c-0.255,0.918-0.968,2.677-1.351,2.574
								c-0.382-0.102,0.383-3.542,0.179-3.746s-1.835,1.555-1.988,2.014c-0.152,0.458,0.356,3.925,0,3.95s-1.249-1.759-1.479-3.746
								c-0.229-1.988,2.637-6.006,2.637-6.006L396.732,314.09z"/>
						</g>
						<g>
							<path fill="#CEC7DD" d="M414.083,314.33c-0.159-8.403-6.246-9.143-6.246-9.143s-6.087-0.739-6.347,7.612
								c-0.2,6.408,1.595,23.881,2.44,31.668c0.239,2.196,1.795,3.999,3.645,4.224l0,0c1.85,0.225,3.425-1.197,3.689-3.333
								C412.203,337.789,414.206,320.776,414.083,314.33z"/>
						</g>
						<g>
							<path fill="#CEC7DD" d="M428.437,314.33c-0.159-8.403-6.246-9.143-6.246-9.143s-6.087-0.739-6.347,7.612
								c-0.2,6.408,1.595,23.881,2.44,31.668c0.238,2.196,1.795,3.999,3.645,4.224l0,0c1.85,0.225,3.425-1.197,3.689-3.333
								C426.557,337.789,428.559,320.776,428.437,314.33z"/>
						</g>
						<g>
							<path fill="#CEC7DD" d="M411.355,344.707c-0.166-3.503-3.576-3.503-3.576-3.503s-3.411,0-3.577,3.503
								c-0.167,3.503,1.713,30.24,1.713,30.24h4.416C410.331,374.947,411.522,348.21,411.355,344.707z"/>
						</g>
						<g>
							<path fill="#CEC7DD" d="M406.067,374.947c0,0-7.683,3.432-8.594,3.868s-1.291,1.311,1.063,1.311h9.809
								c1.099,0,1.989-0.732,1.989-1.635v-3.544H406.067z"/>
						</g>
						<g>
							<path fill="#CEC7DD" d="M425.145,342.325c-1.127-3.321-4.405-2.379-4.405-2.379s-3.278,0.941-2.471,4.354
								s9.998,28.591,9.998,28.591l4.244-1.22C432.511,371.672,426.272,345.646,425.145,342.325z"/>
						</g>
						<g>
							<path fill="#CEC7DD" d="M423.635,273.065c0,0,4.591-0.727,4.851,5.497c0.228,5.451,0.772,13.488,0.911,16.801
								c0.046,1.105-0.986,2.104-2.369,2.295l0,0c-1.382,0.19-2.646-0.491-2.901-1.568c-0.764-3.226-2.5-11.094-3.673-16.419
								C419.116,273.596,423.635,273.065,423.635,273.065z"/>
						</g>
						<g>
							<path fill="#CEC7DD" d="M422.539,272.431c-0.167-0.053-0.334-0.104-0.503-0.153c-4.846-1.449-9.874-1.449-14.72-0.002
								c-0.171,0.051-0.34,0.103-0.509,0.155c-0.585,0.183-1.033,0.809-1.148,1.603c-0.796,5.475-0.046,23.323,0.231,29.225
								c0.051,1.078,0.715,1.913,1.517,1.913h7.259h0.015h7.259c0.802,0,1.466-0.835,1.517-1.913
								c0.277-5.901,1.027-23.75,0.231-29.225C423.572,273.239,423.124,272.613,422.539,272.431z"/>
						</g>
						<g>
							<path fill="#CEC7DD" d="M427.666,309.735c-1.444-7.795-4.202-10.511-4.202-10.511h-17.75c0,0-2.623,3.755-4.068,11.55
								c-0.209,1.132,0.295,2.274,1.278,2.905c1.938,1.243,5.712,3.006,11.537,3.006c5.824,0,9.599-1.763,11.536-3.006
								C426.981,313.049,427.876,310.867,427.666,309.735z"/>
						</g>
						<g>
							<g>
								<rect x="411.149" y="264.253" fill="#CEC7DD" width="7.016" height="8.52"/>
							</g>
							<g>
								<path fill="#CEC7DD" d="M417.967,267.185c0,0-2.033,2.577-6.817,2.577c0-3.178,0-3.663,0-3.663L417.967,267.185z"/>
							</g>
						</g>
						<g>
							<path fill="#CEC7DD" d="M406.448,273.065c0,0-4.591-0.727-4.851,5.497c-0.228,5.451-0.772,13.488-0.911,16.801
								c-0.046,1.105,0.986,2.104,2.369,2.295l0,0c1.382,0.19,2.646-0.491,2.901-1.568c0.764-3.226,2.5-11.094,3.673-16.419
								C410.967,273.596,406.448,273.065,406.448,273.065z"/>
						</g>
						<g>
							<path fill="#CEC7DD" d="M403.924,292.629c0,0-2.905-1.316-4.932,4.58c-1.774,5.164-4.533,12.75-5.611,15.888
								c-0.36,1.048,0.045,2.141,0.929,2.51l0,0c0.883,0.37,1.945-0.108,2.438-1.101c1.479-2.971,4.997-10.233,7.376-15.149
								C406.839,293.748,403.924,292.629,403.924,292.629z"/>
						</g>
						<g>
							<path fill="#CEC7DD" d="M427.697,342.938c0-1.996,7.292-34.81-4.025-44.69h-17.997c0,0-4.989,6.769-4.989,22.546
								c0,15.776,0.913,52.938,0.913,52.938h10.891l2.663-57.056c0,0,0.948,20.084,1.804,27.212
								c0.855,7.129,7.846,29.003,7.846,29.003l9.643-2.581C434.444,370.311,427.697,344.935,427.697,342.938z"/>
						</g>
						<g>
							<path fill="#CEC7DD" d="M411.149,270.58c0,0-7.202,0.61-9.551,4.022c-1.883,2.736-1.681,16.918-2.333,19.104
								c-0.652,2.187-8.669,17.232-5.885,19.391s4.295,2.906,5.042,2.158c0.747-0.747,2.661-5.581,2.661-5.581
								s13.116,1.711,21.242,1.711s9.456-4.27,8.791-7.268c-0.665-2.997-0.807-16.493-1.72-23.337
								c-0.912-6.843-0.804-7.665-11.232-10.2C414.104,271.941,411.149,270.58,411.149,270.58z"/>
						</g>
						<g>
							<path fill="#CEC7DD" d="M429.388,296.241c0,0-0.92,3.055-6.694,0.701c-5.057-2.061-12.584-4.974-15.657-6.226
								c-1.026-0.419-1.582-1.442-1.279-2.351l0,0c0.303-0.908,1.362-1.394,2.434-1.113c3.21,0.842,10.994,2.97,16.262,4.412
								C430.462,293.31,429.388,296.241,429.388,296.241z"/>
						</g>
						<g>
							<path fill="#CEC7DD" d="M408.295,293.113c-1.104-0.618-1.666-1.898-1.359-3.126c0.344-1.37,0.891-3.038,1.642-3.789
								c1.386-1.386,13.749,3.326,13.749,3.326s-0.514-12.119,2.476-16.752c4.415,1.26,4.51,3.351,5.65,13.806
								s-0.94,13.496-5.65,13.496C421.147,300.074,412.146,295.267,408.295,293.113z"/>
						</g>
						<g>
							<path fill="#CEC7DD" d="M405.887,374.537c0,0-6.012,1.85-8.381,2.627c-2.37,0.777-1.223,2.962-1.223,2.962h14.052v-5.179
								C410.335,374.947,408.344,375.945,405.887,374.537z"/>
						</g>
						<g>
							<path fill="#CEC7DD" d="M428.397,372.487c0,0-6.487,5.357-7.249,6.021s-0.895,1.607,1.374,0.979l9.453-2.618
								c1.059-0.293,1.721-1.235,1.48-2.105l-0.946-3.416L428.397,372.487z"/>
						</g>
						<g>
							<path fill="#CEC7DD" d="M428.114,372.14c0,0-5.3,3.388-7.376,4.77s-0.388,3.18-0.388,3.18l13.541-3.75l-1.382-4.991
								C432.51,371.348,430.857,372.842,428.114,372.14z"/>
						</g>
						<g>
							<path fill="#CEC7DD" d="M401.234,289.74c0.025-0.353,2.686-0.299,2.686-0.299s-3.614-0.848-3.565-1.218
								c0.049-0.371,3.685,0.279,3.685,0.279s-3.799-1.423-3.678-1.778c0.122-0.355,3.789,0.788,3.789,0.788
								s-3.489-1.654-3.235-1.982s4.899,1.424,4.899,1.424s-2.306-1.623-2.257-1.97c0.033-0.241,0.65,0.076,1.655,0.511
								c1.847,0.799,3.234,2.007,3.234,2.007l-0.622,2.99C407.825,290.492,401.209,290.092,401.234,289.74z"/>
						</g>
						<g>
							<path fill="#CEC7DD" d="M411.539,268.897h1.813c4.41,0,8.019-3.608,8.019-8.02v-3.65c0-2.765-2.261-5.025-5.024-5.025h-2.143
								c-2.764,0-5.025,2.261-5.025,5.025v9.31C409.179,267.835,410.241,268.897,411.539,268.897z"/>
						</g>
						<g>
							<path fill="#CEC7DD" d="M409.179,260.55c0,0-3.163,4.014,0,4.014"/>
						</g>
						<g>
							<path fill="#CEC7DD" d="M416.212,261.457c0,0-2.088-2.305-1.597-6.973c-4.054,0-5.132,1.042-5.132,1.042
								s-2.483-2.147,0.71-4.788s11.3-1.965,12.467,3.316c1.167,5.281,0.498,10.718-4.604,13.306
								C418.484,263.451,416.212,261.457,416.212,261.457z"/>
						</g>
						<g>
							<g>
								<line fill="#CEC7DD" x1="416.751" y1="260.176" x2="413.927" y2="262.098"/>
							</g>
							<g>
								<line fill="#CEC7DD" x1="418.23" y1="263.257" x2="414.77" y2="266.843"/>
							</g>
							<g>
								<path fill="#CEC7DD" d="M414.369,261.748h-5.947c0,0-0.871,1.024-0.871,2.407s1.801,4.324,3.62,4.854
									c1.819,0.531,4.393-0.425,4.393-0.425L414.369,261.748z"/>
							</g>
						</g>
						<g>
							
								<ellipse transform="matrix(-0.9346 -0.3557 0.3557 -0.9346 713.7358 655.309)" fill="#CEC7DD" cx="417.104" cy="262.048" rx="1.863" ry="2.402"/>
						</g>
					</g>
				</g>
				<g>
					<g>
						<g>
							<rect x="270.964" y="302.797" fill="#F2F0F7" width="230.357" height="85.021"/>
						</g>
						<g>
							<rect x="270.964" y="365.552" fill="#B0A8C6" width="230.357" height="22.266"/>
						</g>
						<g>
							<g>
								<path fill="#CEC7DD" d="M323.62,311.066c0,0,0.795,2.286,0.748,3.2c-0.048,0.913-0.359,2.711-0.755,2.695
									c-0.395-0.015-0.402-3.399-0.646-3.548s-1.451,1.843-1.5,2.305c-0.048,0.462,1.208,3.603,0.865,3.701
									c-0.342,0.099-1.604-1.385-2.262-3.2c-0.659-1.813,0.889-4.58,0.889-4.58L323.62,311.066z"/>
							</g>
							<g>
								<path fill="#CEC7DD" d="M365.877,303.845c0,0,2.375,0.784,3.326,0.746c0.951-0.038,2.826-0.321,2.813-0.701
									c-0.012-0.38-3.537-0.416-3.689-0.651s1.931-1.377,2.413-1.419c0.481-0.043,3.741,1.19,3.847,0.862s-1.429-1.552-3.313-2.2
									s-4.778,0.813-4.778,0.813L365.877,303.845z"/>
							</g>
							<g>
								<path fill="#CEC7DD" d="M319.631,289.264c0,0-3.178,0.269-2.049,6.156c0.989,5.157,2.308,12.804,2.909,15.938
									c0.201,1.046,1.09,1.77,2.041,1.662l0,0c0.951-0.107,1.642-1.008,1.585-2.07c-0.17-3.182-0.669-10.917-1.009-16.151
									C322.72,288.827,319.631,289.264,319.631,289.264z"/>
							</g>
							<g>
								<path fill="#CEC7DD" d="M343.372,271.358c-0.167-0.05-0.334-0.1-0.503-0.147c-4.846-1.392-9.874-1.392-14.72-0.002
									c-0.17,0.049-0.34,0.099-0.508,0.149c-0.585,0.176-1.034,0.776-1.149,1.539c-0.795,5.257-0.045,22.396,0.232,28.063
									c0.051,1.035,0.714,1.837,1.517,1.837h7.259h0.014h7.259c0.802,0,1.465-0.802,1.516-1.837
									c0.277-5.666,1.027-22.806,0.232-28.063C344.405,272.135,343.957,271.534,343.372,271.358z"/>
							</g>
							<g>
								<g>
									<path fill="#CEC7DD" d="M323.102,341.775c0-0.038-0.001-0.079-0.002-0.115
										C322.987,341.386,323.077,341.761,323.102,341.775z"/>
								</g>
								<g>
									<path fill="#CEC7DD" d="M348.544,310.587c-0.018-1.877-0.196-3.746-0.54-5.594c-0.003-0.017-0.005-0.028-0.006-0.036
										c-1.445-7.484-3.702-7.869-3.702-7.869H326.29c0,0-1.768,0.898-3.212,8.383l-0.187,1.384
										c-0.318,2.354-0.498,4.719-0.537,7.091c-0.131,7.886-0.058,21.563,0.748,27.83c0.105,5.801,1.953,28.024,1.953,28.024
										h7.435c0,0,1.353-25.674,1.164-29.038c-0.001-0.015-0.005-0.027-0.006-0.043c0.498-3.419,1.208-8.477,1.824-13.547
										c0.616,5.07,1.326,10.128,1.824,13.547c-0.001,0.016-0.004,0.028-0.005,0.043c-0.189,3.364,1.164,29.038,1.164,29.038
										h7.434c0,0,1.848-22.224,1.953-28.025C348.664,335.357,348.623,318.946,348.544,310.587z"/>
								</g>
							</g>
							<g>
								<g>
									<rect x="333.347" y="263.506" fill="#CEC7DD" width="7.016" height="8.181"/>
								</g>
							</g>
							<g>
								<g>
									<ellipse fill="#CEC7DD" cx="330.775" cy="260.452" rx="1.557" ry="1.927"/>
								</g>
								<g>
									<ellipse fill="#CEC7DD" cx="342.967" cy="260.452" rx="1.557" ry="1.927"/>
								</g>
								<g>
									<path fill="#CEC7DD" d="M336.749,267.596h0.245c3.286,0,5.974-2.688,5.974-5.974v-5.133c0-2.709-2.216-4.925-4.924-4.925
										h-2.344c-2.708,0-4.924,2.216-4.924,4.925v5.133C330.775,264.908,333.463,267.596,336.749,267.596z"/>
								</g>
							</g>
							<g>
								<path fill="#CEC7DD" d="M328.215,272.264c0,0-4.292-1.713-6.005,4.038c-1.5,5.037-3.916,12.417-4.828,15.478
									c-0.304,1.021,0.465,2.187,1.764,2.676l0,0c1.299,0.489,2.688,0.139,3.188-0.81c1.5-2.84,5.034-9.793,7.422-14.499
									C332.482,273.776,328.215,272.264,328.215,272.264z"/>
							</g>
							<g>
								<path fill="#CEC7DD" d="M344.644,270.753c0,0-4.514,1.065-2.341,6.672c1.902,4.909,4.514,12.228,5.67,15.211
									c0.386,0.996,1.725,1.496,3.073,1.15l0,0c1.348-0.346,2.25-1.42,2.067-2.468c-0.546-3.141-1.994-10.752-2.978-15.901
									C349.015,269.541,344.644,270.753,344.644,270.753z"/>
							</g>
							<g>
								<path fill="#CEC7DD" d="M348.297,289.838c0,0-2.542,2.15,2.751,5.313c4.637,2.771,11.725,6.653,14.542,8.336
									c0.941,0.563,2.096,0.418,2.654-0.33l0,0c0.558-0.747,0.329-1.844-0.527-2.519c-2.565-2.021-8.856-6.874-13.116-10.157
									C349.742,286.735,348.297,289.838,348.297,289.838z"/>
							</g>
							<g>
								<path fill="#CEC7DD" d="M333.347,269.813c0,0-7.581,1.563-10.452,2.849c-2.871,1.287-5.555,15.072-5.555,15.072l6.78,2.9
									l-2.791,18.207c-0.34,2.219,1.257,4.293,3.57,4.603c4.841,0.649,13.288,1.319,22.036-0.149
									c2.111-0.354,3.577-2.227,3.438-4.28c-1.103-16.357-3.361-30.077-3.361-30.077l0.854,11.633l6.567-2.408l-2.724-15.604
									c-0.697-1.487-2.14-2.527-3.822-2.754l-7.452-1.007C340.436,268.796,337.292,271.467,333.347,269.813z"/>
							</g>
							<g>
								<path fill="#CEC7DD" d="M327.474,369.8c0,0-9.23,0.006-9.23,4.973c9.171,0,14.454,0,14.454,0l-0.208-4.973"/>
							</g>
							<g>
								<path fill="#CEC7DD" d="M343.467,369.8c0,0,9.23,0.006,9.23,4.973c-9.171,0-14.454,0-14.454,0l0.209-4.973"/>
							</g>
							<g>
								<path fill="#CEC7DD" d="M336.551,268.294c0,0,4.446,0.206,6.435-4.173s2.925-8.739-0.694-12.214
									c-3.619-3.475-8.691-2.262-10.516-0.511c-1.824,1.752-3.472,4.173-2.648,8.81S333.171,268.294,336.551,268.294z"/>
							</g>
						</g>
					</g>
				</g>
				<rect x="250.621" y="266.843" fill="#CEC7DD" width="54.178" height="98.515"/>
				<rect x="447.144" y="276.334" fill="#CEC7DD" width="54.178" height="89.023"/>
			</g>
		</g>
		<rect x="117.547" y="385.333" fill="#796AC8" width="413.889" height="16.985"/>
		<rect x="149.985" y="385.333" fill="#9C95B5" width="94.214" height="16.985"/>
		<rect x="143.564" y="402.318" fill="#8A83A5" width="107.056" height="16.6"/>
		<g>
			<rect x="88.482" y="421.974" fill="#837AD3" width="4.114" height="6.928"/>
			<rect x="125.074" y="421.974" fill="#837AD3" width="4.114" height="6.928"/>
			<rect x="86.426" y="358.75" fill="#837AD3" width="44.819" height="66.038"/>
			<rect x="88.807" y="361.131" fill="#191549" width="40.056" height="61.275"/>
		</g>
		<rect x="153.854" y="263.146" fill="#CEC7DD" width="70.003" height="102.406"/>
		<polygon fill="#FFFFFF" points="164.685,297.153 188.946,289.84 188.946,265.578 164.685,272.891 		"/>
		<g>
			<defs>
				<polygon id="SVGID_3_" points="240.332,245.308 153.854,245.308 153.854,385.333 240.332,385.466 				"/>
			</defs>
			<clipPath id="SVGID_4_">
				<use xlink:href="#SVGID_3_"  overflow="visible"/>
			</clipPath>
			<path clip-path="url(#SVGID_4_)" fill="#1C344D" d="M194.164,240.017v127.968l-34.697,10.594V250.61l37.108-10.594
				 M199.777,233.129l-45.924,12.311v140.026l45.924-12.311V233.129L199.777,233.129z"/>
			<path clip-path="url(#SVGID_4_)" fill="#1C344D" d="M154.993,315.845L154.993,315.845c0,1.582,0.681,2.661,1.521,2.408
				l40.602-12.183c0.84-0.252,1.521-1.739,1.521-3.321l0,0c0-1.582-0.681-2.66-1.521-2.408l-40.602,12.183
				C155.674,312.775,154.993,314.263,154.993,315.845z"/>
		</g>
		<g>
			<path fill="#665FAF" d="M83.615,206.63v29.365c17.105,7.252,36.422,7.252,53.528,0l0,0V206.63H83.615z"/>
			<path fill="#665FAF" d="M244.2,206.63v29.365l-0.629,0.267c-16.704,7.082-35.566,7.082-52.271,0l-0.629-0.267V206.63"/>
			<path fill="#665FAF" d="M351.256,206.63v29.365l0,0c-17.106,7.252-36.422,7.252-53.528,0h0V206.63"/>
			<path fill="#665FAF" d="M458.313,206.63v29.365l0,0c-17.106,7.252-36.423,7.252-53.528,0l0,0V206.63"/>
			<path fill="#665FAF" d="M565.369,206.63v29.365l0,0c-17.106,7.252-36.423,7.252-53.528,0l0,0V206.63"/>
			<path fill="#E9E4F2" d="M190.671,206.63v29.365l0,0c-17.106,7.252-36.422,7.252-53.528,0l0,0V206.63"/>
			<path fill="#E9E4F2" d="M297.728,206.63v29.365l0,0c-16.152,7.25-34.558,7.619-50.987,1.021l-2.541-1.021V206.63"/>
			<path fill="#E9E4F2" d="M404.784,206.63v29.365l0,0c-17.105,7.252-36.422,7.252-53.528,0l0,0V206.63"/>
			<path fill="#E9E4F2" d="M511.841,206.63v29.365l0,0c-17.106,7.252-36.423,7.252-53.528,0l0,0V206.63"/>
			<polyline fill="#796AC8" points="83.615,206.63 122.141,151.305 167.108,151.305 137.143,206.63 			"/>
			<polyline fill="#796AC8" points="511.841,206.63 481.876,151.305 526.843,151.305 565.369,206.63 			"/>
			<polyline fill="#F2F0F7" points="137.143,206.63 167.108,151.305 212.075,151.305 190.671,206.63 			"/>
			<polyline fill="#796AC8" points="190.671,206.63 212.075,151.305 257.042,151.305 244.2,206.63 			"/>
			<polyline fill="#F2F0F7" points="244.2,206.63 257.042,151.305 302.008,151.305 297.728,206.63 			"/>
			<polyline fill="#796AC8" points="297.728,206.63 302.008,151.305 346.976,151.305 351.256,206.63 			"/>
			<polyline fill="#F2F0F7" points="351.256,206.63 346.976,151.305 391.942,151.305 404.784,206.63 			"/>
			<polyline fill="#796AC8" points="404.784,206.63 391.942,151.305 436.909,151.305 458.313,206.63 			"/>
			<polyline fill="#F2F0F7" points="458.313,206.63 436.909,151.305 481.876,151.305 511.841,206.63 			"/>
		</g>
		<rect x="122.141" y="136.405" fill="#7D76C1" width="404.702" height="14.9"/>
		<path fill="#191549" d="M56.075,148.686h41.585c6.171,0,11.175-5.003,11.175-11.175V95.926c0-6.172-5.003-11.175-11.175-11.175
			H56.075c-6.171,0-11.175,5.003-11.175,11.175v41.585C44.9,143.683,49.904,148.686,56.075,148.686z"/>
		<path fill="#191549" d="M57.976,144.17H95.76c4.708,0,8.559-3.852,8.559-8.559V97.826c0-4.708-3.852-8.559-8.559-8.559H57.976
			c-4.708,0-8.559,3.851-8.559,8.559v37.785C49.417,140.318,53.268,144.17,57.976,144.17z"/>
		<rect x="122.141" y="82.832" fill="#7D76C1" width="404.702" height="14.899"/>
	</g>
	<g>
		<g>
			<ellipse fill="#DF5719" cx="230.262" cy="442.4" rx="32.251" ry="7.673"/>
			<g>
				<path fill="#F26B51" d="M216.633,370.716c0,0,0.861,2.579,0.809,3.609c-0.052,1.029-0.389,3.057-0.817,3.04
					c-0.428-0.018-0.436-3.834-0.7-4.001c-0.264-0.168-1.57,2.077-1.624,2.599c-0.053,0.521,1.308,4.063,0.937,4.174
					s-1.736-1.563-2.45-3.608c-0.713-2.046,0.963-5.166,0.963-5.166L216.633,370.716z"/>
				<path fill="#F26B51" d="M212.313,346.128c0,0-3.441,0.303-2.219,6.943c1.071,5.815,2.5,14.439,3.15,17.973
					c0.217,1.181,1.18,1.995,2.21,1.875l0,0c1.03-0.121,1.778-1.137,1.717-2.335c-0.185-3.589-0.725-12.312-1.093-18.215
					C215.658,345.635,212.313,346.128,212.313,346.128z"/>
				<path fill="#F26B51" d="M238.022,325.935c-0.181-0.056-0.362-0.111-0.544-0.166c-5.248-1.568-10.693-1.568-15.941-0.002
					c-0.185,0.056-0.368,0.111-0.551,0.168c-0.633,0.198-1.119,0.876-1.244,1.736c-0.861,5.929-0.049,25.258,0.251,31.647
					c0.055,1.168,0.773,2.072,1.642,2.072h7.861h0.015h7.861c0.868,0,1.587-0.904,1.642-2.072c0.3-6.39,1.113-25.72,0.251-31.647
					C239.142,326.811,238.656,326.133,238.022,325.935z"/>
				<g>
					<path fill="#4EA2E5" d="M216.071,405.348c0-0.043-0.001-0.088-0.002-0.129C215.948,404.908,216.044,405.332,216.071,405.348z"
						/>
					<path fill="#1C344D" d="M243.624,370.175c-0.019-2.116-0.212-4.225-0.584-6.309c-0.003-0.018-0.006-0.031-0.007-0.04
						c-1.564-8.44-4.008-8.875-4.008-8.875h-19.499c0,0-1.914,1.014-3.479,9.455l-0.203,1.56c-0.345,2.654-0.539,5.321-0.582,7.997
						c-0.142,8.893-0.063,24.316,0.81,31.385c0.114,6.543,2.115,31.605,2.115,31.605h8.051c0,0,1.465-28.954,1.26-32.748
						c-0.001-0.017-0.005-0.031-0.006-0.048c0.539-3.856,1.308-9.56,1.975-15.278c0.667,5.719,1.436,11.422,1.975,15.278
						c-0.001,0.017-0.005,0.031-0.006,0.048c-0.205,3.794,1.26,32.748,1.26,32.748h8.051c0,0,2.001-25.063,2.115-31.605
						C243.754,398.111,243.709,379.603,243.624,370.175z"/>
				</g>
				<g>
					<rect x="227.167" y="317.079" fill="#F26B51" width="7.598" height="9.226"/>
				</g>
				<g>
					<ellipse fill="#F26B51" cx="224.381" cy="313.635" rx="1.686" ry="2.174"/>
					<ellipse fill="#F26B51" cx="237.585" cy="313.635" rx="1.686" ry="2.174"/>
					<path fill="#F26B51" d="M230.983,321.692L230.983,321.692c3.631,0,6.602-2.971,6.602-6.602v-6.037
						c0-2.992-2.449-5.441-5.441-5.441h-2.32c-2.993,0-5.442,2.449-5.442,5.441v6.037
						C224.381,318.722,227.352,321.692,230.983,321.692z"/>
				</g>
				<path fill="#F26B51" d="M221.608,326.956c0,0-4.648-1.932-6.503,4.555c-1.625,5.68-4.241,14.002-5.228,17.454
					c-0.33,1.152,0.504,2.466,1.911,3.018l0,0c1.406,0.553,2.911,0.156,3.453-0.913c1.624-3.202,5.451-11.044,8.038-16.352
					C226.23,328.662,221.608,326.956,221.608,326.956z"/>
				<path fill="#F26B51" d="M231.886,330.135c0,0,1.921,4.653,7.819,1.379c5.166-2.868,12.9-6.903,16.039-8.646
					c1.048-0.582,1.388-2.101,0.784-3.485l0,0c-0.604-1.385-1.948-2.168-3.088-1.796c-3.412,1.116-11.663,3.954-17.246,5.879
					C229.825,325.661,231.886,330.135,231.886,330.135z"/>
				<path fill="#F26B51" d="M256.098,322.176c0,0,2.864-2.293-2.696-6.124c-4.87-3.355-12.332-8.09-15.291-10.128
					c-0.988-0.681-2.245-0.576-2.888,0.237l0,0c-0.643,0.813-0.454,2.061,0.437,2.864c2.668,2.407,9.218,8.193,13.652,12.107
					C254.372,325.598,256.098,322.176,256.098,322.176z"/>
				<path fill="#796AC8" d="M227.167,324.191c0,0-8.21,1.763-11.319,3.213c-3.109,1.451-6.016,16.997-6.016,16.997l7.343,3.271
					l-3.022,20.534c-0.37,2.512,1.375,4.844,3.891,5.193c5.247,0.731,14.38,1.481,23.839-0.173c2.283-0.399,3.875-2.487,3.725-4.8
					c-1.193-18.459-3.641-33.946-3.641-33.946l7.669-3.864l-3.271-10.645l-11.52,3.072
					C234.843,323.045,231.438,326.058,227.167,324.191z"/>
				<path fill="#1C344D" d="M220.807,436.953c0,0-9.996,0.007-9.996,5.607c9.932,0,15.652,0,15.652,0l-0.227-5.607"/>
				<path fill="#1C344D" d="M238.125,436.953c0,0,9.996,0.007,9.996,5.607c-9.932,0-15.652,0-15.652,0l0.227-5.607"/>
				<path fill="#1C344D" d="M230.636,322.479c0,0,4.814,0.232,6.968-4.706c2.154-4.938,3.167-9.855-0.751-13.774
					c-3.919-3.92-9.412-2.552-11.387-0.576c-1.976,1.976-3.76,4.706-2.868,9.935C223.49,318.587,226.976,322.479,230.636,322.479z"
					/>
			</g>
		</g>
		<g>
			<ellipse fill="#DF5719" cx="345.104" cy="442.4" rx="32.251" ry="7.673"/>
			<g>
				<path fill="#F26B51" d="M348.628,377.999c1.367-8.465-4.61-10.313-4.61-10.313s-6.124-3.563-7.903,4.775
					c-1.365,6.397-2.592,25.982-3.157,33.954c-0.16,2.249,1.076,4.342,2.892,4.903l0,0c1.816,0.562,3.657-0.58,4.311-2.676
					C342.478,401.212,347.58,384.495,348.628,377.999z"/>
				<path fill="#F26B51" d="M340.369,408.005c0.47-3.548-2.955-4.168-2.955-4.168s-3.424-0.619-4.228,2.868
					c-0.804,3.486-3.775,30.674-3.775,30.674l4.434,0.803C333.845,438.182,339.899,411.553,340.369,408.005z"/>
				<path fill="#F26B51" d="M329.661,437.277c0,0-7.839,3.501-8.769,3.946c-0.93,0.446-1.317,1.337,1.084,1.337h10.009
					c1.121,0,2.029-0.746,2.029-1.667v-3.616H329.661z"/>
				<path fill="#F26B51" d="M363.439,375.424c-0.163-8.573-6.374-9.328-6.374-9.328s-6.211-0.754-6.477,7.768
					c-0.204,6.538,1.627,24.368,2.491,32.313c0.244,2.241,1.832,4.08,3.719,4.31l0,0c1.887,0.229,3.495-1.222,3.765-3.4
					C361.521,399.361,363.564,382.003,363.439,375.424z"/>
				<path fill="#F26B51" d="M360.656,406.421c-0.17-3.575-3.65-3.575-3.65-3.575s-3.48,0-3.65,3.575
					c-0.17,3.574,1.749,30.856,1.749,30.856h4.506C359.611,437.277,360.826,409.995,360.656,406.421z"/>
				<path fill="#F26B51" d="M353.155,332.104c0,0,5.834-1.324,10.55,2.938c4.13,3.732,10.37,9.084,12.879,11.352
					c0.838,0.758,0.826,2.224-0.023,3.366l0,0c-0.85,1.142-2.25,1.574-3.216,0.99c-2.895-1.751-9.862-6.114-14.577-9.069
					C353.389,338.308,353.155,332.104,353.155,332.104z"/>
				<path fill="#F26B51" d="M357.478,332.672c-0.17-0.054-0.341-0.106-0.513-0.157c-4.945-1.479-10.075-1.479-15.02-0.002
					c-0.174,0.052-0.347,0.104-0.519,0.159c-0.597,0.187-1.055,0.825-1.172,1.635c-0.812,5.586-0.046,23.799,0.237,29.82
					c0.052,1.1,0.729,1.952,1.547,1.952h7.407h0.014h7.407c0.818,0,1.496-0.853,1.547-1.952c0.283-6.021,1.049-24.234,0.237-29.82
					C358.532,333.497,358.074,332.858,357.478,332.672z"/>
				<path fill="#F26B51" d="M362.709,370.736c-1.474-7.954-4.288-10.725-4.288-10.725H340.31c0,0-2.677,3.831-4.151,11.785
					c-0.214,1.155,0.3,2.32,1.304,2.965c1.977,1.269,5.828,3.066,11.772,3.066s9.795-1.798,11.772-3.066
					C362.01,374.117,362.923,371.892,362.709,370.736z"/>
				<g>
					<rect x="347.249" y="324.327" fill="#F26B51" width="7.159" height="8.693"/>
					<path fill="#F26B51" d="M354.205,327.318c0,0-2.074,2.63-6.956,2.63c0-3.243,0-3.737,0-3.737L354.205,327.318z"/>
				</g>
				<g>
					<ellipse fill="#F26B51" cx="344.624" cy="321.082" rx="1.588" ry="2.048"/>
					<ellipse fill="#F26B51" cx="357.065" cy="321.082" rx="1.589" ry="2.048"/>
					<path fill="#F26B51" d="M350.845,328.674L350.845,328.674c3.421,0,6.22-2.8,6.22-6.221v-5.688c0-2.82-2.307-5.127-5.127-5.127
						h-2.186c-2.82,0-5.127,2.307-5.127,5.127v5.688C344.624,325.874,347.423,328.674,350.845,328.674z"/>
				</g>
				<path fill="#F26B51" d="M343.339,332.14c0,0-6.964,0.438-7.229,6.789c-0.232,5.562-0.789,13.763-0.93,17.143
					c-0.047,1.128,1.006,2.147,2.417,2.342l0,0c1.41,0.194,2.701-0.501,2.961-1.601c0.779-3.291,2.551-11.319,3.747-16.753
					C345.669,333.86,343.339,332.14,343.339,332.14z"/>
				<path fill="#F26B51" d="M338.483,353.281c0,0-2.965-1.343-5.032,4.674c-1.811,5.269-4.376,14.114-5.476,17.316
					c-0.367,1.069-0.204,1.078,0.698,1.456l0,0c0.901,0.377,1.985-0.111,2.489-1.123c1.508-3.031,5.099-10.442,7.526-15.458
					C341.458,354.423,338.483,353.281,338.483,353.281z"/>
				<path fill="#F26B51" d="M376.901,347.119c0,0,1.884,2.654-3.629,5.83c-4.828,2.782-11.89,7.021-14.824,8.711
					c-0.979,0.564-2.152,0.37-2.694-0.442l0,0c-0.542-0.813-0.27-1.97,0.628-2.657c2.688-2.059,9.279-6.995,13.741-10.334
					C375.213,344.417,376.901,347.119,376.901,347.119z"/>
				<path fill="#1C344D" d="M359.315,342.022c0,0-9.845-2.677-19.42-0.343c-3.038,2.154-0.44,9.329-0.44,9.329v9.003
					c0,0-4.478,9.344-7.075,33.881c-2.597,24.536-3.94,41.729-3.94,41.729l8.417,1.655l12.377-59.449l3.458,58.868h8.343
					c0,0,1.057-27.67,2.409-40.565s3.143-27.308-4.11-37.116C358.528,351.804,359.315,342.022,359.315,342.022z"/>
				<path fill="#6F67C1" d="M326.769,438.57c0,0,0.021,0.022,0.055,0.062c0.249,0.284,1.202,1.479,0.132,2
					c-1.218,0.593-2.291-1.118-2.291-1.118s-3.486,1.243-4.298,1.556c-0.812,0.312-0.531,1.491-0.531,1.491h14.178
					c0,0,0.938-1.492,0-3.99c-2.032,0-4.604,1.687-4.604,1.687l-1.647-2.132"/>
				<path fill="#F26B51" d="M355.233,437.277c0,0-7.839,3.501-8.769,3.946c-0.93,0.446-1.317,1.337,1.085,1.337h10.009
					c1.121,0,2.029-0.746,2.029-1.667v-3.616H355.233z"/>
				<path fill="#6F67C1" d="M352.341,438.57c0,0,0.021,0.022,0.055,0.062c0.249,0.284,1.202,1.479,0.132,2
					c-1.218,0.593-2.291-1.118-2.291-1.118s-3.486,1.243-4.298,1.556c-0.812,0.312-0.531,1.491-0.531,1.491h14.178
					c0,0,0.938-1.492,0-3.99c-2.031,0-4.604,1.687-4.604,1.687l-1.647-2.132"/>
				<path fill="#1C344D" d="M344.624,320.826c0,0-1.982-3.075-0.406-6.689c1.576-3.613-0.922-4.959,3.306-8.342
					s15.507,3.422,9.541,15.031c-0.469-4.152-4.543-0.923-7.081-6.843C346.14,313.983,343.916,317.443,344.624,320.826z"/>
				<path fill="#F26B51" d="M330.757,375.271c0,0,0.26,2.549,0,3.484c-0.26,0.937-0.988,2.731-1.378,2.627
					c-0.39-0.104,0.39-3.614,0.182-3.823c-0.208-0.208-1.873,1.587-2.028,2.055c-0.156,0.469,0.364,4.005,0,4.031
					s-1.274-1.794-1.508-3.823c-0.234-2.028,1.95-4.551,1.95-4.551H330.757z"/>
				<path fill="#F26B51" d="M358.198,363.731c-0.288-0.217,1.229-2.468,1.229-2.468s-2.725,2.63-3.016,2.384
					c-0.292-0.247,2.278-3.005,2.278-3.005s-3.321,2.471-3.559,2.17c-0.238-0.302,2.771-2.813,2.771-2.813s-3.349,2.077-3.49,1.678
					c-0.141-0.399,3.931-3.413,3.931-3.413s-2.667,1.079-2.938,0.846c-0.188-0.162,0.426-0.516,1.354-1.137
					c0.768-0.515,1.556-0.902,2.19-1.175c0.769-0.329,1.659-0.154,2.255,0.434l0,0c0.74,0.729,0.824,1.891,0.198,2.719
					C360.195,361.549,358.387,363.874,358.198,363.731z"/>
				<g>
					<path fill="#FFFFFF" d="M347.059,321.405h7.763l0.952,4.569c0,0-1.623,3.006-5.092,3.006s-5.092-2.93-5.092-2.93
						L347.059,321.405z"/>
					
						<line fill="none" stroke="#FFFFFF" stroke-width="0.4938" stroke-miterlimit="10" x1="344.103" y1="319.208" x2="347.728" y2="322.075"/>
					
						<line fill="none" stroke="#FFFFFF" stroke-width="0.4938" stroke-miterlimit="10" x1="357.587" y1="319.208" x2="353.961" y2="322.075"/>
				</g>
			</g>
		</g>
		<g>
			<ellipse fill="#DF5719" cx="689.63" cy="442.4" rx="32.252" ry="7.673"/>
			<g>
				<path fill="#1C344D" d="M670.302,310.755c2.252-5.67,6.758-5.338,7.504-5.241c0.746-0.097,5.252-0.429,7.504,5.241
					c2.021,5.088,2.994,7.152,1.304,8.697c-0.71,0.649-1.666,0.96-2.627,0.96h-6.072c-0.138,0-0.217,0-0.217,0h-6.072
					c-0.962,0-1.917-0.311-2.627-0.96C667.308,317.907,668.281,315.843,670.302,310.755z"/>
				<path fill="#F26B51" d="M680.233,375.616c-1.418-8.778,4.78-10.695,4.78-10.695s6.354-3.809,8.199,4.838
					c1.415,6.634,2.683,27.056,3.27,35.322c0.165,2.331-1.115,4.501-2.999,5.084l0,0c-1.883,0.582-3.791-0.602-4.47-2.774
					C686.61,399.686,681.32,382.352,680.233,375.616z"/>
				<path fill="#F26B51" d="M688.797,406.729c-0.487-3.679,3.063-4.321,3.063-4.321s3.552-0.643,4.385,2.973
					c0.833,3.616,3.914,31.807,3.914,31.807l-4.597,0.832C695.563,438.02,689.283,410.408,688.797,406.729z"/>
				<path fill="#F26B51" d="M699.901,437.082c0,0,8.128,3.631,9.092,4.093s1.366,1.386-1.124,1.386H697.49
					c-1.162,0-2.104-0.773-2.104-1.729v-3.75H699.901z"/>
				<path fill="#F26B51" d="M664.875,372.945c0.169-8.89,6.608-9.672,6.608-9.672s6.44-0.782,6.716,8.054
					c0.211,6.78-1.688,25.268-2.582,33.506c-0.253,2.324-1.899,4.231-3.856,4.469l0,0c-1.957,0.238-3.624-1.267-3.904-3.526
					C666.864,397.767,664.746,379.767,664.875,372.945z"/>
				<path fill="#F26B51" d="M667.761,405.087c0.176-3.707,3.784-3.707,3.784-3.707s3.609,0,3.785,3.707
					c0.176,3.706-1.979,32.417-1.979,32.417l-4.507-0.422C668.845,437.082,667.585,408.793,667.761,405.087z"/>
				<path fill="#F26B51" d="M672.346,330.656c0,0-2.856-4.004-7.746,0.416c-4.282,3.87-10.752,9.418-13.354,11.771
					c-0.869,0.785-0.857,2.305,0.024,3.489l0,0c0.881,1.186,2.333,1.634,3.335,1.027c3.001-1.815,10.227-6.34,15.115-9.404
					C675.296,334.459,672.346,330.656,672.346,330.656z"/>
				<path fill="#F26B51" d="M671.057,328.614c0.177-0.055,0.354-0.109,0.532-0.162c5.127-1.533,10.447-1.533,15.574-0.002
					c0.181,0.054,0.36,0.108,0.538,0.164c0.619,0.194,1.094,0.856,1.216,1.696c0.842,5.792,0.048,24.678-0.245,30.921
					c-0.054,1.141-0.757,2.024-1.604,2.024h-7.681h-0.015h-7.681c-0.849,0-1.551-0.884-1.604-2.024
					c-0.293-6.243-1.087-25.129-0.245-30.921C669.964,329.471,670.438,328.809,671.057,328.614z"/>
				<path fill="#F26B51" d="M665.632,368.085c1.529-8.247,4.447-11.12,4.447-11.12h19.051c0,0,2.504,3.973,4.033,12.22
					c0.222,1.197-0.312,2.406-1.353,3.074c-2.05,1.315-6.043,3.18-12.206,3.18s-10.156-1.864-12.206-3.18
					C666.357,371.591,665.41,369.282,665.632,368.085z"/>
				<g>
					<rect x="674.24" y="319.963" fill="#F26B51" width="7.423" height="9.014"/>
					<path fill="#F26B51" d="M674.45,323.063c0,0,2.151,2.728,7.213,2.728c0-3.362,0-3.876,0-3.876L674.45,323.063z"/>
				</g>
				<g>
					<ellipse fill="#F26B51" cx="684.385" cy="316.598" rx="1.647" ry="2.123"/>
					<ellipse fill="#F26B51" cx="671.485" cy="316.598" rx="1.647" ry="2.123"/>
					<path fill="#F26B51" d="M677.935,324.47L677.935,324.47c-3.548,0-6.45-2.903-6.45-6.45v-5.897c0-2.925,2.393-5.317,5.317-5.317
						h2.267c2.924,0,5.316,2.393,5.316,5.317v5.897C684.385,321.566,681.482,324.47,677.935,324.47z"/>
				</g>
				<path fill="#F26B51" d="M685.68,328.21c0,0,4.654-1.59,6.052,4.852c1.225,5.641,3.249,13.921,3.992,17.349
					c0.249,1.145-0.646,2.372-2.053,2.821l0,0c-1.406,0.449-2.849-0.032-3.31-1.109c-1.38-3.225-4.615-11.111-6.802-16.45
					C681.065,329.58,685.68,328.21,685.68,328.21z"/>
				<path fill="#1C344D" d="M688.99,351.954c0,0,5.322,12.855,6.493,29.592c-10.042,1.953-15.461,1.674-15.461,1.674l-0.885-7.029
					l-0.67,7.043c0,0-7.978,1.158-14.003-0.683c-0.446-12.162-0.231-23.059,5.276-29.769
					C682.67,353.66,688.99,351.954,688.99,351.954z"/>
				<path fill="#4EA2E5" d="M681.663,327.303l5.945,0.788c0,0,2.719,7.89,2.719,14.126c0,6.237-1.337,9.737-1.337,9.737
					s-7.059,3.438-19.249,0.828c-1.753-11.838-0.605-23.784-0.605-23.784l5.104-1.321
					C674.24,327.677,677.837,329.698,681.663,327.303z"/>
				<path fill="#F26B51" d="M695.688,350.097c0,0,1.111,3.187-5.114,4.71c-5.453,1.335-13.476,3.455-16.788,4.266
					c-1.106,0.271-2.195-0.267-2.502-1.232l0,0c-0.306-0.966,0.273-2.032,1.333-2.449c3.175-1.248,10.929-4.199,16.177-6.194
					C694.78,346.92,695.688,350.097,695.688,350.097z"/>
				<path fill="#F26B51" d="M650.916,343.596c0,0-1.953,2.753,3.763,6.046c5.006,2.884,9.922,5.878,12.964,7.631
					c1.016,0.585,2.232,0.384,2.794-0.459l0.094-0.148c0.562-0.843,0.279-2.042-0.651-2.755c-2.787-2.134-7.309-5.704-11.935-9.166
					C652.666,340.794,650.916,343.596,650.916,343.596z"/>
				<path fill="#1C344D" d="M695.386,439.322h4.51l1.018-1.788l2.413,0.828c8.291,0.429,6.698,4.198,6.698,4.198s-5.432,0-14.639,0
					C694.838,441.063,695.386,439.322,695.386,439.322z"/>
				<path fill="#F26B51" d="M673.314,437.082c0,0,8.128,3.631,9.092,4.093c0.965,0.462,1.366,1.386-1.124,1.386h-10.379
					c-1.162,0-2.104-0.773-2.104-1.729v-3.75H673.314z"/>
				<path fill="#1C344D" d="M668.8,439.322h4.51l1.017-1.788l2.413,0.828c8.291,0.429,6.698,4.198,6.698,4.198s-5.432,0-14.638,0
					C668.251,441.063,668.8,439.322,668.8,439.322z"/>
				<path fill="#F26B51" d="M671.599,361.41c0.29-0.235-1.366-2.512-1.366-2.512s2.922,2.624,3.215,2.357s-2.473-3.028-2.473-3.028
					s3.534,2.437,3.77,2.115c0.234-0.32-2.978-2.812-2.978-2.812s3.548,2.027,3.679,1.608c0.132-0.419-4.201-3.391-4.201-3.391
					s2.804,1.02,3.076,0.768c0.188-0.176-0.461-0.519-1.446-1.128c-1.811-1.12-3.698-1.593-3.698-1.593l-2.219,2.35
					C666.957,356.146,671.309,361.646,671.599,361.41z"/>
				<path fill="#F26B51" d="M670.282,361.038c-0.17-0.332,2.268-1.741,2.268-1.741s-3.735,1.213-3.895,0.851
					s3.488-1.765,3.488-1.765s-4.219,0.793-4.303,0.404c-0.085-0.389,3.861-1.361,3.861-1.361s-4.065,0.413-4.015-0.023
					c0.05-0.436,5.215-1.395,5.215-1.395s-2.976-0.206-3.122-0.547c-0.102-0.236,0.631-0.287,1.779-0.443
					c2.109-0.289,4.026,0.045,4.026,0.045l1.074,3.047C676.66,358.109,670.452,361.371,670.282,361.038z"/>
				<g>
					<path fill="#FFFFFF" d="M681.663,316.933h-8.049l-0.988,4.738c0,0,1.684,3.116,5.28,3.116s5.28-3.037,5.28-3.037
						L681.663,316.933z"/>
					
						<line fill="none" stroke="#FFFFFF" stroke-width="0.5121" stroke-miterlimit="10" x1="684.729" y1="314.654" x2="680.97" y2="317.627"/>
					
						<line fill="none" stroke="#FFFFFF" stroke-width="0.5121" stroke-miterlimit="10" x1="670.747" y1="314.654" x2="674.506" y2="317.627"/>
				</g>
				<path fill="#1C344D" d="M685.804,314.865c0,0-6.211,1.206-11.354-6.704c-0.946,5.402-3.139,7.187-4.984,7.187
					c0-4.003,3.591-9.356,8.469-9.356C682.813,305.991,684.791,309.367,685.804,314.865z"/>
			</g>
		</g>
		<g>
			<ellipse fill="#DF5719" cx="574.788" cy="442.4" rx="32.252" ry="7.673"/>
			<g>
				<path fill="#1C344D" d="M561.275,321.277c4.985-3.394,0.562-7.883,3.096-13.74c2.393-5.531,6.761-5.116,7.239-5.053
					c0.479-0.063,4.847-0.479,7.24,5.053c2.534,5.857-1.89,10.347,3.095,13.74c4.969,3.384-0.909,8.593-10.29,8.626
					c0,0.001,0,0.002,0,0.002c-0.015,0-0.029-0.001-0.045-0.001c-0.015,0-0.029,0.001-0.045,0.001c0,0,0-0.001,0-0.002
					C562.185,329.87,556.308,324.661,561.275,321.277z"/>
				<path fill="#F26B51" d="M582.615,436.953c0,0,8.078,3.716,9.065,4.189c0.986,0.473,1.397,1.418-1.151,1.418h-10.623
					c-1.189,0-2.153-0.792-2.153-1.77l0.081-3.838H582.615z"/>
				<path fill="#F26B51" d="M563.427,325.003c0,0-3.822,0.765-5.253,5.953c-0.246,5.903-0.908,14.998-1.058,18.585
					c-0.05,1.198,1.14,1.888,2.637,2.095l0,0c1.496,0.206,2.866-0.532,3.142-1.698c0.828-3.493,2.708-12.014,3.978-17.781
					C568.32,325.577,563.427,325.003,563.427,325.003z"/>
				<path fill="#F26B51" d="M564.613,325.935c0.181-0.056,0.362-0.111,0.545-0.166c5.247-1.568,10.692-1.568,15.94-0.002
					c0.185,0.056,0.368,0.111,0.551,0.168c0.634,0.198,1.119,0.876,1.244,1.736c0.861,5.929,0.049,25.258-0.251,31.647
					c-0.056,1.168-0.774,2.072-1.643,2.072h-7.861h-0.015h-7.861c-0.868,0-1.587-0.904-1.642-2.072
					c-0.301-6.39-1.113-25.72-0.252-31.647C563.494,326.811,563.979,326.133,564.613,325.935z"/>
				<path fill="#1C344D" d="M560.936,404.157c-0.69-5.612-1.339-11.23-1.899-16.857c-0.527-5.304-1.363-10.868-1.047-16.208
					c0.229-3.876,1.564-8.098,3.035-11.675c0.229-0.557,1.712-4.466,2.588-4.466c0,0,19.216,0,19.222,0
					c0.654,0,2.086,4.212,2.257,4.663c2.322,6.115,2.454,11.976,2.049,18.386c-0.382,6.043-0.949,12.073-1.554,18.097
					c-0.263,2.617-0.537,5.234-0.821,7.85c-0.048,0.441-0.146,0.868-0.285,1.272c-0.078,6.339-1.864,31.734-1.864,31.734h-4.781
					c0,0-1.29-28.954-1.11-32.748c0.001-0.017,0.005-0.031,0.006-0.048c-0.937-7.605-2.659-22.394-2.928-30.305
					c-0.147,0.002-0.29,0.008-0.439,0.008c-0.623,0-1.218-0.023-1.797-0.059c-0.329,8.565-1.824,23.058-2.595,30.145
					c-0.048,0.441-0.146,0.868-0.284,1.272c-0.079,6.339-1.864,31.734-1.864,31.734h-4.782c0,0-1.29-28.954-1.109-32.748
					C560.932,404.188,560.935,404.174,560.936,404.157z"/>
				<path fill="#F26B51" d="M582.038,325.003c0,0,4.972-0.787,5.253,5.953c0.247,5.903,0.908,15.07,1.059,18.657
					c0.05,1.198-1.14,1.815-2.637,2.022l0,0c-1.497,0.206-2.866-0.532-3.143-1.698c-0.827-3.493-2.707-12.014-3.977-17.781
					C577.146,325.577,582.038,325.003,582.038,325.003z"/>
				<path fill="#4EA2E5" d="M573.132,323.931l10.146,1.109l-0.444,29.911c-6.393,1.994-12.8,1.984-19.222,0l-0.628-29.976
					L573.132,323.931z"/>
				<path fill="#F26B51" d="M588.269,350.102c0,0-0.996,3.308-7.249,0.759c-5.476-2.231-13.629-5.386-16.956-6.742
					c-1.111-0.453-1.713-1.562-1.385-2.545l0,0c0.327-0.984,1.475-1.51,2.635-1.206c3.476,0.911,11.906,3.216,17.61,4.777
					C589.433,346.927,588.269,350.102,588.269,350.102z"/>
				<path fill="#F26B51" d="M557.197,350.102c0,0,0.996,3.308,7.249,0.759c5.476-2.231,13.628-5.386,16.955-6.742
					c1.111-0.453,1.714-1.562,1.386-2.545l0,0c-0.328-0.984-1.475-1.51-2.635-1.206c-3.477,0.911-11.906,3.216-17.611,4.777
					C556.033,346.927,557.197,350.102,557.197,350.102z"/>
				<g>
					<path fill="#F26B51" d="M573.149,328.488L573.149,328.488c-2.099,0-3.799-1.701-3.799-3.799v-7.087h7.598v7.087
						C576.948,326.787,575.247,328.488,573.149,328.488z"/>
					<path fill="#F26B51" d="M570.378,320.124c0,0,1.389,3.282,6.57,3.282c0-3.441,0-4.328,0-4.328L570.378,320.124z"/>
				</g>
				<path fill="#4EA2E5" d="M583.278,325.04c0,0,5.071-0.305,5.071,9.301c-3.008,0-5.474,0-5.474,0L583.278,325.04z"/>
				<path fill="#4EA2E5" d="M562.984,325.04c0,0-5.07-0.305-5.07,9.301c3.008,0,5.551,0,5.551,0L562.984,325.04z"/>
				<path fill="#6961BC" d="M586.076,438.547l-1.942,3.179h-6.487c-0.23,0-0.418,0.187-0.418,0.418l0,0
					c0,0.23,0.188,0.417,0.418,0.417h14.905c0.23,0,0.418-0.187,0.418-0.417v-0.039c0-0.23-0.188-0.418-0.418-0.418h-3.479
					l0.79-1.392l-3.97-1.748"/>
				<path fill="#F26B51" d="M566.875,436.953c0,0,8.078,3.716,9.064,4.189c0.986,0.473,1.397,1.418-1.151,1.418h-10.622
					c-1.189,0-2.153-0.792-2.153-1.77l0.08-3.838H566.875z"/>
				<path fill="#645BBA" d="M570.335,438.547l-1.941,3.179h-6.487c-0.231,0-0.418,0.187-0.418,0.418l0,0
					c0,0.23,0.187,0.417,0.418,0.417h14.904c0.231,0,0.418-0.187,0.418-0.417v-0.039c0-0.23-0.187-0.418-0.418-0.418h-3.479
					l0.79-1.392l-3.971-1.748"/>
				<path fill="#F26B51" d="M557.561,343.158c0.027-0.381,2.908-0.323,2.908-0.323s-3.914-0.917-3.861-1.318
					c0.053-0.402,3.989,0.303,3.989,0.303s-4.113-1.541-3.981-1.926c0.132-0.386,4.103,0.854,4.103,0.854s-3.778-1.792-3.504-2.147
					c0.275-0.355,5.307,1.543,5.307,1.543s-2.497-1.758-2.444-2.134c0.036-0.261,0.704,0.083,1.793,0.554
					c2,0.865,3.502,2.173,3.502,2.173l-0.673,3.238C564.698,343.974,557.532,343.54,557.561,343.158z"/>
				<path fill="#F26B51" d="M587.397,343.158c-0.027-0.381-2.908-0.323-2.908-0.323s3.913-0.917,3.861-1.318
					c-0.053-0.402-3.99,0.303-3.99,0.303s4.114-1.541,3.982-1.926c-0.132-0.386-4.104,0.854-4.104,0.854s3.779-1.792,3.504-2.147
					c-0.274-0.355-5.306,1.543-5.306,1.543s2.497-1.758,2.444-2.134c-0.036-0.261-0.705,0.083-1.793,0.554
					c-2,0.865-3.503,2.173-3.503,2.173l0.674,3.238C580.26,343.974,587.425,343.54,587.397,343.158z"/>
				<path fill="#F26B51" d="M571.408,304.712L571.408,304.712c4.107,0,7.469,3.36,7.469,7.469v6.209c0,2.207-1.967,3.943-4.143,3.58
					c-4.842-0.809-8.563-5.044-8.563-10.106v-1.915C566.172,307.068,568.528,304.712,571.408,304.712z"/>
				<path fill="#F26B51" d="M578.877,313.41c0,0,3.296,4.183,0,4.183"/>
				<path fill="#1C344D" d="M573.523,303.499c1.162,0.327,4.147,1.431,5.459,4.394c0,0-2.04-0.203-4.003-1.213
					c-0.082,2.03-0.906,5.376-4.983,7.799c-1.955,3.13-0.646,5.99-0.646,5.99s-4.35-0.465-4.35-8.848
					C565.001,304.508,570.505,301.708,573.523,303.499z"/>
				<g>
					
						<line fill="none" stroke="#FFFFFF" stroke-width="0.5241" stroke-miterlimit="10" x1="570.378" y1="312.451" x2="573.437" y2="314.532"/>
					
						<line fill="none" stroke="#FFFFFF" stroke-width="0.5241" stroke-miterlimit="10" x1="568.775" y1="315.788" x2="572.524" y2="319.671"/>
					<path fill="#FFFFFF" d="M572.957,314.153h6.441c0,0,0.943,1.109,0.943,2.606c0,1.498-1.95,4.684-3.921,5.258
						c-1.971,0.575-4.544-0.978-4.544-0.978L572.957,314.153z"/>
				</g>
				
					<ellipse transform="matrix(0.9346 -0.3557 0.3557 0.9346 -74.5856 223.3377)" fill="#F26B51" cx="569.996" cy="314.479" rx="2.018" ry="2.601"/>
			</g>
		</g>
		<g>
			<ellipse fill="#DF5719" cx="459.946" cy="442.4" rx="32.252" ry="7.673"/>
			<g>
				<path fill="#F26B51" d="M440.529,371.049c0,0-0.848,2.803-1.124,3.796c-0.276,0.994-1.049,2.898-1.463,2.788
					s0.414-3.837,0.193-4.058s-1.987,1.684-2.153,2.181c-0.165,0.497,0.387,4.25,0,4.278c-0.386,0.027-1.353-1.904-1.601-4.058
					c-0.248-2.152,2.855-6.504,2.855-6.504L440.529,371.049z"/>
				<path fill="#F26B51" d="M459.318,371.309c-0.172-9.1-6.764-9.9-6.764-9.9s-6.592-0.801-6.873,8.244
					c-0.217,6.938,1.727,25.861,2.643,34.294c0.259,2.378,1.944,4.33,3.947,4.573l0,0c2.002,0.244,3.709-1.296,3.995-3.608
					C457.283,396.713,459.451,378.29,459.318,371.309z"/>
				<path fill="#F26B51" d="M474.862,371.309c-0.173-9.1-6.765-9.9-6.765-9.9s-6.591-0.801-6.873,8.244
					c-0.216,6.938,1.728,25.861,2.644,34.294c0.259,2.378,1.943,4.33,3.946,4.573l0,0c2.003,0.244,3.709-1.296,3.996-3.608
					C472.827,396.713,474.995,378.29,474.862,371.309z"/>
				<path fill="#F26B51" d="M456.365,404.205c-0.181-3.794-3.874-3.794-3.874-3.794s-3.693,0-3.873,3.794
					c-0.181,3.794,1.855,32.748,1.855,32.748h4.782C455.256,436.953,456.545,407.999,456.365,404.205z"/>
				<path fill="#F26B51" d="M450.639,436.953c0,0-8.32,3.716-9.307,4.189c-0.987,0.473-1.398,1.418,1.151,1.418h10.622
					c1.189,0,2.153-0.792,2.153-1.77v-3.838H450.639z"/>
				<path fill="#F26B51" d="M471.298,401.626c-1.221-3.597-4.771-2.577-4.771-2.577s-3.55,1.021-2.675,4.717
					c0.874,3.695,10.826,30.962,10.826,30.962l4.597-1.321C479.274,433.406,472.519,405.223,471.298,401.626z"/>
				<path fill="#F26B51" d="M469.662,326.622c0,0,4.972-0.787,5.253,5.953c0.246,5.903,0.837,14.606,0.986,18.193
					c0.051,1.198-1.067,2.279-2.564,2.486l0,0c-1.497,0.206-2.866-0.532-3.143-1.698c-0.827-3.493-2.708-12.014-3.978-17.781
					C464.769,327.196,469.662,326.622,469.662,326.622z"/>
				<path fill="#F26B51" d="M468.476,325.935c-0.181-0.056-0.362-0.111-0.544-0.166c-5.248-1.568-10.693-1.568-15.941-0.002
					c-0.185,0.056-0.368,0.111-0.551,0.168c-0.633,0.198-1.119,0.876-1.244,1.736c-0.861,5.929-0.049,25.258,0.252,31.647
					c0.055,1.168,0.773,2.072,1.642,2.072h7.861h0.016h7.86c0.868,0,1.588-0.904,1.643-2.072c0.3-6.39,1.112-25.72,0.251-31.647
					C469.595,326.811,469.109,326.133,468.476,325.935z"/>
				<path fill="#F26B51" d="M474.028,366.333c-1.564-8.441-4.552-11.382-4.552-11.382h-19.221c0,0-2.841,4.066-4.406,12.508
					c-0.227,1.226,0.319,2.463,1.385,3.146c2.098,1.346,6.185,3.255,12.493,3.255c6.308,0,10.396-1.909,12.493-3.255
					C473.286,369.922,474.256,367.559,474.028,366.333z"/>
				<g>
					<rect x="456.142" y="317.079" fill="#F26B51" width="7.598" height="9.226"/>
					<path fill="#F26B51" d="M463.523,320.254c0,0-2.201,2.791-7.382,2.791c0-3.441,0-3.967,0-3.967L463.523,320.254z"/>
				</g>
				<path fill="#F26B51" d="M451.051,326.622c0,0-4.972-0.787-5.253,5.953c-0.247,5.903-0.837,14.606-0.986,18.193
					c-0.051,1.198,1.067,2.279,2.564,2.486l0,0c1.497,0.206,2.866-0.532,3.143-1.698c0.827-3.493,2.708-12.014,3.978-17.781
					C455.944,327.196,451.051,326.622,451.051,326.622z"/>
				<path fill="#F26B51" d="M448.317,347.809c0,0-3.147-1.426-5.341,4.96c-1.922,5.592-4.909,13.807-6.077,17.205
					c-0.39,1.135,0.049,2.317,1.006,2.718l0,0c0.956,0.4,2.106-0.117,2.641-1.191c1.601-3.217,5.411-11.082,7.988-16.406
					C451.474,349.021,448.317,347.809,448.317,347.809z"/>
				<path fill="#8989CE" d="M474.062,402.29c0-2.161,7.896-37.696-4.359-48.396h-19.489c0,0-5.403,7.329-5.403,24.415
					s0.989,57.329,0.989,57.329h11.794l2.884-61.787c0,0,1.026,21.749,1.953,29.469s8.497,31.408,8.497,31.408l10.441-2.795
					C481.368,431.933,474.062,404.451,474.062,402.29z"/>
				<path fill="#1C344D" d="M456.142,323.931c0,0-7.8,0.661-10.343,4.356c-2.039,2.963-1.82,18.32-2.526,20.688
					c-0.707,2.368-9.389,18.662-6.373,20.999s4.65,3.146,5.46,2.337c0.81-0.809,2.882-6.044,2.882-6.044s14.204,1.853,23.004,1.853
					s10.241-4.623,9.521-7.87c-0.721-3.246-0.874-17.861-1.862-25.271c-0.988-7.411-0.871-8.302-12.164-11.047
					C459.342,325.405,456.142,323.931,456.142,323.931z"/>
				<path fill="#F26B51" d="M475.893,351.721c0,0-0.997,3.308-7.249,0.759c-5.477-2.231-13.629-5.386-16.956-6.742
					c-1.111-0.453-1.713-1.562-1.386-2.545l0,0c0.328-0.984,1.475-1.51,2.636-1.206c3.476,0.911,11.906,3.216,17.61,4.778
					C477.056,348.546,475.893,351.721,475.893,351.721z"/>
				<path fill="#1C344D" d="M453.051,348.333c-1.196-0.669-1.805-2.056-1.472-3.385c0.371-1.484,0.964-3.291,1.777-4.104
					c1.5-1.5,14.889,3.603,14.889,3.603s-0.556-13.125,2.682-18.142c4.78,1.365,4.883,3.63,6.118,14.951s-1.019,14.615-6.118,14.615
					C466.969,355.871,457.22,350.665,453.051,348.333z"/>
				<path fill="#1C344D" d="M450.442,436.509c0,0-6.51,2.003-9.076,2.845c-2.566,0.843-1.323,3.207-1.323,3.207h15.216v-5.607
					C455.259,436.953,453.104,438.034,450.442,436.509z"/>
				<path fill="#F26B51" d="M474.82,434.289c0,0-7.026,5.802-7.851,6.521c-0.825,0.719-0.969,1.74,1.488,1.06l10.236-2.836
					c1.146-0.317,1.864-1.338,1.604-2.28l-1.024-3.698L474.82,434.289z"/>
				<path fill="#1C344D" d="M474.513,433.913c0,0-5.739,3.668-7.987,5.165c-2.248,1.496-0.419,3.443-0.419,3.443l14.664-4.062
					l-1.497-5.404C479.273,433.056,477.484,434.673,474.513,433.913z"/>
				<path fill="#F26B51" d="M445.404,344.68c0.027-0.381,2.908-0.323,2.908-0.323s-3.914-0.918-3.861-1.319s3.99,0.304,3.99,0.304
					s-4.114-1.541-3.982-1.927c0.132-0.385,4.104,0.854,4.104,0.854s-3.779-1.792-3.504-2.146c0.274-0.355,5.306,1.542,5.306,1.542
					s-2.497-1.757-2.444-2.133c0.036-0.262,0.705,0.083,1.793,0.553c2,0.865,3.503,2.173,3.503,2.173l-0.674,3.238
					C452.542,345.494,445.377,345.061,445.404,344.68z"/>
				<path fill="#F26B51" d="M456.564,322.108h1.963c4.776,0,8.684-3.907,8.684-8.684v-3.954c0-2.993-2.448-5.441-5.441-5.441h-2.32
					c-2.992,0-5.441,2.448-5.441,5.441v10.082C454.008,320.958,455.158,322.108,456.564,322.108z"/>
				<path fill="#F26B51" d="M454.008,313.068c0,0-3.425,4.347,0,4.347"/>
				<path fill="#1C344D" d="M461.624,314.052c0,0-2.262-2.496-1.729-7.551c-4.39,0-5.558,1.128-5.558,1.128s-2.689-2.325,0.77-5.186
					c3.458-2.859,12.237-2.128,13.501,3.592s0.539,11.607-4.986,14.409C464.085,316.211,461.624,314.052,461.624,314.052z"/>
				<g>
					
						<line fill="none" stroke="#FFFFFF" stroke-width="0.5241" stroke-miterlimit="10" x1="462.207" y1="312.664" x2="459.149" y2="314.745"/>
					
						<line fill="none" stroke="#FFFFFF" stroke-width="0.5241" stroke-miterlimit="10" x1="463.81" y1="316.001" x2="460.062" y2="319.884"/>
					<path fill="#FFFFFF" d="M459.628,314.366h-6.44c0,0-0.943,1.109-0.943,2.606c0,1.498,1.95,4.684,3.921,5.258
						c1.971,0.575,4.757-0.461,4.757-0.461L459.628,314.366z"/>
				</g>
				
					<ellipse transform="matrix(-0.9346 -0.3558 0.3558 -0.9346 782.9337 773.3843)" fill="#F26B51" cx="462.589" cy="314.691" rx="2.017" ry="2.601"/>
			</g>
		</g>
	</g>
</g>
</svg>
