<?xml version="1.0" encoding="utf-8"?>
<!-- Generator: Adobe Illustrator 16.0.0, SVG Export Plug-In . SVG Version: 6.00 Build 0)  -->
<!DOCTYPE svg PUBLIC "-//W3C//DTD SVG 1.1//EN" "http://www.w3.org/Graphics/SVG/1.1/DTD/svg11.dtd">
<svg version="1.1" id="_x2018_лой_x5F_1" xmlns="http://www.w3.org/2000/svg" xmlns:xlink="http://www.w3.org/1999/xlink"
	 x="0px" y="0px" width="3200px" height="2000px" viewBox="0 0 3200 2000" enable-background="new 0 0 3200 2000"
	 xml:space="preserve">
<rect x="0.028" y="0.071" fill="#FFFFFF" width="3200" height="2000"/>
<g>
	<path opacity="0.3" fill="#AEC3FF" d="M2982.649,1795.736l-2641.148-0.779c0,0-86.359-121.043-144.928-306.449
		c-1.977-6.229-3.917-12.542-5.808-18.918c-21.488-71.988-38.416-152.984-44.52-239.899c-0.445-6.265-0.84-12.565-1.162-18.905
		c-3.534-68.194-0.247-139.824,12.752-213.431c0.198-1.137,0.408-2.286,0.618-3.422c1.137-6.364,2.335-12.678,3.583-18.918
		c17.571-87.891,45.175-163.66,82.886-227.604c3.546-6.018,7.191-11.924,10.911-17.731
		c118.93-185.234,329.05-264.08,632.597-243.853c229.112,15.272,435.018,17.447,688.608-136.241
		c95.069-57.618,312.9-138.762,491.462-140.38c423.304-3.843,895.552,277.845,830.805,741.913c-0.333,2.348-0.667,4.72-1.038,7.092
		c-1.334,8.934-2.879,17.929-4.646,27.011c-3.893,20.141-6.536,41.27-14.804,61.485
		C2707.844,1465.129,3200.245,1427.986,2982.649,1795.736z"/>
	<rect x="1395.808" y="661.458" opacity="0.5" fill="#FFFFFF" width="461.51" height="1098.37"/>
	<g>
		<g>
			<polygon fill="#D0DCF9" points="1733.668,1517.996 1733.322,1535.028 1728.874,1751.322 1728.701,1759.411 1706.286,1759.411 
				1706.102,1751.582 1701.035,1535.028 1700.64,1517.996 			"/>
			<path fill="#D0DCF9" d="M1790.29,1534.98h-146.269c-8.456,0-15.311-6.854-15.311-15.311v-1.672h176.891v1.672
				C1805.602,1528.126,1798.746,1534.98,1790.29,1534.98z"/>
		</g>
		<path fill="#EBD6CB" d="M1822.103,1518.015H1624.4c-8.154,0-14.827-6.673-14.827-14.828v-16.063
			c0-8.155,6.673-14.827,14.827-14.827h197.702c8.155,0,14.828,6.672,14.828,14.827v16.063
			C1836.931,1511.342,1830.258,1518.015,1822.103,1518.015z"/>
		<path fill="#EBD6CB" d="M1823.338,1506.894h-129.741c-8.155,0-14.828-6.673-14.828-14.827V1179.45
			c0-8.155,6.673-14.828,14.828-14.828h129.741c8.155,0,14.828,6.673,14.828,14.828v312.616
			C1838.166,1500.221,1831.493,1506.894,1823.338,1506.894z"/>
		<path fill="#AEBBD2" d="M1614.769,1303.82c0,0-83.678,84.271-81.908,89.601s3.351,11.925,13.592,14.828
			c0,0,32.856-1.604,57.149-17.3C1627.893,1375.256,1614.769,1303.82,1614.769,1303.82z"/>
		<path fill="#AEBBD2" d="M1739.284,1438.952c0,0,0,65.529-40.782,72.86c-0.918,0.153-1.835,0.306-2.903,0.459
			c-2.444,0.306-5.04,0.611-7.941,0.764c0,0,0,0-0.152,0c-38.492,1.832-111.964-11.762-137.624-7.637
			c-6.416,1.07-9.778,3.207-9.167,6.873c7.943,39.409-44.601,217.053-53.767,247.14l-56.26,0.12
			c0.306-8.093,12.271-279.032,26.935-305.763c4.277-7.943,21.232-17.105,42.922-26.119c12.828-5.348,27.34-10.538,41.852-15.58
			c5.193-1.679,10.539-3.513,15.731-5.191c8.706-2.752,17.26-5.348,25.356-7.942c4.277-1.224,8.555-2.447,12.526-3.666
			c23.675-6.873,40.782-11.304,40.782-11.304l38.187,20.466l3.666,1.988l12.067,6.414l15.733,8.555l5.192,2.748l13.136,7.025
			L1739.284,1438.952z"/>
		<path fill="#B3C0DE" d="M1756.614,1506.375c-16.867,3.062-39.874,4.136-61.017,5.802c-0.024,0-0.049,0-0.062,0.013
			c-2.669,0.197-5.301,0.419-7.883,0.666h-0.087c-26.479,2.407-48.165,6.345-47.93,17.379
			c1.383,62.405-25.566,188.821-34.586,229.207h-68.121c1.026-38.942,5.165-179.28,12.912-254.164
			c2.397-23.192,5.141-40.114,8.242-45.805c5.87-10.751,33.733-21.427,65.254-30.413c1.261-0.357,2.521-0.716,3.794-1.073
			c15.532-4.32,31.768-8.221,46.559-11.504c1.866-0.42,3.707-0.827,5.511-1.222c2.076-0.444,4.115-0.889,6.116-1.321
			c1.816-0.382,3.596-0.753,5.326-1.11c21.87-4.555,37.551-7.258,37.551-7.258l9.379,0.667l23.995,1.715l18.522,1.321
			c0,0,1.236,6.405,2.274,15.946C1785.194,1451.352,1786.491,1500.944,1756.614,1506.375z"/>
		<path fill="#F7E2D8" d="M1671.385,1162.828c12.486,4.164,23.765,2.698,33.148-0.965c8.587-3.333,15.579-8.515,20.447-12.885
			c4.995-4.485,7.767-8.133,7.767-8.133s-0.481-0.499-1.316-1.495c-4.35-5.249-18.076-24.435-19.01-58.733
			c-0.011-0.449-3.231,0.721-8.056,2.731c-14.356,5.993-42.984,19.444-44.252,20.042c-0.03,0.005-0.051,0.008-0.051,0.008
			s0.791,7.115,1.633,19.966c0.081,1.131,0.16,2.315,0.235,3.542c0.091,1.508,0.196,3.107,0.277,4.753
			C1662.979,1145.036,1671.385,1162.828,1671.385,1162.828z"/>
		<path fill="#E8D6D1" d="M1661.695,1123.364c23.139,1.447,51.008-36.944,51.008-36.944c-2.731-1.41-5.522-2.421-8.338-3.071
			c-14.356,5.993-42.984,19.444-44.252,20.042c-0.03,0.005-0.051,0.008-0.051,0.008S1660.854,1110.514,1661.695,1123.364z"/>
		<path fill="#F7E2D8" d="M1650.588,1103.125c0,0,9.711,1.783,21.659,1.434c17.474-0.501,39.729-5.557,43.392-27.4
			c6.173-36.77,17.936-60.141-19.403-68.604c-19.988-4.531-32.043-2.965-39.707,1.278c-6.662,3.668-10.009,9.362-12.353,14.835
			C1639.13,1036.441,1635.428,1099.357,1650.588,1103.125z"/>
		<path fill="#F0CBB7" d="M1657.664,983.829c-15.202,2.499-31.201,18.144-20.467,29.194c7.353,7.57,17.451,13.613,37.575,13.673
			c9.653,0.029,13.305,16.782,14.224,21.391c0.92,4.617,2.173,8.432,13.539,3.711c1.862-0.771,3.28-0.868,4.335-0.449
			c5.382,2.104,1.433,17.236,0.045,20.599c0,0-1.06,10.55,5.784,14.476c0.827,0.468,13.538,3.701,34.927-44.729
			c3.363-7.603,5.11-23.772-4.274-37.521C1733.977,990.421,1705.644,975.942,1657.664,983.829z"/>
		<path fill="#B3C2E0" d="M1784.28,1396.242c0.21,10.157,0.457,19.202,0.753,26.319c0.433,10.527-110.861,9.885-141.69,7.314
			c-10.033-0.84-36.97-14.53-59.718-31.409c-11.875-8.798,22.908-152.058,23.477-188.744c0.396-26.318,0.557-67.193,54.318-76.584
			c0.471-0.074,0.717-0.111,0.717-0.111c5.425,3.052,14.383,16.446,17.04,17.546l42.913-22.575c0.778,0.136,1.532,0.321,2.299,0.481
			c2.521-0.543,51.217,5.523,64.97,19.771c11.738,12.171-7.13,84.716-7.13,84.716c0.42,10.28,0.668,21.61,0.84,33.522
			c0.124,9.959,0.198,20.326,0.248,30.829C1783.439,1325.44,1783.674,1365.809,1784.28,1396.242z"/>
		<path fill="#B3C2E0" d="M1718.818,1116.172c-0.201,0.066-39.645,34.397-39.645,34.397s49.285-11.431,54.756-21.294
			C1733.93,1129.275,1726.676,1113.56,1718.818,1116.172z"/>
		<path fill="#B3C2E0" d="M1679.174,1150.569l-17.689-30.328c0,0-7.86,5.443-8.868,15.164
			C1652.616,1135.405,1672.691,1150.569,1679.174,1150.569z"/>
		<path fill="#F7E2D8" d="M1664.559,1411.75c0,0-15.448,1.83-29.552,7.929c-6.603,2.854-11.17,8.828-14.519,12.768
			c-10.503,12.356,13.18,8.959,25.536,6.487s14.21,1.235,28.626-5.354c4.52-2.066,4.51-5.075,7.002-7.104
			c5.453-4.444,10.091-7.312,10.091-7.312l-14.21-11.532L1664.559,1411.75z"/>
		<path fill="#F7E2D8" d="M1670.428,1411.75c0,0-8.546-0.824-15.342-1.03s-16.476-0.618-12.769,2.06s9.886,5.354,10.915,5.148
			S1670.428,1411.75,1670.428,1411.75z"/>
		<path fill="#AEBBD2" d="M1784.28,1396.242c-18.585,10.651-59.063,31.385-102.632,30.236l-4.115-18.844
			c0,0,80.725-86.494,84.023-158.989l21.512,17.843c0.124,9.959,0.198,20.326,0.248,30.829
			C1783.439,1325.44,1783.674,1365.809,1784.28,1396.242z"/>
		<path fill="#B3C2E0" d="M1792.409,1155.239c0,0,32.782,154.57,24.133,189.168s-124.593,83.405-124.593,83.405
			s-24.301-2.471-18.123-22.241c0,0,92.673-84.023,91.438-95.144c-1.236-11.121-32.127-122.328-32.127-122.328L1792.409,1155.239z"
			/>
		<path fill="#F7E2D8" d="M1533.788,1396.098c0,0-25.537,18.535-29.244,23.89s-8.649,18.122-4.531,20.182
			c4.119,2.06,15.652-12.974,22.448-16.063c6.796-3.089-0.618,8.341,1.544,9.576c2.163,1.236,12.047-8.031,13.592-11.738
			c1.544-3.707,7.104-14.21,7.104-14.21S1536.773,1403.307,1533.788,1396.098z"/>
	</g>
	<path fill="#FF9843" d="M1892.977,1795.263h-532.608V639.831h532.608V1795.263z M1396.201,1759.43h460.942V675.664h-460.942
		V1759.43z"/>
	<polygon opacity="0.1" fill="#94B0ED" points="1395.808,1303.558 1857.318,960.594 1857.318,1759.828 1395.808,1759.828 	"/>
	<circle fill="#F9DDBF" cx="1625.225" cy="655.952" r="10.709"/>
	<circle fill="#F9DDBF" cx="1379.951" cy="657.805" r="10.709"/>
	<circle fill="#F9DDBF" cx="1876.471" cy="657.188" r="10.709"/>
	<circle fill="#F9DDBF" cx="1876.471" cy="971.863" r="10.709"/>
	<circle fill="#F9DDBF" cx="1876.471" cy="1260.075" r="10.709"/>
	<circle fill="#F9DDBF" cx="1377.479" cy="976.806" r="10.709"/>
	<g>
		<g>
			<g>
				<path fill="#AEC3FF" d="M2751.611,1783.724l-45.087-166.575h35.143l25.329,165.689c0.553,3.616-1.868,6.931-5.061,6.929
					l-3.192-0.002C2755.473,1789.763,2752.583,1787.314,2751.611,1783.724z"/>
			</g>
			<g>
				<path fill="#AEC3FF" d="M2247.333,1783.724l45.086-166.575h-35.142l-25.329,165.689c-0.553,3.616,1.867,6.931,5.061,6.929
					l3.191-0.002C2243.471,1789.763,2246.36,1787.314,2247.333,1783.724z"/>
			</g>
			<g>
				<path fill="#AEC3FF" d="M2521.792,1783.724l-45.086-166.575h35.142l25.329,165.689c0.553,3.616-1.868,6.931-5.061,6.929
					l-3.192-0.002C2525.654,1789.763,2522.765,1787.314,2521.792,1783.724z"/>
			</g>
			<path fill="#DB6A1D" d="M2780.313,1221.009c0,0-93.304-20.376-273.333,0l-20.658,209.87l247.171-12.225L2780.313,1221.009z"/>
			<path fill="#F99746" d="M2223.66,1537.327c0,0-17.707-187.837,63.117-187.837c80.825,0,96.958-0.907,89.692-75.438
				c-7.529-77.231,126.083-50.684,126.083-50.684l-46.9,313.959H2223.66z"/>
			<path fill="#ED7D2B" d="M2269.906,1537.327c0,0-17.707-187.837,63.118-187.837s105.024-12.74,116.265-86.776
				c7.46-49.132,91.198-45.182,91.198-45.182s-19.259,54.08-31.709,143.565c-7.601,54.625-6.879,176.229-6.879,176.229H2269.906z"/>
			<path fill="#ED7D2B" d="M2499.44,1628.573h249.075c10.207,0,18.559-8.352,18.559-18.559v-72.688h-286.707v72.172
				C2480.367,1619.99,2488.95,1628.573,2499.44,1628.573z"/>
			<path fill="#F99746" d="M2243.348,1628.573h266.35c10.531,0,19.147-8.616,19.147-19.147v-72.099h-305.176v71.567
				C2223.669,1619.718,2232.524,1628.573,2243.348,1628.573z"/>
			<path fill="#DB6A1D" d="M2269.831,1537.327c0,0-2.423-18.351,9.196-26.741c29.225-21.103,165.737-50.949,228.973-54.556
				c107.188-6.113,87.532,81.297,87.532,81.297H2269.831z"/>
			<path fill="#F99746" d="M2482.055,1537.327c0,0-18.188-187.837,64.838-187.837s131.87,7.576,114.614-86.28
				c-10.251-55.754,29.143-55.109,107.749-48.651c9.693,0.796,25.745,13.617,23.463,23.071l-72.353,299.697H2482.055z"/>
			<path fill="#ED7D2B" d="M2528.875,1537.327c0,0-17.968-193.896,64.838-187.837c104.371,7.637,125.233,11.704,105.051-78.625
				c-14.313-64.054,28.709-61.892,82.854-54.869c7.468,0.969,15.631,6.606,13.942,17.553l-28.374,303.778H2528.875z"/>
		</g>
		<path fill="#8FADEF" d="M2514.487,1634.412c0,0-23.761-0.543-28.202,18.13l-6.338-23.969h33.896L2514.487,1634.412z"/>
		<path fill="#8FADEF" d="M2744.325,1634.537c0,0-23.813-0.79-28.254,17.883l-6.508-23.887h33.896L2744.325,1634.537z"/>
		<path fill="#8FADEF" d="M2255.025,1631.874c0,0,27.842-0.837,28.982,16.352l5.318-19.652h-33.796L2255.025,1631.874z"/>
	</g>
	<g>
		<path fill="#C0D8FB" d="M2156.559,564.24h-157.192c-7.217,0-13.121-5.904-13.121-13.121V399.4c0-7.216,5.904-13.12,13.121-13.12
			h157.192c7.217,0,13.121,5.904,13.121,13.12V551.12C2169.68,558.336,2163.775,564.24,2156.559,564.24z"/>
		<path fill="#DFEBFD" d="M2149.75,556.531h-143.574c-6.591,0-11.983-5.393-11.983-11.984V405.973
			c0-6.591,5.393-11.984,11.983-11.984h143.574c6.59,0,11.983,5.393,11.983,11.984v138.574
			C2161.733,551.138,2156.34,556.531,2149.75,556.531z"/>
		<g>
			<g>
				<circle fill="#B7D3F3" cx="2077.963" cy="410.231" r="3.8"/>
				<circle fill="#B7D3F3" cx="2108.145" cy="417.448" r="3.8"/>
				<circle fill="#B7D3F3" cx="2133.151" cy="439.664" r="3.8"/>
				<circle fill="#B7D3F3" cx="2144.103" cy="472.571" r="3.8"/>
				<circle fill="#B7D3F3" cx="2134.772" cy="508.944" r="3.8"/>
				<circle fill="#B7D3F3" cx="2110.912" cy="532.867" r="3.8"/>
				<circle fill="#B7D3F3" cx="2077.963" cy="542.511" r="3.8"/>
			</g>
			<g>
				<circle fill="#B7D3F3" cx="2047.659" cy="417.448" r="3.8"/>
				<circle fill="#B7D3F3" cx="2022.653" cy="439.664" r="3.8"/>
				<circle fill="#B7D3F3" cx="2011.702" cy="472.571" r="3.8"/>
				<circle fill="#B7D3F3" cx="2021.032" cy="508.944" r="3.8"/>
				<circle fill="#B7D3F3" cx="2044.893" cy="532.867" r="3.8"/>
			</g>
		</g>
		<g>
			<circle fill="#B7D3F3" cx="2080.737" cy="472.571" r="3.8"/>
			<g>
				<rect x="2080.219" y="425.102" fill="#B7D3F3" width="1.038" height="47.469"/>
			</g>
			<g>
				
					<rect x="2091.286" y="446.63" transform="matrix(0.6175 0.7866 -0.7866 0.6175 1164.4617 -1469.2432)" fill="#B7D3F3" width="3.112" height="31.993"/>
			</g>
		</g>
	</g>
	<g>
		<path fill="#9FC1F4" d="M1543.281,369.28v8.896v1.73v7.426c0,0.197,0,0.469,0,0.667c0,3.756,0,7.327,0,10.997
			c-0.024,18.028-0.099,35.092-0.223,50.513c0,0.296,0,0.568-0.012,0.877c0,1.507-0.012,3.015-0.025,4.498
			c-0.136,15.594-0.309,29.346-0.519,40.504c0,0.111-0.013,0.223,0,0.321c-0.025,0.692-0.037,1.372-0.05,2.039
			c-0.358,17.879-0.803,28.518-1.285,28.518h-0.297c-0.469,0-0.902-10.157-1.26-27.308c-0.012-1.075-0.037-2.187-0.062-3.324
			c0-0.086,0-0.173,0-0.259c-0.186-10.145-0.358-22.439-0.482-36.291c-0.025-2.916-0.062-5.869-0.074-8.921c0-0.223,0-0.433,0-0.655
			c-0.086-10.923-0.161-22.662-0.198-34.981c0-5.326-0.012-10.763-0.012-16.36c0-0.235,0-0.568,0-0.877c0-0.136,0-0.186,0-0.321
			c-0.013-3.126-0.013-6.363-0.013-9.638v-7.871v-1.285v-6.376L1543.281,369.28z"/>
		<g>
			<path fill="#FF9843" d="M1541.024,495.363c-42.361,0-76.701,36.311-76.701,81.103h153.401
				C1617.725,531.674,1583.385,495.363,1541.024,495.363z"/>
			<path fill="#FFC48A" d="M1547.134,496.352c-2.203-0.48-4.451-0.734-6.736-0.734c-27.599,0-49.973,36.197-49.973,80.848h13.473
				C1503.897,535.512,1522.721,501.675,1547.134,496.352z"/>
		</g>
	</g>
	<g opacity="0.7">
		<g>
			<g>
				<path fill="#77A4E5" d="M2286.797,854.706c0,0-27.495-32.077-1.695-52.452c0,0,18.845-11.409,34.211-10.482
					c0,0-21.773,36.511-14.729,40.143c7.044,3.631,21.329-42.433,21.329-42.433s42.885-4.159,56.681,2.474
					c0,0-36.661,30.001-28.94,31.787s47.32-27.661,47.32-27.661s39.914,6.792,37.785,31.141
					c-2.128,24.349-15.881,31.867-21.926,31.22s-41.404-14.146-42.174-9.193c-0.771,4.953,20.514,21.139,35.418,21.896
					c0,0-28.14,31.034-46.842,22.077c-18.701-8.957-20.299-23.154-31.956-28.479c-11.658-5.325-21.61-5.312-16.797,0.119
					c4.813,5.431,25.912,10.708,32.579,22.501s12.648,19.747-6.701,16.835c-19.35-2.911-50.802-17.07-52.182-33.282
					C2286.797,854.706,2286.797,854.706,2286.797,854.706z"/>
				<g>
					<path fill="#77A4E5" d="M2419.146,827.879c0,0-108.409-4.178-132.35,26.826c0,0-5.295,15.857-21.588,30.297l-2.539,6.921
						c0,0,18.785-19.807,25.508-21.005C2288.178,870.918,2277.665,832.508,2419.146,827.879z"/>
					<path fill="#77A4E5" d="M2265.209,885.002c0,0-23.269,17.208-24.885,47.957l4.223,0.378c0,0,7.432-31.793,20.865-44.226
						C2278.844,876.678,2265.209,885.002,2265.209,885.002z"/>
				</g>
			</g>
			<g>
				<path fill="#77A4E5" d="M2190.665,814.365c0,0,43.737-24.493,23.326-57.733c0,0-16.328-20.411-33.823-25.659
					c0,0,9.33,49.569,0,50.735c-9.331,1.166-6.415-55.984-6.415-55.984s-46.07-22.161-64.148-20.411
					c0,0,28.575,48.403,19.245,47.237c-9.331-1.167-41.405-50.152-41.405-50.152s-47.237-8.748-54.818,19.244
					c-7.581,27.992,4.666,41.988,11.664,43.738s51.901,1.166,50.735,6.998c-1.166,5.832-31.491,15.162-48.403,9.914
					c0,0,18.661,46.07,43.154,43.738s32.075-17.495,47.237-18.662c15.162-1.166,26.242,2.916,18.661,6.998
					s-33.24,1.338-45.487,11.749c-12.246,10.412-22.16,16.826,0.583,21.492c22.744,4.665,63.565,1.75,71.729-15.746
					C2190.665,814.365,2190.665,814.365,2190.665,814.365z"/>
				<g>
					<path fill="#77A4E5" d="M2054.203,730.389c0,0,122.466,39.655,136.462,83.976c0,0-0.583,19.828,11.663,42.571v8.748
						c0,0-12.83-29.742-19.828-33.824C2182.5,831.86,2209.909,793.371,2054.203,730.389z"/>
					<path fill="#77A4E5" d="M2202.328,856.937c0,0,18.886,28.68,8.119,63.59l-4.859-1.305c0,0,4.717-38.452-5.164-57.792
						S2202.328,856.937,2202.328,856.937z"/>
				</g>
			</g>
			<g>
				<path fill="#9FC1F4" d="M2260.248,780.586c0,0-57.654-32.286-30.749-76.104c0,0,21.523-26.905,44.585-33.824
					c0,0-12.299,65.342,0,66.879c12.3,1.538,8.457-73.797,8.457-73.797s60.729-29.211,84.559-26.905
					c0,0-37.667,63.804-25.367,62.267c12.299-1.537,54.579-66.11,54.579-66.11s62.267-11.531,72.26,25.368
					c9.993,36.898-6.149,55.348-15.374,57.654c-9.225,2.306-68.417,1.537-66.879,9.225c1.537,7.687,41.511,19.986,63.804,13.068
					c0,0-24.6,60.729-56.886,57.654c-32.286-3.075-42.279-23.062-62.267-24.599c-19.986-1.537-34.593,3.844-24.599,9.225
					c9.993,5.381,43.816,1.764,59.96,15.488s29.212,22.18-0.769,28.33s-83.791,2.306-94.553-20.755
					C2260.248,780.586,2260.248,780.586,2260.248,780.586z"/>
				<g>
					<path fill="#9FC1F4" d="M2440.129,669.89c0,0-161.432,52.273-179.881,110.696c0,0,0.769,26.137-15.375,56.117v11.531
						c0,0,16.912-39.205,26.137-44.586C2271.01,803.648,2234.88,752.912,2440.129,669.89z"/>
					<path fill="#9FC1F4" d="M2244.873,836.703c0,0-24.896,37.805-10.703,83.824l6.405-1.72c0,0-6.217-50.688,6.808-76.18
						C2260.408,817.133,2244.873,836.703,2244.873,836.703z"/>
				</g>
			</g>
			<path fill="#9FC1F4" d="M2258.305,1020.321c62.373,0,112.936-50.563,112.936-112.935h-225.871
				C2145.369,969.759,2195.933,1020.321,2258.305,1020.321z"/>
			<path fill="#AFCDFB" d="M2286.096,1019.457c-4.594,0.574-9.277,0.865-14.032,0.865c-62.371,0-112.93-50.565-112.93-112.937
				h28.057C2187.19,965.009,2230.344,1012.548,2286.096,1019.457z"/>
			<rect x="2141.656" y="907.386" fill="#9FC1F4" width="232.152" height="3.464"/>
		</g>
		<rect x="2219.418" y="1014.803" fill="#9FC1F4" width="71.735" height="11.305"/>
	</g>
	<g>
		<g>
			<g>
				<path fill="#94B0ED" d="M255.834,729.678c-3.719,5.808-7.364,11.714-10.911,17.731h370.988v1036.65H633V729.678H255.834z"/>
			</g>
			<path fill="#94B0ED" d="M628.144,975.014v18.918h-469.69c1.137-6.364,2.335-12.678,3.583-18.918H628.144z"/>
			<path fill="#94B0ED" d="M628.144,1210.785v18.905H146.246c-0.445-6.265-0.84-12.565-1.162-18.905H628.144z"/>
			<path fill="#94B0ED" d="M628.144,1469.59v18.918h-431.57c-1.977-6.229-3.917-12.542-5.808-18.918H628.144z"/>
		</g>
		<g>
			<g>
				<path fill="#2B478B" d="M561.749,975.248h-41.622V854.313c0-10.293,8.345-18.638,18.638-18.638h4.346
					c10.293,0,18.638,8.345,18.638,18.638V975.248z"/>
				<path fill="#2B478B" d="M553.832,903.902h-24.841v-72.176c0-6.144,4.98-11.124,11.124-11.124h2.594
					c6.143,0,11.124,4.98,11.124,11.124V903.902z"/>
			</g>
			<g>
				<path fill="#F99746" d="M501.06,975.248h-28.438v-82.627c0-7.033,5.701-12.734,12.734-12.734h2.969
					c7.033,0,12.734,5.701,12.734,12.734V975.248z"/>
				<path fill="#F99746" d="M495.65,926.502h-16.972v-49.313c0-4.197,3.402-7.6,7.6-7.6h1.772c4.197,0,7.6,3.402,7.6,7.6V926.502z"
					/>
			</g>
			<g>
				<path fill="#ED7D2B" d="M458.08,960.129v11.253c0,2.143-1.727,3.87-3.869,3.87h-43.132c-2.143,0-3.87-1.727-3.87-3.87v-11.253
					c0-2.143,1.727-3.87,3.87-3.87h43.132C456.353,956.259,458.08,957.986,458.08,960.129z"/>
				<path fill="#F99746" d="M458.08,960.129v5.626h-50.871v-5.626c0-2.143,1.727-3.87,3.87-3.87h43.132
					C456.353,956.259,458.08,957.986,458.08,960.129z"/>
			</g>
		</g>
		<g>
			<g>
				<path fill="#2B478B" d="M358.973,975.248h-41.622V854.313c0-10.293,8.344-18.638,18.638-18.638h4.346
					c10.293,0,18.638,8.345,18.638,18.638V975.248z"/>
				<path fill="#2B478B" d="M351.055,903.902h-24.84v-72.176c0-6.144,4.98-11.124,11.124-11.124h2.594
					c6.143,0,11.123,4.98,11.123,11.124V903.902z"/>
			</g>
			<g>
				<path fill="#F99746" d="M298.283,975.248h-28.438v-82.627c0-7.033,5.702-12.734,12.734-12.734h2.969
					c7.033,0,12.734,5.701,12.734,12.734V975.248z"/>
				<path fill="#F99746" d="M292.874,926.502h-16.972v-49.313c0-4.197,3.402-7.6,7.6-7.6h1.772c4.197,0,7.6,3.402,7.6,7.6V926.502z"
					/>
			</g>
			<g>
				<path fill="#ED7D2B" d="M255.304,960.129v11.253c0,2.143-1.727,3.87-3.87,3.87h-43.132c-2.143,0-3.869-1.727-3.869-3.87v-11.253
					c0-2.143,1.727-3.87,3.869-3.87h43.132C253.577,956.259,255.304,957.986,255.304,960.129z"/>
				<path fill="#F99746" d="M255.304,960.129v5.626h-50.871v-5.626c0-2.143,1.727-3.87,3.869-3.87h43.132
					C253.577,956.259,255.304,957.986,255.304,960.129z"/>
			</g>
		</g>
		<g>
			<rect x="546.449" y="1189.186" fill="#CC6A27" width="20.032" height="21.736"/>
			<polygon fill="#F99746" points="546.449,1189.186 539.203,1108.631 573.3,1108.631 566.48,1189.186 			"/>
			<path fill="#CC6A27" d="M538.777,1103.375l0.461,5.292l34.062-0.036l0.071-5.683
				C573.371,1102.948,538.99,1103.375,538.777,1103.375z"/>
		</g>
		<g>
			<rect x="454.034" y="1088.592" fill="#AEC3FF" width="74.175" height="122.031"/>
			<rect x="454.133" y="1104.444" fill="#F99746" width="52.94" height="21.534"/>
		</g>
		<g>
			<rect x="370.029" y="1189.186" fill="#CC6A27" width="20.032" height="21.736"/>
			<polygon fill="#2B478B" points="370.029,1189.186 362.783,1108.631 396.88,1108.631 390.061,1189.186 			"/>
			<path fill="#CC6A27" d="M362.357,1103.375l0.461,5.292l34.062-0.036l0.071-5.683
				C396.951,1102.948,362.57,1103.375,362.357,1103.375z"/>
		</g>
		<g>
			<rect x="277.613" y="1088.592" fill="#AEC3FF" width="74.176" height="122.031"/>
			<rect x="277.713" y="1104.444" fill="#2B478B" width="52.94" height="21.534"/>
		</g>
		<g>
			<rect x="394.11" y="1447.604" fill="#CC6A27" width="20.032" height="21.736"/>
			<polygon fill="#F99746" points="394.11,1447.604 386.864,1367.049 420.961,1367.049 414.142,1447.604 			"/>
			<path fill="#CC6A27" d="M386.438,1361.793l0.462,5.292l34.061-0.036l0.071-5.683
				C421.032,1361.366,386.651,1361.793,386.438,1361.793z"/>
		</g>
		<g>
			<rect x="301.695" y="1347.01" fill="#AEC3FF" width="74.175" height="122.031"/>
			<rect x="301.794" y="1362.862" fill="#F99746" width="52.939" height="21.534"/>
		</g>
		<g>
			<rect x="546.449" y="1447.604" fill="#CC6A27" width="20.032" height="21.736"/>
			<polygon fill="#F99746" points="546.449,1447.604 539.203,1367.049 573.3,1367.049 566.48,1447.604 			"/>
			<path fill="#CC6A27" d="M538.777,1361.793l0.461,5.292l34.062-0.036l0.071-5.683
				C573.371,1361.366,538.99,1361.793,538.777,1361.793z"/>
		</g>
		<g>
			<rect x="454.034" y="1347.01" fill="#AEC3FF" width="74.175" height="122.031"/>
			<rect x="454.133" y="1362.862" fill="#F99746" width="52.94" height="21.534"/>
		</g>
	</g>
	<rect x="2089.579" y="1022.515" fill="#C0D4FF" width="355.445" height="21.874"/>
	<g>
		<g>
			<g>
				<path fill="#0E2C4F" d="M1373.82,1739c0,0,3.046,47.465,12.232,48.126c1.222,0.088,46.581-0.011,46.581-0.011l57.903-0.462
					c0,0-0.409-13.951-17.341-16.864c-16.932-2.912-45.288-14.746-55.589-37.094C1406.768,1709.185,1373.82,1739,1373.82,1739z"/>
				<path fill="#163560" d="M1208.074,1348.581c-2.213,1.862-61.186,65.763-56.369,114.842
					c1.415,14.414,13.832,25.252,28.316,25.252l126.426-67.778c0,0,18.711,80.878,20.459,96.718
					c1.749,15.841,16.748,101.227,46.472,222.568c0,0,21.904,7.542,35.189,2.155c17.569-7.122,20.12-14.679,20.12-14.679
					s-17.717-271.709-31.705-290.83c-13.988-19.12-158.087-75.968-204.747-81.629S1208.074,1348.581,1208.074,1348.581z"/>
				<path fill="#163560" d="M1475.305,1739c0,0,3.046,47.465,12.232,48.126c1.222,0.088,46.581-0.011,46.581-0.011l57.903-0.462
					c0,0-0.409-13.951-17.341-16.864c-16.932-2.912-45.288-14.746-55.589-37.094C1508.253,1709.185,1475.305,1739,1475.305,1739z"/>
				<path fill="#2B478B" d="M1153.593,1348.581c-1.678,1.411-14.438,35.756-22.964,74.759
					c-7.337,33.567,18.196,65.335,52.556,65.335h167.113c0,0,73.3,13.1,75.048,28.939c1.749,15.841,16.747,101.227,46.472,222.568
					c0,0,21.98,5.769,39.142-1.566c9.127-3.9,16.327-13.256,16.327-13.256s-17.875-269.41-31.864-288.531
					c-13.988-19.12-158.087-75.968-204.747-81.629S1153.593,1348.581,1153.593,1348.581z"/>
				<path fill="#FFB27D" d="M1220.634,1108.808l28.846,21.243l43.663-5.705c-0.41-3.519-2.475-18.139-4.364-31.387
					c-0.117-0.778-0.233-1.557-0.339-2.322c-0.419-2.94-0.832-5.778-1.202-8.364c-1.044-7.299-1.812-12.585-1.812-12.585
					l-12.228-6.206l-27.174-13.808l-14.692-7.452c0.022,0.229,0.492,12.435,0.555,14.208
					C1232.991,1088.048,1220.634,1108.808,1220.634,1108.808z"/>
				<path fill="#2A4E96" d="M1097.743,1264.385c1.731-56.68,34.294-103.196,48.515-120.896c8.768-17.855,71.13-39.808,71.13-39.808
					s54.707,5.054,85.647,7.912c0,0,59.138,11.378,71.944,61.3c31.023,120.931,64.103,173.496,55.924,202.181
					c-34.667,121.587-155.178,118.491-177.875,93.805c-11.616-12.635-126.316-80.109-121.719-161.528
					C1111.498,1300.92,1097.017,1288.149,1097.743,1264.385z"/>
				<path fill="#EAA16E" d="M1241.428,1065.066l2.407,1.09c0,0,22.484,12.105,43.402,16.116c-1.044-7.299-1.812-12.585-1.812-12.585
					l-12.228-6.206L1241.428,1065.066z"/>
				<path fill="#FFB27D" d="M1300.776,1068.063c0,0-66.139,16.745-75.933-24.603c-9.794-41.348-24.927-67.034,16.886-79.474
					s53.785,1.387,60.411,14.393C1308.767,991.387,1317.728,1062.642,1300.776,1068.063z"/>
				<path fill="#EA680F" d="M1299.801,974.321c0,0-6.727,47.129-16.407,44.539c-9.681-2.589-18.48-4.597-17.824,9.757
					c0.657,14.353,10.015,33.801-20.303,34.683c-30.319,0.882-66.144-81.542-57.05-95.827
					C1214.455,926.253,1337.202,924.331,1299.801,974.321z"/>
				<path fill="#163560" d="M1286.771,1097.281c-0.984-0.242-56.999-15.324-62.949-12.663c-5.95,2.662-11.328,20.996-11.328,20.996
					l96.048,7.521C1308.543,1113.135,1299.331,1100.373,1286.771,1097.281z"/>
			</g>
			<g>
				<path fill="#77A4E5" d="M1390.166,1497.765h-335.14c-12.729,0-23.047-10.318-23.047-23.047v-14.987h358.187V1497.765z"/>
				<path fill="#F99746" d="M1430.328,1497.765h-253.547c-9.412,0-17.042-7.63-17.042-17.041v-3.951
					c0-9.412,7.63-17.042,17.042-17.042h253.547c9.412,0,17.042,7.63,17.042,17.042v3.951
					C1447.369,1490.135,1439.739,1497.765,1430.328,1497.765z"/>
				<g>
					<polygon fill="#94B0ED" points="1219.245,1772.85 1197.627,1772.85 1191.562,1497.765 1224.585,1497.765 					"/>
					<polygon fill="#94B0ED" points="1313.194,1772.85 1102.953,1772.85 1102.953,1753.859 1210.108,1744.195 1313.194,1753.859 
											"/>
					<circle fill="#94B0ED" cx="1099.823" cy="1769.868" r="17.294"/>
					<circle fill="#94B0ED" cx="1310.064" cy="1769.868" r="17.294"/>
					<path fill="#94B0ED" d="M1280.735,1515.813h-145.323c-8.717,0-15.784-7.066-15.784-15.784v-2.264h176.891v2.264
						C1296.52,1508.746,1289.453,1515.813,1280.735,1515.813z"/>
				</g>
				<path fill="#F99746" d="M1065.089,1497.765c-9.088,0-16.456-7.367-16.456-16.456v-253.306c0-47.467,31.033-85.946,69.315-85.946
					h156.747c38.282,0,69.316,38.479,69.316,85.946v65.121v204.641H1065.089z"/>
				<path fill="#CC6A27" d="M1061.992,1497.765c-16.575,0-30.012-13.437-30.012-30.012v-239.75
					c0-47.467,31.034-85.946,69.315-85.946h156.748c38.282,0,69.315,38.479,69.315,85.946v269.762H1061.992z"/>
			</g>
			<path fill="#163560" d="M1352.526,1345.707c0,0,7.551,50.001,63.547,66.045l12.613-16.577L1352.526,1345.707z"/>
			<path fill="#2A4E96" d="M1398.878,1254.27l54.787,157.482c0,0-82.391-25.15-94.101-46.899
				c-11.71-21.748-15.553-71.729-15.553-71.729L1398.878,1254.27z"/>
		</g>
		<g>
			<path fill="#FFB27D" d="M1133.533,982.74c0,0,20.687-8.879,31.003-5.726c10.316,3.153,5.824,11.779,6.184,13.396
				s20.131,7.851,21.324,8.805s-3.983,16.539-11.621,17.97s-19.444-4.852-27.559-7.954c-8.115-3.104-20.525-7.876-20.525-7.876
				l-0.239-18.378L1133.533,982.74z"/>
			<path fill="#E58638" d="M1139.572,993.382c0.002-0.113,0.003-0.225,0.005-0.335c0.098-7.042-4.815-13.155-11.705-14.611
				c-27.172-5.743-97.558-20.653-105.506-22.696c-8.387-2.156-99.448-54.925-126.705-70.781c-4.723-2.748-10.571-2.657-15.21,0.229
				l-56.15,34.93c-10.388,6.462-8.864,22.027,2.583,26.341c52.452,19.765,162.095,60.754,181.098,65.242
				c33.503,7.914,95.695,1.091,118.545-1.851c6.457-0.831,11.637-5.793,12.668-12.221
				C1139.409,996.295,1139.548,994.873,1139.572,993.382z"/>
			<path fill="#163560" d="M872.757,1743.425c0,0,2.197,35.41,8.772,43.737h101.184c-0.64-3.531-3.503-12.248-16.155-14.459
				c-15.988-2.78-42.751-14.014-52.427-35.146C903.941,1715.327,872.757,1743.425,872.757,1743.425z"/>
			<path fill="#163560" d="M693.198,1738.487c0,0-8.717,46.864-0.056,47.66c1.152,0.105,42.422,0.513,53.441,2.162
				c17.995,2.694,50.713-2.162,50.713-2.162c3.759,0.156,4.825-4.672,2.91-7.911c-2.1-3.553-6.106-7.349-13.746-8.819
				c-15.934-3.066-42.489-14.771-51.799-36.066C724.868,1710.947,693.198,1738.487,693.198,1738.487z"/>
			<path fill="#94B0ED" d="M920.333,1272.174c0,0-25.442,89.027-98.36,243.626c-72.918,154.599-78.545,225.052-78.545,225.052
				l-50.23-2.364c0,0,4.722-184.015,39.166-262.031c34.443-78.018,41.461-291.508,41.461-291.508L920.333,1272.174z"/>
			<path fill="#AEC3FF" d="M961.18,1195.574c0,0,2.025,137.854-21.826,307.114c-23.851,169.26-15.766,241.107-15.766,241.107
				l-57.125,1.899c0,0-34.139-169.322-24.351-254.041c9.788-84.719-46.749-290.707-46.749-290.707L961.18,1195.574z"/>
			<path fill="#FFB27D" d="M848.462,872.979l26.943,19.956l38.939-8.198c-0.539-3.551-3.109-18.268-5.45-31.599
				c-0.142-0.786-0.283-1.572-0.415-2.341c-2.005-11.343-3.737-21.086-3.737-21.086l-36.369-18.126l-13.56-6.758
				c0.036,0.238,1.051,12.588,1.192,14.39C858.55,851.23,848.462,872.979,848.462,872.979z"/>
			<path fill="#F99746" d="M771.281,1212.587c-0.652-36.298,11.43-86.373,20.113-159.358c3.764-31.581,0.853-76.7,7.541-105.282
				c11.857-50.577,22.497-79.448,45.043-86.085c8.332-2.434,39.009,5.533,61.204,11.97c1.543,0.439,3.074,0.966,4.567,1.593
				c5.483,2.184,10.452,5.37,14.68,9.36c5.972,5.596,10.464,12.735,12.873,20.828c3.425,11.505,7.365,26.261,10.552,42.521
				c3.488,17.628,6.098,37.014,6.274,55.984c0.201,19.687,2.86,48.783,5.872,79.372c0.339,3.4,0.678,6.813,1.016,10.238
				c0.239,2.372,4.016,80.414,5.12,101.329c0.013,0.289,0.025,0.565,0.038,0.828c0,0.025,0,0.063,0.013,0.088
				c0.013,0.302,0.025,0.603,0.05,0.879c0.101,1.869,0.163,3.012,0.188,3.274C968.87,1224.72,772.034,1253.829,771.281,1212.587z"/>
			<path fill="#FCA56B" d="M858.735,819.782c7.986,15.282,37.747,28.498,50.158,33.356c-0.142-0.786-0.283-1.572-0.415-2.341
				c-2.005-11.343-3.737-21.086-3.737-21.086l-36.369-18.126C860.334,811.46,855.44,813.492,858.735,819.782z"/>
			<path fill="#FFB27D" d="M922.415,827.583c0,0-65.613,20.467-77.73-20.589c-12.117-41.057-28.747-66.066,12.633-80.87
				c41.38-14.804,54.18-1.55,61.558,11.17S939.17,821.2,922.415,827.583z"/>
			<path fill="#163560" d="M916.299,733.337c0,0-4.185,47.777-14.064,45.703c-9.88-2.074-18.841-3.611-17.395,10.79
				c1.447,14.402,7.418,33.474-23.032,36.022c-30.45,2.547-66.494-78.423-58.129-93.292
				C827.814,689.66,951.184,681.002,916.299,733.337z"/>
			<path fill="#E58638" d="M966.235,1196.854C820.126,1189.25,850,1027.143,850,1027.143L960,1083.491
				c0.339,3.4,0.678,6.813,1.016,10.238c0.239,2.372,4.016,80.414,5.12,101.329c-0.025,0.302-0.013,0.565,0.038,0.828
				c0,0.025,0,0.063,0.013,0.088C966.198,1196.276,966.21,1196.577,966.235,1196.854z"/>
			<g>
				<g>
					<path fill="#2A4E96" d="M1187.177,1011.902c-2.491,4.865-8.476,6.796-13.34,4.305s-6.795-8.476-4.304-13.341
						c2.491-4.864,8.476-6.795,13.34-4.304C1187.737,1001.054,1189.668,1007.038,1187.177,1011.902z M1183.746,1010.146
						c1.522-2.973,0.343-6.63-2.63-8.152c-2.973-1.522-6.63-0.343-8.152,2.63c-1.522,2.974-0.342,6.631,2.63,8.152
						C1178.566,1014.299,1182.223,1013.118,1183.746,1010.146z"/>
				</g>
				<path fill="#2A4E96" d="M1186.092,1007.112c-0.034-0.326,50.302-12.231,50.302-12.231s-4.561-3.779-12.222-3.853
					c-7.661-0.074-39.362,9.21-39.362,9.21L1186.092,1007.112z"/>
			</g>
			<g>
				<path fill="#2A4E96" d="M1183.618,992.472c-5.284,1.396-10.719-1.767-12.115-7.051c-1.396-5.284,1.767-10.719,7.051-12.115
					c5.284-1.396,10.719,1.767,12.115,7.051C1192.064,985.64,1188.902,991.075,1183.618,992.472z M1179.538,977.032
					c-3.229,0.853-5.162,4.174-4.309,7.403c0.854,3.229,4.175,5.162,7.404,4.309c3.229-0.854,5.162-4.175,4.309-7.404
					C1186.088,978.111,1182.767,976.179,1179.538,977.032z"/>
			</g>
			<path fill="#2A4E96" d="M1188.587,984.805c-0.104,0.311,46.536,22.678,46.536,22.678s-5.262,2.72-12.763,1.157
				c-7.5-1.562-36.492-17.394-36.492-17.394L1188.587,984.805z"/>
			<circle fill="#2A4E96" cx="1206.162" cy="997.642" r="1.106"/>
			<path fill="#FFB27D" d="M1164.536,977.015c0.159,0.032,7.956,0.477,15.562,0.977c5.594,0.368,11.395-1.124,13.666-0.839
				c5.358,0.674,0.137,8.457-12.102,10.635c-10.361,1.844-20.529,5.199-29.99,5.14
				C1140.231,992.855,1164.536,977.015,1164.536,977.015z"/>
			<g>
				<g>
					<path fill="#163560" d="M1092.543,1054.136c-0.169,0-0.341-0.01-0.513-0.03l-9.305-1.115c-0.5-0.06-0.855-0.514-0.796-1.013
						c0.06-0.5,0.515-0.851,1.013-0.796l9.304,1.115c1.357,0.161,2.582-0.806,2.743-2.156l6.379-53.237
						c0.161-1.346-0.807-2.573-2.158-2.734l-9.304-1.115c-0.5-0.06-0.855-0.513-0.796-1.013c0.06-0.499,0.515-0.856,1.013-0.796
						l9.304,1.115c2.348,0.282,4.03,2.417,3.75,4.76l-6.379,53.237C1096.539,1052.532,1094.683,1054.136,1092.543,1054.136z"/>
				</g>
				<g>
					<g>
						<path fill="#163560" d="M1102.314,997.024c-0.014,0-0.028-0.001-0.042-0.003l-12.658-1.517
							c-0.19-0.022-0.325-0.195-0.302-0.384s0.203-0.326,0.384-0.302l12.658,1.517c0.19,0.022,0.325,0.195,0.302,0.384
							C1102.636,996.895,1102.487,997.024,1102.314,997.024z"/>
					</g>
					<g>
						<path fill="#163560" d="M1101.87,1000.736c-0.014,0-0.028-0.001-0.042-0.003l-12.658-1.517
							c-0.19-0.022-0.325-0.195-0.302-0.384s0.201-0.328,0.384-0.302l12.658,1.517c0.19,0.022,0.325,0.195,0.302,0.384
							C1102.191,1000.606,1102.042,1000.736,1101.87,1000.736z"/>
					</g>
					<g>
						<path fill="#163560" d="M1101.406,1004.602c-0.014,0-0.028-0.001-0.042-0.002l-12.658-1.517
							c-0.19-0.023-0.325-0.195-0.302-0.385s0.198-0.316,0.384-0.303l12.658,1.517c0.19,0.023,0.325,0.195,0.302,0.385
							C1101.728,1004.473,1101.579,1004.602,1101.406,1004.602z"/>
					</g>
				</g>
				<g>
					<g>
						<path fill="#163560" d="M1100.98,1008.159c-0.014,0-0.028-0.001-0.042-0.002l-12.658-1.517
							c-0.19-0.023-0.325-0.195-0.302-0.385s0.198-0.311,0.384-0.303l12.658,1.517c0.19,0.023,0.325,0.195,0.302,0.385
							C1101.302,1008.03,1101.153,1008.159,1100.98,1008.159z"/>
					</g>
					<g>
						<path fill="#163560" d="M1100.535,1011.871c-0.014,0-0.028-0.001-0.042-0.002l-12.658-1.518
							c-0.19-0.023-0.325-0.195-0.302-0.385c0.023-0.19,0.196-0.316,0.384-0.303l12.658,1.518c0.19,0.023,0.325,0.195,0.302,0.385
							C1100.857,1011.742,1100.708,1011.871,1100.535,1011.871z"/>
					</g>
					<g>
						<path fill="#163560" d="M1100.072,1015.737c-0.014,0-0.028-0.001-0.042-0.002l-12.658-1.517
							c-0.19-0.023-0.325-0.195-0.302-0.385c0.022-0.189,0.2-0.316,0.384-0.303l12.658,1.517c0.19,0.023,0.325,0.195,0.302,0.385
							C1100.394,1015.608,1100.245,1015.737,1100.072,1015.737z"/>
					</g>
				</g>
				<g>
					<g>
						<path fill="#163560" d="M1099.572,1019.913c-0.014,0-0.028-0.001-0.042-0.002l-12.658-1.517
							c-0.19-0.023-0.325-0.195-0.302-0.385s0.201-0.313,0.384-0.303l12.658,1.517c0.19,0.023,0.325,0.195,0.302,0.385
							C1099.894,1019.784,1099.745,1019.913,1099.572,1019.913z"/>
					</g>
					<g>
						<path fill="#163560" d="M1099.127,1023.625c-0.014,0-0.028-0.001-0.042-0.002l-12.658-1.518
							c-0.19-0.023-0.325-0.195-0.302-0.385c0.022-0.189,0.195-0.316,0.384-0.303l12.658,1.518c0.19,0.023,0.325,0.195,0.302,0.385
							C1099.449,1023.496,1099.299,1023.625,1099.127,1023.625z"/>
					</g>
					<g>
						<path fill="#163560" d="M1098.664,1027.491c-0.014,0-0.028-0.001-0.042-0.002l-12.658-1.517
							c-0.19-0.023-0.325-0.195-0.302-0.385c0.022-0.189,0.203-0.311,0.384-0.303l12.658,1.517c0.19,0.023,0.325,0.195,0.302,0.385
							C1098.985,1027.362,1098.836,1027.491,1098.664,1027.491z"/>
					</g>
				</g>
				<g>
					<g>
						<path fill="#163560" d="M1098.184,1031.498c-0.014,0-0.028-0.001-0.042-0.002l-12.658-1.517
							c-0.19-0.023-0.325-0.195-0.302-0.385s0.197-0.313,0.384-0.303l12.658,1.517c0.19,0.023,0.325,0.195,0.302,0.385
							C1098.505,1031.369,1098.356,1031.498,1098.184,1031.498z"/>
					</g>
					<g>
						<path fill="#163560" d="M1097.739,1035.21c-0.014,0-0.028-0.001-0.042-0.002l-12.658-1.517
							c-0.19-0.023-0.325-0.195-0.302-0.385c0.022-0.189,0.202-0.315,0.384-0.303l12.658,1.517c0.19,0.023,0.325,0.195,0.302,0.385
							C1098.061,1035.081,1097.912,1035.21,1097.739,1035.21z"/>
					</g>
					<g>
						<path fill="#163560" d="M1097.275,1039.076c-0.014,0-0.028-0.001-0.042-0.002l-12.658-1.517
							c-0.19-0.023-0.325-0.195-0.302-0.385s0.199-0.312,0.384-0.303l12.658,1.517c0.19,0.023,0.325,0.195,0.302,0.385
							C1097.597,1038.947,1097.448,1039.076,1097.275,1039.076z"/>
					</g>
				</g>
				<g>
					<g>
						<path fill="#163560" d="M1096.884,1042.338c-0.014,0-0.028-0.001-0.042-0.002l-12.658-1.517
							c-0.19-0.023-0.325-0.195-0.302-0.385s0.198-0.314,0.384-0.303l12.658,1.517c0.19,0.023,0.325,0.195,0.302,0.385
							C1097.206,1042.209,1097.057,1042.338,1096.884,1042.338z"/>
					</g>
					<g>
						<path fill="#163560" d="M1096.44,1046.05c-0.014,0-0.028-0.001-0.042-0.002l-12.658-1.517
							c-0.19-0.023-0.325-0.195-0.302-0.385c0.022-0.189,0.202-0.316,0.384-0.303l12.658,1.517c0.19,0.023,0.325,0.195,0.302,0.385
							C1096.762,1045.921,1096.613,1046.05,1096.44,1046.05z"/>
					</g>
					<g>
						<path fill="#163560" d="M1095.977,1049.916c-0.014,0-0.028-0.001-0.042-0.002l-12.658-1.517
							c-0.19-0.023-0.325-0.195-0.302-0.385s0.199-0.313,0.384-0.303l12.658,1.517c0.19,0.023,0.325,0.195,0.302,0.385
							C1096.298,1049.787,1096.149,1049.916,1095.977,1049.916z"/>
					</g>
				</g>
			</g>
			<path fill="#FFB27D" d="M1053.459,1043.698c0,0,22.637-15.313,26.931-16.647s18.371-2.78,19.024-1.671s2.582,4.504,0.122,5.654
				s-5.521,0.746-4.603,1.55c0.919,0.803,10.173-3.602,12.308,1.117c2.134,4.719,4.012,20.886-6.845,25.788
				c-10.857,4.901-37.66,0.473-39.593,1.034C1044.413,1065.287,1053.459,1043.698,1053.459,1043.698z"/>
			<path fill="#2A4E96" d="M789.267,1070.18c0,0,43.928,4.721,94.028-5.942l-1.892,11.194c0,0-30.273,14.729-93.705,6.351
				L789.267,1070.18z"/>
			<path fill="#2A4E96" d="M906.86,929.741l-23.565,134.496l11.783,339.923c0,0,38.77,10.183,71.369,0
				c0,0,9.262-417.509-24.249-480.907L906.86,929.741z"/>
			<path fill="#F99746" d="M1053.668,1039.559c0,0-110.484,18.783-120.274,14.017c-15.626-7.608-5.03-127.18-5.03-127.18
				s12.025-17.93-17.65-23.922c-25.787-5.208-50.667,14.109-50.667,14.109s-22.628,20.247-19.737,42.704
				c6.408,49.778,16.376,151.024,49.671,166.544c42.943,20.016,167.208-55.508,167.208-55.508s4.138-5.066,3.549-14.477
				C1060.221,1047.546,1053.668,1039.559,1053.668,1039.559z"/>
			<path fill="#2A4E96" d="M928.365,926.395c0,0-3.346-48.408-56.043-64.982l8.443-4.863c0,0,50.946,16.311,55.546,69.845H928.365z"
				/>
			<path fill="#E58638" d="M911.619,862.91c-0.854-0.359-52.969-15.739-58.631-13.869c-5.662,1.869-9.014,12.824-9.014,12.824
				l80.461,22.919C924.435,884.784,922.509,867.495,911.619,862.91z"/>
			<g>
				<path fill="#2A4E96" d="M1190.622,980.409c-1.223-4.426-4.889-7.331-9.166-7.484v3.972c2.597,0.153,4.736,1.835,5.5,4.43
					c0.763,3.207-1.07,6.567-4.277,7.484c-0.458,0.153-0.765,0.153-1.223,0.153v3.819c0.611,0,1.529-0.153,2.141-0.306
					C1188.94,991.101,1191.997,985.604,1190.622,980.409z"/>
			</g>
			<path fill="#F4A773" d="M1171.349,1016.288c0,0,2.623-8.43,4.762-10.123c8.625-6.829,14.626-11.25,17.491-8.386
				c3.818,3.819-0.141,14.536-4.103,18.15C1186.786,1018.402,1180.418,1021.3,1171.349,1016.288z"/>
		</g>
	</g>
	<g>
		<g>
			<path fill="#7298DB" d="M1804.68,1439.561v8.804c0,3.083,0.997,5.6,2.215,5.6h321.28c1.218,0,2.216-2.517,2.216-5.6v-8.804
				c0-3.077-0.998-5.6-2.216-5.6h-321.28C1805.677,1433.961,1804.68,1436.483,1804.68,1439.561z"/>
			<path fill="#C2D5FF" d="M1804.68,1439.561v8.804c0,3.083,0.916,5.6,2.033,5.6h255.062c1.117,0,2.033-2.517,2.033-5.6v-8.804
				c0-3.077-0.916-5.6-2.033-5.6h-255.062C1805.596,1433.961,1804.68,1436.483,1804.68,1439.561z"/>
			<rect x="1885.994" y="1453.966" fill="#94B0ED" width="228.09" height="332.45"/>
			<rect x="1822.075" y="1453.966" fill="#C0D4FF" width="228.089" height="332.45"/>
			<g>
				<g>
					<path fill="#94B0ED" d="M1834.329,1463.357h203.576v304.704h-203.576V1463.357z M2035.707,1465.556h-199.18v300.308h199.18
						V1465.556z"/>
				</g>
				<g>
					<rect x="1835.429" y="1564.156" fill="#94B0ED" width="201.378" height="2.198"/>
				</g>
				<g>
					<rect x="1835.429" y="1666.918" fill="#94B0ED" width="201.378" height="2.198"/>
				</g>
				<path fill="#94B0ED" d="M1915.482,1483.008h37.368c1.813,0,3.297-1.483,3.297-3.297l0,0c0-1.813-1.483-3.297-3.297-3.297
					h-37.368c-1.813,0-3.297,1.483-3.297,3.297l0,0C1912.186,1481.524,1913.669,1483.008,1915.482,1483.008z"/>
				<path fill="#94B0ED" d="M1915.482,1583.499h37.368c1.813,0,3.297-1.483,3.297-3.297l0,0c0-1.813-1.483-3.297-3.297-3.297
					h-37.368c-1.813,0-3.297,1.483-3.297,3.297l0,0C1912.186,1582.016,1913.669,1583.499,1915.482,1583.499z"/>
				<path fill="#94B0ED" d="M1915.482,1688.255h37.368c1.813,0,3.297-1.484,3.297-3.298l0,0c0-1.813-1.483-3.297-3.297-3.297
					h-37.368c-1.813,0-3.297,1.483-3.297,3.297l0,0C1912.186,1686.771,1913.669,1688.255,1915.482,1688.255z"/>
			</g>
		</g>
		<g>
			<g>
				<path fill="#2B478B" d="M2079.162,1433.967h-33.877v-98.432c0-8.378,6.792-15.17,15.17-15.17h3.537
					c8.378,0,15.17,6.792,15.17,15.17V1433.967z"/>
				<path fill="#2B478B" d="M2072.718,1375.897H2052.5v-58.746c0-5,4.053-9.054,9.053-9.054h2.111c5,0,9.054,4.054,9.054,9.054
					V1375.897z"/>
			</g>
			<g>
				<path fill="#F99746" d="M2029.766,1433.967h-23.146v-67.252c0-5.724,4.641-10.364,10.364-10.364h2.417
					c5.725,0,10.364,4.641,10.364,10.364V1433.967z"/>
				<path fill="#F99746" d="M2025.363,1394.291h-13.814v-40.137c0-3.416,2.77-6.186,6.186-6.186h1.442
					c3.417,0,6.187,2.77,6.187,6.186V1394.291z"/>
			</g>
			<g>
				<path fill="#ED7D2B" d="M1994.783,1421.661v9.159c0,1.744-1.405,3.149-3.148,3.149h-35.106c-1.744,0-3.149-1.405-3.149-3.149
					v-9.159c0-1.744,1.405-3.149,3.149-3.149h35.106C1993.378,1418.512,1994.783,1419.917,1994.783,1421.661z"/>
				<path fill="#F99746" d="M1994.783,1421.661v4.579h-41.404v-4.579c0-1.744,1.405-3.149,3.149-3.149h35.106
					C1993.378,1418.512,1994.783,1419.917,1994.783,1421.661z"/>
			</g>
		</g>
	</g>
	<polygon opacity="0.1" fill="#94B0ED" points="1396.279,675.696 1396.155,945.645 1703.559,675.696 	"/>
	<path opacity="0.3" fill="#94B0ED" d="M1394.572,1043.53l432.885-367.911h29.758v41.806l-461.098,425.729
		C1396.117,1143.153,1389.63,1038.588,1394.572,1043.53z"/>
	<path fill="#2E3552" d="M3112.828,1798.028H150.612c-2.294,0-4.171-1.877-4.171-4.172v-3.761c0-2.294,1.877-4.171,4.171-4.171
		h2962.216c2.295,0,4.172,1.877,4.172,4.171v3.761C3117,1796.151,3115.123,1798.028,3112.828,1798.028z"/>
</g>
</svg>
