<?xml version="1.0" encoding="utf-8"?>
<!-- Generator: Adobe Illustrator 16.0.0, SVG Export Plug-In . SVG Version: 6.00 Build 0)  -->
<!DOCTYPE svg PUBLIC "-//W3C//DTD SVG 1.1//EN" "http://www.w3.org/Graphics/SVG/1.1/DTD/svg11.dtd">
<svg version="1.1" id="Illustration" xmlns="http://www.w3.org/2000/svg" xmlns:xlink="http://www.w3.org/1999/xlink" x="0px"
	 y="0px" width="3710px" height="3710px" viewBox="0 0 3710 3710" enable-background="new 0 0 3710 3710" xml:space="preserve">
<g>
	<linearGradient id="SVGID_1_" gradientUnits="userSpaceOnUse" x1="3419.0771" y1="3270.0459" x2="1387.5739" y2="1492.483">
		<stop  offset="0" style="stop-color:#DAE3FE"/>
		<stop  offset="1" style="stop-color:#E9EFFD"/>
	</linearGradient>
	<path fill="url(#SVGID_1_)" d="M3073.826,2346.877c-262.552,618.205-961.93,964.526-1568.432,871.108
		c-98.69-15.202-369.252-60.483-608.797-274.108c-461.14-411.242-559.758-1225.558-187.771-1799.425
		c270.742-417.674,756.074-654.439,1217.234-642.596c99.334,2.551,480.023,18.272,814.583,294.144
		c49.141,40.52,157.524,136.807,255.204,289.56C3225.219,1444.251,3244.935,1943.986,3073.826,2346.877z"/>
	<g>
		<linearGradient id="SVGID_2_" gradientUnits="userSpaceOnUse" x1="3759.6563" y1="-163.4336" x2="-368.8857" y2="3850.1658">
			<stop  offset="0" style="stop-color:#4F52FF"/>
			<stop  offset="1" style="stop-color:#4042E2"/>
		</linearGradient>
		<path fill="url(#SVGID_2_)" d="M646.027,725.2c3.668,464.023,30.063,1798.662,37.517,2250.532
			c1.086,65.894,35.88,118.658,78.747,119.42l1874.108,17.322c44.371,0.789,80.615-54.299,80.615-122.527V736.8
			c0-67.273-35.275-121.967-79.026-122.53L726.383,601.23C681.734,600.655,645.484,656.552,646.027,725.2z"/>
		<path fill="#91B3FA" d="M731.362,789.036c3.035,387.921,24.874,1740.224,31.041,2117.984
			c0.898,55.086,29.686,99.198,65.152,99.834l1745.572,14.481c36.711,0.659,66.698-45.394,66.698-102.432V798.734
			c0-56.24-29.185-101.964-65.384-102.436l-1776.594-10.9C760.905,684.917,730.912,731.646,731.362,789.036z"/>
		<defs>
			<filter id="Adobe_OpacityMaskFilter" filterUnits="userSpaceOnUse" x="657.631" y="605.358" width="1222.098" height="1657.295">
				<feFlood  style="flood-color:white;flood-opacity:1" result="back"/>
				<feBlend  in="SourceGraphic" in2="back" mode="normal"/>
			</filter>
		</defs>
		<mask maskUnits="userSpaceOnUse" x="657.631" y="605.358" width="1222.098" height="1657.295" id="SVGID_3_">
			<g filter="url(#Adobe_OpacityMaskFilter)">
				<defs>
					
						<filter id="Adobe_OpacityMaskFilter_1_" filterUnits="userSpaceOnUse" x="657.631" y="605.358" width="1222.098" height="1657.295">
						<feFlood  style="flood-color:white;flood-opacity:1" result="back"/>
						<feBlend  in="SourceGraphic" in2="back" mode="normal"/>
					</filter>
				</defs>
				<mask maskUnits="userSpaceOnUse" x="657.631" y="605.358" width="1222.098" height="1657.295" id="SVGID_3_">
					<g filter="url(#Adobe_OpacityMaskFilter_1_)">
					</g>
				</mask>
				<linearGradient id="SVGID_4_" gradientUnits="userSpaceOnUse" x1="2544.1465" y1="-546.8066" x2="-609.6516" y2="3501.8894">
					<stop  offset="0" style="stop-color:#FFFFFF"/>
					<stop  offset="1" style="stop-color:#000000"/>
				</linearGradient>
				<path mask="url(#SVGID_3_)" fill="url(#SVGID_4_)" d="M1331.582,605.358l-673.951,921.772
					c4.125,241.517,8.79,499.13,13.106,735.522L1879.729,609.098L1331.582,605.358z"/>
			</g>
		</mask>
		<linearGradient id="SVGID_5_" gradientUnits="userSpaceOnUse" x1="2544.1465" y1="-546.8066" x2="-609.6516" y2="3501.8894">
			<stop  offset="0" style="stop-color:#FFFFFF"/>
			<stop  offset="1" style="stop-color:#FFFFFF"/>
		</linearGradient>
		<path opacity="0.53" fill="url(#SVGID_5_)" d="M1331.582,605.358l-673.951,921.772c4.125,241.517,8.79,499.13,13.106,735.522
			L1879.729,609.098L1331.582,605.358z"/>
		<defs>
			
				<filter id="Adobe_OpacityMaskFilter_2_" filterUnits="userSpaceOnUse" x="1896.77" y="1983.777" width="820.244" height="1125.101">
				<feFlood  style="flood-color:white;flood-opacity:1" result="back"/>
				<feBlend  in="SourceGraphic" in2="back" mode="normal"/>
			</filter>
		</defs>
		<mask maskUnits="userSpaceOnUse" x="1896.77" y="1983.777" width="820.244" height="1125.101" id="SVGID_6_">
			<g filter="url(#Adobe_OpacityMaskFilter_2_)">
				<defs>
					
						<filter id="Adobe_OpacityMaskFilter_3_" filterUnits="userSpaceOnUse" x="1896.77" y="1983.777" width="820.244" height="1125.101">
						<feFlood  style="flood-color:white;flood-opacity:1" result="back"/>
						<feBlend  in="SourceGraphic" in2="back" mode="normal"/>
					</filter>
				</defs>
				<mask maskUnits="userSpaceOnUse" x="1896.77" y="1983.777" width="820.244" height="1125.101" id="SVGID_6_">
					<g filter="url(#Adobe_OpacityMaskFilter_3_)">
					</g>
				</mask>
				<linearGradient id="SVGID_7_" gradientUnits="userSpaceOnUse" x1="3946.4883" y1="666.4844" x2="792.6826" y2="4715.1899">
					<stop  offset="0" style="stop-color:#FFFFFF"/>
					<stop  offset="1" style="stop-color:#000000"/>
				</linearGradient>
				<polygon mask="url(#SVGID_6_)" fill="url(#SVGID_7_)" points="2717.014,1983.777 1896.77,3105.639 2247.291,3108.878 
					2717.014,2466.433 				"/>
			</g>
		</mask>
		<linearGradient id="SVGID_8_" gradientUnits="userSpaceOnUse" x1="3946.4883" y1="666.4844" x2="792.6826" y2="4715.1899">
			<stop  offset="0" style="stop-color:#FFFFFF"/>
			<stop  offset="1" style="stop-color:#FFFFFF"/>
		</linearGradient>
		<polygon opacity="0.53" fill="url(#SVGID_8_)" points="2717.014,1983.777 1896.77,3105.639 2247.291,3108.878 2717.014,2466.433 
					"/>
		<defs>
			
				<filter id="Adobe_OpacityMaskFilter_4_" filterUnits="userSpaceOnUse" x="687.009" y="612.909" width="2030.005" height="2486.857">
				<feFlood  style="flood-color:white;flood-opacity:1" result="back"/>
				<feBlend  in="SourceGraphic" in2="back" mode="normal"/>
			</filter>
		</defs>
		<mask maskUnits="userSpaceOnUse" x="687.009" y="612.909" width="2030.005" height="2486.857" id="SVGID_9_">
			<g filter="url(#Adobe_OpacityMaskFilter_4_)">
				<defs>
					
						<filter id="Adobe_OpacityMaskFilter_5_" filterUnits="userSpaceOnUse" x="687.009" y="612.909" width="2030.005" height="2486.857">
						<feFlood  style="flood-color:white;flood-opacity:1" result="back"/>
						<feBlend  in="SourceGraphic" in2="back" mode="normal"/>
					</filter>
				</defs>
				<mask maskUnits="userSpaceOnUse" x="687.009" y="612.909" width="2030.005" height="2486.857" id="SVGID_9_">
					<g filter="url(#Adobe_OpacityMaskFilter_5_)">
					</g>
				</mask>
				<linearGradient id="SVGID_10_" gradientUnits="userSpaceOnUse" x1="3250.125" y1="58.9336" x2="104.5027" y2="4097.1338">
					<stop  offset="0" style="stop-color:#FFFFFF"/>
					<stop  offset="1" style="stop-color:#000000"/>
				</linearGradient>
				<path mask="url(#SVGID_9_)" fill="url(#SVGID_10_)" d="M2717.014,736.8c0-67.273-35.275-121.967-79.025-122.53l-199.475-1.36
					L687.009,3008.469c9.896,49.81,39.814,86.054,75.281,86.684l499.211,4.614l1455.513-1990.728V736.8z"/>
			</g>
		</mask>
		<linearGradient id="SVGID_11_" gradientUnits="userSpaceOnUse" x1="3250.125" y1="58.9336" x2="104.5027" y2="4097.1338">
			<stop  offset="0" style="stop-color:#FFFFFF"/>
			<stop  offset="1" style="stop-color:#FFFFFF"/>
		</linearGradient>
		<path opacity="0.53" fill="url(#SVGID_11_)" d="M2717.014,736.8c0-67.273-35.275-121.967-79.025-122.53l-199.475-1.36
			L687.009,3008.469c9.896,49.81,39.814,86.054,75.281,86.684l499.211,4.614l1455.513-1990.728V736.8z"/>
	</g>
	<g>
		<g>
			<path fill="#91B3FA" d="M2509.186,2054.263c0,0-8.124-341.56,149.195-432.976c157.318-91.417,456.437-148.57,467.648-639.017
				c6.564-287.13,13.669-412.667,18.431-467.407c1.857-21.354-17.118-38.589-38.181-34.621
				c-148.994,28.067-633.01,143.598-734.488,473.961C2251.488,1345.852,2509.186,2054.263,2509.186,2054.263z"/>
			<defs>
				
					<filter id="Adobe_OpacityMaskFilter_6_" filterUnits="userSpaceOnUse" x="2462.513" y="615.135" width="539.088" height="1335.911">
					<feFlood  style="flood-color:white;flood-opacity:1" result="back"/>
					<feBlend  in="SourceGraphic" in2="back" mode="normal"/>
				</filter>
			</defs>
			<mask maskUnits="userSpaceOnUse" x="2462.513" y="615.135" width="539.088" height="1335.911" id="SVGID_12_">
				<g filter="url(#Adobe_OpacityMaskFilter_6_)">
					<defs>
						
							<filter id="Adobe_OpacityMaskFilter_7_" filterUnits="userSpaceOnUse" x="2462.513" y="615.135" width="539.088" height="1335.911">
							<feFlood  style="flood-color:white;flood-opacity:1" result="back"/>
							<feBlend  in="SourceGraphic" in2="back" mode="normal"/>
						</filter>
					</defs>
					<mask maskUnits="userSpaceOnUse" x="2462.513" y="615.135" width="539.088" height="1335.911" id="SVGID_12_">
						<g filter="url(#Adobe_OpacityMaskFilter_7_)">
						</g>
					</mask>
					<linearGradient id="SVGID_13_" gradientUnits="userSpaceOnUse" x1="3281.7422" y1="898.7773" x2="206.1323" y2="3097.6628">
						<stop  offset="0" style="stop-color:#FFFFFF"/>
						<stop  offset="1" style="stop-color:#000000"/>
					</linearGradient>
					<path mask="url(#SVGID_12_)" fill="url(#SVGID_13_)" d="M2991.053,616.699c-163.551,145.864-352.667,404.014-453.468,662.164
						c-12.938,42.544-50.786,133.02-67.223,293.771c-14.68,134.069-7.382,275.74,10.418,369.521
						c1.126,5.929,6.844,9.822,12.772,8.696c10.195-1.934,8.839-12.898,8.747-12.553c-20.329-160.224-11.891-359.649,34.69-539.589
						c59.511-220.945,192.244-435.16,329.533-616.844l14.128-17.891c106.366-136.6,128.759-137.605,118.815-147.128
						C2997.118,614.599,2993.441,614.579,2991.053,616.699z"/>
				</g>
			</mask>
			<linearGradient id="SVGID_14_" gradientUnits="userSpaceOnUse" x1="3281.7422" y1="898.7773" x2="206.1323" y2="3097.6628">
				<stop  offset="0" style="stop-color:#FFFFFF"/>
				<stop  offset="1" style="stop-color:#FFFFFF"/>
			</linearGradient>
			<path opacity="0.53" fill="url(#SVGID_14_)" d="M2991.053,616.699c-163.551,145.864-352.667,404.014-453.468,662.164
				c-12.938,42.544-50.786,133.02-67.223,293.771c-14.68,134.069-7.382,275.74,10.418,369.521c1.126,5.929,6.844,9.822,12.772,8.696
				c10.195-1.934,8.839-12.898,8.747-12.553c-20.329-160.224-11.891-359.649,34.69-539.589
				c59.511-220.945,192.244-435.16,329.533-616.844l14.128-17.891c106.366-136.6,128.759-137.605,118.815-147.128
				C2997.118,614.599,2993.441,614.579,2991.053,616.699z"/>
		</g>
		<g>
			<path fill="#BDD0FB" d="M2256.369,2710.956c-21.285,10.438,201.501-269.718,271.289-709.722
				c32.887-207.342,33.316-467.122,151.426-567.233c98.301-83.318,432.801-30.717,542.25-10.726
				c13.676,2.497,18.281,19.773,7.635,28.715c-52.486,44.079-164.766,148.053-194.021,252.839
				c-38.561,138.116-169.87,225.965-287.426,249.74c-117.555,23.774-182.948,46.847-240.218,234.844
				S2316.848,2681.302,2256.369,2710.956z"/>
			<defs>
				
					<filter id="Adobe_OpacityMaskFilter_8_" filterUnits="userSpaceOnUse" x="2531.682" y="1481.629" width="538.85" height="579.71">
					<feFlood  style="flood-color:white;flood-opacity:1" result="back"/>
					<feBlend  in="SourceGraphic" in2="back" mode="normal"/>
				</filter>
			</defs>
			<mask maskUnits="userSpaceOnUse" x="2531.682" y="1481.629" width="538.85" height="579.71" id="SVGID_15_">
				<g filter="url(#Adobe_OpacityMaskFilter_8_)">
					<defs>
						
							<filter id="Adobe_OpacityMaskFilter_9_" filterUnits="userSpaceOnUse" x="2531.682" y="1481.629" width="538.85" height="579.71">
							<feFlood  style="flood-color:white;flood-opacity:1" result="back"/>
							<feBlend  in="SourceGraphic" in2="back" mode="normal"/>
						</filter>
					</defs>
					<mask maskUnits="userSpaceOnUse" x="2531.682" y="1481.629" width="538.85" height="579.71" id="SVGID_15_">
						<g filter="url(#Adobe_OpacityMaskFilter_9_)">
						</g>
					</mask>
					<linearGradient id="SVGID_16_" gradientUnits="userSpaceOnUse" x1="3012.3652" y1="1547.6582" x2="1265.9865" y2="2905.1663">
						<stop  offset="0" style="stop-color:#FFFFFF"/>
						<stop  offset="1" style="stop-color:#000000"/>
					</linearGradient>
					<path mask="url(#SVGID_15_)" fill="url(#SVGID_16_)" d="M3067.401,1481.631c-139.64,5.849-289.532,69.548-365.598,189.034
						l-7.18,11.401c-16.582,26.734-110.558,216.787-162.752,374.33c-0.649,1.964,0.415,4.084,2.378,4.734
						c3.336,1.104,5.007-2.566,4.689-2.242c36.364-89,88.593-201.838,130.19-286.219c44.608-92.077,75.827-154.435,177.578-214.164
						c113.252-64.326,221.448-70.948,221.123-70.882c1.651-0.168,2.854-1.644,2.685-3.295
						C3070.354,1482.741,3068.975,1481.568,3067.401,1481.631z"/>
				</g>
			</mask>
			<linearGradient id="SVGID_17_" gradientUnits="userSpaceOnUse" x1="3012.3652" y1="1547.6582" x2="1265.9865" y2="2905.1663">
				<stop  offset="0" style="stop-color:#FFFFFF"/>
				<stop  offset="1" style="stop-color:#FFFFFF"/>
			</linearGradient>
			<path opacity="0.53" fill="url(#SVGID_17_)" d="M3067.401,1481.631c-139.64,5.849-289.532,69.548-365.598,189.034l-7.18,11.401
				c-16.582,26.734-110.558,216.787-162.752,374.33c-0.649,1.964,0.415,4.084,2.378,4.734c3.336,1.104,5.007-2.566,4.689-2.242
				c36.364-89,88.593-201.838,130.19-286.219c44.608-92.077,75.827-154.435,177.578-214.164
				c113.252-64.326,221.448-70.948,221.123-70.882c1.651-0.168,2.854-1.644,2.685-3.295
				C3070.354,1482.741,3068.975,1481.568,3067.401,1481.631z"/>
		</g>
	</g>
	<g>
		<linearGradient id="SVGID_18_" gradientUnits="userSpaceOnUse" x1="2313.8418" y1="-1427.3555" x2="2167.6013" y2="-250.7888">
			<stop  offset="0" style="stop-color:#E1473D"/>
			<stop  offset="1" style="stop-color:#E9605A"/>
		</linearGradient>
		<path fill="url(#SVGID_18_)" d="M2229.654,855.905c0,0-211.02-391.16-504.389-221.314s-257.342,272.782-427.188,221.314
			c-169.845-51.469-545.564,200.726-375.719,530.123c169.845,329.398,195.58,499.243-108.083,488.95
			c-303.664-10.294-535.271,663.941-51.469,797.759c483.803,133.818,10.294,401.453,401.453,452.922
			c391.16,51.468,1554.345,46.321,1554.345,46.321s329.397-56.615,149.258-293.369c-180.14-236.755-87.496-272.782,144.111-365.426
			c231.608-92.643,360.278-555.858,0-725.704c-360.278-169.845-283.075-334.544-241.901-488.949
			C2811.247,1144.128,2713.457,619.15,2229.654,855.905z"/>
		<linearGradient id="SVGID_19_" gradientUnits="userSpaceOnUse" x1="1890.7041" y1="3831.6885" x2="1957.1766" y2="2615.2368">
			<stop  offset="0" style="stop-color:#FEBBBA"/>
			<stop  offset="1" style="stop-color:#FF928E"/>
		</linearGradient>
		<path fill="url(#SVGID_19_)" d="M2821.029,3227.227c13.785-74.622,10.566-171.658-100.745-168.477
			c-180.139,5.147-416.894,92.644-524.977-51.468c-108.084-144.111-66.909-586.739-66.909-586.739s-132.707-13.822-201.566-11.073
			c-68.859-2.749-201.567,11.073-201.567,11.073s41.174,442.628-66.909,586.739c-108.084,144.111-344.838,56.615-524.978,51.468
			c-105.016-3-113.817,83.199-102.903,155.624L2821.029,3227.227z"/>
		<linearGradient id="SVGID_20_" gradientUnits="userSpaceOnUse" x1="1825.5474" y1="2734.1484" x2="2028.3008" y2="729.1333">
			<stop  offset="0" style="stop-color:#FEBBBA"/>
			<stop  offset="1" style="stop-color:#FF928E"/>
		</linearGradient>
		<path fill="url(#SVGID_20_)" d="M1470.791,1425.278c0,0-9.753,654.079,55.462,776.434
			c75.489,141.628,194.108,360.485,388.216,388.216c194.107,27.731,434.136-378.691,459.298-473.048
			c20.587-77.203,12.105-830.25,12.105-830.25S1803.548,815.224,1470.791,1425.278z"/>
		<linearGradient id="SVGID_21_" gradientUnits="userSpaceOnUse" x1="1363.52" y1="2687.3936" x2="1566.2701" y2="682.4109">
			<stop  offset="0" style="stop-color:#FEBBBA"/>
			<stop  offset="1" style="stop-color:#FF928E"/>
		</linearGradient>
		<path fill="url(#SVGID_21_)" d="M1526.252,1813.495c0,0-55.462-166.38-138.649-110.921
			c-83.19,55.462,124.851,409.399,124.851,409.399L1526.252,1813.495z"/>
		<linearGradient id="SVGID_22_" gradientUnits="userSpaceOnUse" x1="2346.8301" y1="2786.8223" x2="2549.5796" y2="781.8466">
			<stop  offset="0" style="stop-color:#FEBBBA"/>
			<stop  offset="1" style="stop-color:#FF928E"/>
		</linearGradient>
		<path fill="url(#SVGID_22_)" d="M2358.145,1813.495c0,0,0-249.567,138.648-110.921
			c138.648,138.648-138.648,332.757-138.648,332.757V1813.495z"/>
		<linearGradient id="SVGID_23_" gradientUnits="userSpaceOnUse" x1="1863.9932" y1="-622.2441" x2="1877.2876" y2="69.0729">
			<stop  offset="0" style="stop-color:#E1473D"/>
			<stop  offset="1" style="stop-color:#E9605A"/>
		</linearGradient>
		<path fill="url(#SVGID_23_)" d="M1359.872,1314.357c0,0-110.918,332.758,221.839,221.84
			c332.758-110.919,332.758-110.919,332.758-110.919s332.758-194.108,388.216-110.921c55.46,83.19,110.919,288.056,110.919,288.056
			s110.918-288.056,0-454.433C2302.685,981.601,1609.439,842.954,1359.872,1314.357z"/>
		<linearGradient id="SVGID_24_" gradientUnits="userSpaceOnUse" x1="2016.9238" y1="1867.0898" x2="2342.4453" y2="1867.0898">
			<stop  offset="0" style="stop-color:#09005D"/>
			<stop  offset="1" style="stop-color:#1A0F91"/>
		</linearGradient>
		<path fill="url(#SVGID_24_)" d="M2315.9,1823.352c-21.869,11.772-37.091,35.975-59.75,47.759
			c-26.867,13.972-56.297,16.38-84.948,9.68c-49.697-11.621-103.504-46.351-153.299-17.152c-1.751,1.026-1.003,4.728,1.039,4.456
			c66.552-8.824,121.073,43.832,186.321,42.899c24.643-0.352,53.697-2.394,75.422-15.766c19.311-11.885,61.76-47.828,61.76-47.828
			S2320.729,1820.752,2315.9,1823.352z"/>
		
			<linearGradient id="SVGID_25_" gradientUnits="userSpaceOnUse" x1="278.9009" y1="1867.0898" x2="604.4233" y2="1867.0898" gradientTransform="matrix(-1 0 0 1 2123.9385 0)">
			<stop  offset="0" style="stop-color:#09005D"/>
			<stop  offset="1" style="stop-color:#1A0F91"/>
		</linearGradient>
		<path fill="url(#SVGID_25_)" d="M1546.061,1823.352c21.87,11.772,37.091,35.975,59.75,47.759
			c26.867,13.972,56.296,16.38,84.948,9.68c49.697-11.621,103.504-46.351,153.299-17.152c1.75,1.026,1.002,4.728-1.04,4.456
			c-66.551-8.824-121.072,43.832-186.321,42.899c-24.643-0.352-53.697-2.394-75.422-15.766c-19.31-11.885-61.76-47.828-61.76-47.828
			S1541.231,1820.752,1546.061,1823.352z"/>
		<linearGradient id="SVGID_26_" gradientUnits="userSpaceOnUse" x1="2049.5156" y1="1652.9902" x2="2322.2979" y2="1652.9902">
			<stop  offset="0" style="stop-color:#E1473D"/>
			<stop  offset="1" style="stop-color:#E9605A"/>
		</linearGradient>
		<path fill="url(#SVGID_26_)" d="M2049.516,1663.688L2049.516,1663.688c0,9.94,9.717,17.018,19.15,13.882
			c45.729-15.201,164.146-45.902,253.632,6.976c0,0-50.011-115.025-263.42-34.498
			C2053.227,1652.179,2049.516,1657.647,2049.516,1663.688z"/>
		<linearGradient id="SVGID_27_" gradientUnits="userSpaceOnUse" x1="1545.126" y1="1652.9902" x2="1817.9082" y2="1652.9902">
			<stop  offset="0" style="stop-color:#E1473D"/>
			<stop  offset="1" style="stop-color:#E9605A"/>
		</linearGradient>
		<path fill="url(#SVGID_27_)" d="M1817.908,1663.688L1817.908,1663.688c0,9.94-9.717,17.018-19.15,13.882
			c-45.729-15.201-164.146-45.902-253.632,6.976c0,0,50.011-115.025,263.419-34.498
			C1814.196,1652.179,1817.908,1657.647,1817.908,1663.688z"/>
		<linearGradient id="SVGID_28_" gradientUnits="userSpaceOnUse" x1="1912.5957" y1="2080.4844" x2="1940.2136" y2="2326.9216">
			<stop  offset="0" style="stop-color:#E1473D"/>
			<stop  offset="1" style="stop-color:#E9605A"/>
		</linearGradient>
		<path fill="url(#SVGID_28_)" d="M2064.023,2297.133c-11.198-10.141-66.207-58.408-90.407-50.767
			c-17.229,5.441-27.509,17.235-32.702,25.072c-5.194-7.837-15.475-19.631-32.703-25.072c-24.2-7.642-79.208,40.626-90.407,50.767
			c-1.303,1.178-30.777-5.261-30.777-5.261c32.441,46.788,102.481,75.954,153.887,69.664c51.404,6.29,112.188-22.876,144.629-69.664
			C2085.543,2291.872,2065.325,2298.311,2064.023,2297.133z"/>
	</g>
	<g>
		<linearGradient id="SVGID_29_" gradientUnits="userSpaceOnUse" x1="2515.7227" y1="2399.5938" x2="2718.1113" y2="2399.5938">
			<stop  offset="0" style="stop-color:#FEBBBA"/>
			<stop  offset="1" style="stop-color:#FF928E"/>
		</linearGradient>
		<path fill="url(#SVGID_29_)" d="M2516.396,2344.855c0,0-9.476,52.114,42.639,108.965c52.113,56.852,159.076-28.954,159.076-28.954
			l-12.211-98.961C2705.9,2325.905,2634.836,2524.885,2516.396,2344.855z"/>
		
			<linearGradient id="SVGID_30_" gradientUnits="userSpaceOnUse" x1="2438.0215" y1="9577.1563" x2="2682.0085" y2="10069.8672" gradientTransform="matrix(1 0 0 1 4020.21 0)">
			<stop  offset="0" style="stop-color:#09005D"/>
			<stop  offset="1" style="stop-color:#1A0F91"/>
		</linearGradient>
		<path fill="url(#SVGID_30_)" d="M2790.754,2129.731c0,0,24.635,11.981,29.164,25.747c3.635,11.044,30.874,12.468,33.565,34.189
			c1.389,11.214,9.687,20.196,20.857,21.908c27.821,4.264,70.694,18.71,77.555,67.013c5.235,36.869-13.56,50.849-33.284,55.688
			c-14.488,3.554-24.115,17.646-21.185,32.272c2.811,14.028-1.381,30.246-25.685,43.071
			c-54.464,28.738-108.854-68.084-108.854-68.084l-11.147-169.059L2790.754,2129.731z"/>
		
			<linearGradient id="SVGID_31_" gradientUnits="userSpaceOnUse" x1="-1005.6616" y1="3204.6406" x2="-943.6987" y2="3204.6406" gradientTransform="matrix(1 0 0 1 4020.21 0)">
			<stop  offset="0" style="stop-color:#09005D"/>
			<stop  offset="1" style="stop-color:#1A0F91"/>
		</linearGradient>
		<path fill="url(#SVGID_31_)" d="M3014.622,3189.78l3.524,28.973c0.668,5.497,4.996,9.843,10.498,10.471
			c9.287,1.062,24.192,2.149,38.775,0.607c6.401-0.677,10.557-7.158,8.607-13.293c-3.556-11.185-10.06-27.975-19.437-37.855h-32.14
			C3018.509,3178.683,3013.904,3183.881,3014.622,3189.78z"/>
		<linearGradient id="SVGID_32_" gradientUnits="userSpaceOnUse" x1="2937.416" y1="2924.6055" x2="3901.2676" y2="2339.6477">
			<stop  offset="0" style="stop-color:#FEBBBA"/>
			<stop  offset="1" style="stop-color:#FF928E"/>
		</linearGradient>
		<path fill="url(#SVGID_32_)" d="M2762.888,2850.377l-5.425,31.91c0,0,18.166,184.013,21.397,257.618
			c0.507,11.539-2.479,22.943-8.534,32.778l-31.589,51.297l80.281-47.373l1.599-9.797l-13.143-18.069l17.214-206.14
			c1.012-12.11-1.487-24.255-7.198-34.981l-16.605-31.196L2762.888,2850.377z"/>
		
			<linearGradient id="SVGID_33_" gradientUnits="userSpaceOnUse" x1="-1293.5347" y1="3193.3281" x2="-1193.2739" y2="3193.3281" gradientTransform="matrix(1 0 0 1 4020.21 0)">
			<stop  offset="0" style="stop-color:#09005D"/>
			<stop  offset="1" style="stop-color:#1A0F91"/>
		</linearGradient>
		<path fill="url(#SVGID_33_)" d="M2733.449,3231.412h25.62c4.796,0,9.317-2.202,12.243-6.002
			c7.986-10.379,24.534-30.625,32.446-31.153c10.651-0.712,9.289,37.155,9.289,37.155h5.971l7.563-47.055
			c1.902-11.839-3.985-23.567-14.617-29.114l0,0c0,0-2.435,18.007-15.637,25.972c-13.203,7.965-53.726,36.489-53.726,36.489
			s-4.964-0.709-10.413,0.276C2724.106,3219.441,2725.235,3231.412,2733.449,3231.412z"/>
		
			<linearGradient id="SVGID_34_" gradientUnits="userSpaceOnUse" x1="-1088.1172" y1="3464.4941" x2="-998.925" y2="2422.0601" gradientTransform="matrix(1 0 0 1 4020.21 0)">
			<stop  offset="0" style="stop-color:#FEBBBA"/>
			<stop  offset="1" style="stop-color:#FF928E"/>
		</linearGradient>
		<path fill="url(#SVGID_34_)" d="M2872.848,2865.533c0,0,106.426,201.878,123.343,247.97
			c16.918,46.092,22.844,84.543,23.071,88.185c0.354,5.689,7.43,11.146,26.938,11.146c10.066,0,14.997-4.035,17.411-7.941
			c2.06-3.332,2.166-7.502,0.431-11.015c-6.156-12.458-25.693-52.273-32.928-70.332c-8.639-21.561-27.222-119.271-37.413-153.243
			c-10.191-33.973-21.711-70.825-66.091-104.77C2927.609,2865.533,2897.144,2835.694,2872.848,2865.533z"/>
		
			<linearGradient id="SVGID_35_" gradientUnits="userSpaceOnUse" x1="-1264.9087" y1="2401.5039" x2="-1221.3452" y2="2805.6794" gradientTransform="matrix(1 0 0 1 4020.21 0)">
			<stop  offset="0" style="stop-color:#4F52FF"/>
			<stop  offset="1" style="stop-color:#4042E2"/>
		</linearGradient>
		<path fill="url(#SVGID_35_)" d="M2805.617,2534.744c-27.453-116.328,42.093-182.122,42.093-182.122
			c-28.143-27.014-71.122-44.587-98.332-53.718c-16.182-5.43-33.946-1.559-46.546,9.956c-21.849,19.965-52.089,53.501-46.199,81.906
			c5.303,25.588,53.626,153.268,53.626,153.268S2754.941,2565.181,2805.617,2534.744z"/>
		<linearGradient id="SVGID_36_" gradientUnits="userSpaceOnUse" x1="3243.2217" y1="2141.9121" x2="2668.2349" y2="2909.6689">
			<stop  offset="0" style="stop-color:#09005D"/>
			<stop  offset="1" style="stop-color:#1A0F91"/>
		</linearGradient>
		<path fill="url(#SVGID_36_)" d="M2866.484,2592.336c-11.174-33.657-60.867-57.592-60.867-57.592
			c-50.676,30.437-95.358,9.29-95.358,9.29s-10.021,38.302-3.104,73.897c6.916,35.595,50.309,264.355,50.309,264.355
			c68.371,13.854,173.525-13.938,173.525-13.938C2887.438,2791.029,2877.656,2625.993,2866.484,2592.336z"/>
		
			<linearGradient id="SVGID_37_" gradientUnits="userSpaceOnUse" x1="-1277.2646" y1="2421.7285" x2="-1260.5146" y2="2299.1897" gradientTransform="matrix(1 0 0 1 4020.21 0)">
			<stop  offset="0" style="stop-color:#FEBBBA"/>
			<stop  offset="1" style="stop-color:#FF928E"/>
		</linearGradient>
		<path fill="url(#SVGID_37_)" d="M2773.751,2214.458l22.32,100.256c2.136,8.831-5.914,7.386-14.842,5.702
			c-14.622-2.756-33.467-8.434-39.766-19.811c-0.642-1.157-0.961-2.467-1.143-3.778l-9.589-69.52
			c-0.761-5.515,2.221-10.868,7.311-13.125l18.504-8.205C2763.672,2202.818,2771.918,2206.883,2773.751,2214.458z"/>
		<g>
			
				<linearGradient id="SVGID_38_" gradientUnits="userSpaceOnUse" x1="-1518.6885" y1="2118.7842" x2="-1372.5369" y2="1858.6833" gradientTransform="matrix(0.9809 -0.1943 0.1943 0.9809 3791.1204 -99.2402)">
				<stop  offset="0" style="stop-color:#FEBBBA"/>
				<stop  offset="1" style="stop-color:#FF928E"/>
			</linearGradient>
			<path fill="url(#SVGID_38_)" d="M2731,2123.064c0,0-23.763,16.085-33.973,57.047c-10.21,40.963,6.383,55.655,23.392,54.756
				c17.009-0.901,41.67-6.161,63.038-35.548C2804.824,2169.934,2762.137,2103.409,2731,2123.064z"/>
			
				<linearGradient id="SVGID_39_" gradientUnits="userSpaceOnUse" x1="3729.585" y1="12444.373" x2="3973.5732" y2="12937.0869" gradientTransform="matrix(0.9809 -0.1943 0.1943 0.9809 3791.1204 -99.2402)">
				<stop  offset="0" style="stop-color:#09005D"/>
				<stop  offset="1" style="stop-color:#1A0F91"/>
			</linearGradient>
			<path fill="url(#SVGID_39_)" d="M2761.909,2182.798c0,0,8.706-58.694-40.026-49.717l-9.853,10.259
				c0,0-23.853-26.862,2.544-47.169c26.396-20.306,63.025-15.105,83.292,21.861c20.266,36.968,27.621,62.944,10.635,85.915
				s-29.764,3.27-29.764,3.27s7.791-19.882,1.326-28.413c-6.464-8.53-14.804,4.962-14.804,4.962L2761.909,2182.798z"/>
			
				<linearGradient id="SVGID_40_" gradientUnits="userSpaceOnUse" x1="-1487.5771" y1="2136.2676" x2="-1341.4268" y2="1876.1692" gradientTransform="matrix(0.9809 -0.1943 0.1943 0.9809 3791.1204 -99.2402)">
				<stop  offset="0" style="stop-color:#FEBBBA"/>
				<stop  offset="1" style="stop-color:#FF928E"/>
			</linearGradient>
			<path fill="url(#SVGID_40_)" d="M2768.569,2187.824c0,0,4.298-30.198,19.722-21.564c15.422,8.633-5.559,28.209-13.972,34.869
				L2768.569,2187.824z"/>
		</g>
		<g>
			<path fill="#BDD0FB" d="M2113.345,1948.554c59.501,2.235,338.89,23.374,331.636,223.268c0,0-19.541,79.078-114.47,59.414
				c-208.184-43.126-116.17-168.554-220.683-275.59C2107.106,1952.857,2109.301,1948.401,2113.345,1948.554z"/>
			<g opacity="0.38">
				<path fill="#FFFFFF" d="M2244.904,2006.332c10.99,3.464,21.818,7.495,32.348,11.939c10.554,4.415,20.823,9.327,30.791,14.643
					c19.92,10.627,38.659,23.038,54.945,37.759c8.141,7.342,15.837,15.125,22.561,23.596c0.846,1.055,1.776,2.055,2.576,3.14
					l2.403,3.253l2.409,3.254l1.203,1.629l1.104,1.687l4.429,6.752c1.393,2.295,2.683,4.645,4.035,6.969
					c0.66,1.17,1.361,2.323,1.99,3.508l1.775,3.606c1.161,2.414,2.442,4.791,3.515,7.248c2.009,4.96,4.309,9.859,5.897,14.991
					c3.854,10.104,6.056,20.665,8.542,31.314l0.015,0.062c0.153,0.659,0.853,1.077,1.56,0.935c0.616-0.125,1.036-0.635,1.033-1.199
					c-0.051-10.987-0.912-22.109-3.427-33.002c-1.005-5.507-2.819-10.828-4.435-16.225c-0.36-1.364-0.981-2.642-1.465-3.967
					l-1.55-3.947l-1.56-3.951c-0.576-1.295-1.226-2.561-1.836-3.844c-4.667-10.374-10.954-20.067-17.867-29.285
					c-6.944-9.225-15.033-17.658-23.734-25.416c-17.386-15.592-37.646-28.068-59.065-37.789c-10.729-4.851-21.814-8.936-33.077-12.4
					c-11.324-3.326-22.766-6.172-34.577-7.643c-0.718-0.089-1.377,0.38-1.474,1.049c-0.084,0.588,0.297,1.135,0.879,1.317
					L2244.904,2006.332z"/>
				<path fill="#FFFFFF" d="M2259.911,2135.513c3.47,5.774,7.659,10.952,12.068,15.971c4.442,4.983,9.195,9.712,14.229,14.17
					c10.041,8.951,21.203,16.8,32.996,23.809c1.484,0.863,2.945,1.756,4.449,2.594l4.544,2.464c3.064,1.597,6.12,3.197,9.3,4.613
					c6.27,2.962,12.797,5.513,19.493,7.635c6.696,2.106,13.576,3.816,20.62,4.692c7.018,0.913,14.162,1.142,21.123,0.273
					c0.725-0.091,1.232-0.71,1.136-1.384c-0.078-0.54-0.521-0.951-1.064-1.047l-0.03-0.005c-13.348-2.34-25.726-6.564-37.524-12.123
					c-2.979-1.299-5.85-2.854-8.767-4.271c-2.872-1.531-5.742-3.042-8.566-4.654c-1.424-0.779-2.832-1.588-4.219-2.437
					c-1.396-0.833-2.818-1.614-4.198-2.474c-2.769-1.703-5.53-3.411-8.268-5.168c-10.964-7.004-21.457-14.68-32.208-22.166
					c-10.751-7.505-21.543-15.074-33.187-22.139l-0.021-0.013c-0.621-0.378-1.454-0.214-1.859,0.365
					C2259.676,2134.621,2259.676,2135.12,2259.911,2135.513z"/>
				<path fill="#FFFFFF" d="M2220.23,2031.651c19.134,9.31,37.201,20.468,54.544,32.297c17.274,11.96,33.858,24.715,49.659,38.292
					c2.008,1.661,3.871,3.472,5.813,5.199l5.803,5.213l5.804,5.211l5.59,5.415l11.233,10.795c3.591,3.731,7.175,7.474,10.813,11.179
					l5.458,5.562c1.797,1.874,3.479,3.836,5.226,5.751l10.533,11.484l2.651,2.867l2.521,2.962l5.061,5.924
					c3.421,3.925,6.85,7.855,10.412,11.722l0.044,0.048c0.472,0.512,1.3,0.571,1.849,0.132c0.48-0.383,0.589-1.019,0.297-1.514
					c-2.633-4.463-5.398-8.86-8.172-13.265l-4.231-6.569l-2.125-3.285c-0.735-1.078-1.522-2.122-2.302-3.17l-9.396-12.588
					c-1.604-2.073-3.146-4.196-4.805-6.233l-5.136-5.998c-3.425-4.002-6.904-7.967-10.375-11.941
					c-3.662-3.818-7.361-7.611-11.094-11.377l-5.59-5.657l-5.898-5.382c-3.947-3.571-7.858-7.183-11.912-10.651l-12.443-10.119
					c-1.047-0.833-2.063-1.699-3.134-2.503l-3.242-2.387l-6.495-4.754c-2.178-1.569-4.294-3.208-6.544-4.69l-6.729-4.464
					l-6.761-4.413l-6.947-4.163l-6.945-4.149c-2.369-1.308-4.773-2.563-7.154-3.846c-4.738-2.599-9.601-5.011-14.505-7.327
					c-9.866-4.554-19.858-8.806-30.446-11.883c-0.691-0.201-1.426,0.157-1.641,0.8c-0.192,0.571,0.092,1.176,0.643,1.444
					L2220.23,2031.651z"/>
			</g>
			<g>
				<path fill="#91B3FA" d="M2573.278,2293.8l-95.978-91.666l-16.495-14.815c-9.694-8.707-24.611-7.907-33.319,1.787l-26.573,29.584
					c-8.707,9.694-7.907,24.612,1.787,33.319l16.495,14.815l106.536,89.957C2547.422,2335.557,2562.672,2313.409,2573.278,2293.8z"
					/>
				<path fill="#7D97F4" d="M3161,2837.161L2573.278,2293.8c-10.606,19.609-25.856,41.757-47.547,62.981l603.751,515.469
					c9.741,8.226,24.255,7.225,32.774-2.261S3170.22,2845.967,3161,2837.161z"/>
			</g>
		</g>
		<linearGradient id="SVGID_41_" gradientUnits="userSpaceOnUse" x1="3039.7617" y1="2339.1836" x2="3697.8423" y2="1907.111">
			<stop  offset="0" style="stop-color:#FEBBBA"/>
			<stop  offset="1" style="stop-color:#FF928E"/>
		</linearGradient>
		<path fill="url(#SVGID_41_)" d="M2848.028,2354.331c0,0,57.435,75.872,47.376,156.341
			c-9.475,75.802-106.186,84.113-106.186,84.113s-31.205,15.376-45.418,1.163c-14.213-14.212-25.689-61.204-25.689-61.204
			l33.687,28.444c0,0-3.259-28.828,1.479-28.828s6.269,1.257,10.24,17.21c3.973,15.953,13.289,32.733,13.289,32.733
			s71.223-40.469,75.96-78.369c6.57-52.56-44.438-84.676-44.438-84.676S2819.603,2363.807,2848.028,2354.331z"/>
		<linearGradient id="SVGID_42_" gradientUnits="userSpaceOnUse" x1="2491.9766" y1="2343.085" x2="2538.1816" y2="2343.085">
			<stop  offset="0" style="stop-color:#FEBBBA"/>
			<stop  offset="1" style="stop-color:#FF928E"/>
		</linearGradient>
		<path fill="url(#SVGID_42_)" d="M2491.977,2343.803l0.731-41.585c0,0,23.688,0,28.426,23.688
			c4.737,23.688,8.883,46.208,16.285,56.268c5.538,7.525-20.404-10.321-35.5-25.299
			C2496.838,2351.832,2492.986,2347.116,2491.977,2343.803z"/>
	</g>
	<g>
		<g>
			<path fill="#7D97F4" d="M1405.024,3225.726c-5.435,0-9.838-3.445-9.838-7.695v-919.854c0-4.251,4.403-7.696,9.838-7.696
				s9.839,3.445,9.839,7.696v919.854C1414.863,3222.28,1410.459,3225.726,1405.024,3225.726z"/>
		</g>
		<g>
			<path fill="#7D97F4" d="M1138.401,3225.726c-5.434,0-9.839-3.445-9.839-7.695v-919.854c0-4.251,4.405-7.696,9.839-7.696
				s9.839,3.445,9.839,7.696v919.854C1148.24,3222.28,1143.835,3225.726,1138.401,3225.726z"/>
		</g>
		<path fill="#7D97F4" d="M483.342,3231.561c-1.286,0-2.589-0.198-3.846-0.616c-5-1.662-7.331-6.181-5.205-10.096l503.124-925.684
			c2.125-3.911,7.911-5.729,12.902-4.071c5.001,1.662,7.332,6.181,5.207,10.095l-503.123,925.686
			C490.81,3229.802,487.168,3231.561,483.342,3231.561z"/>
		<path fill="#7D97F4" d="M794.117,3231.561c-1.286,0-2.589-0.198-3.845-0.616c-5-1.662-7.331-6.181-5.206-10.096l503.123-925.684
			c2.126-3.911,7.91-5.729,12.904-4.071c4.999,1.662,7.331,6.181,5.206,10.095l-503.124,925.686
			C801.584,3229.802,797.943,3231.561,794.117,3231.561z"/>
		<path fill="#7D97F4" d="M1420.3,2306.643H959.426c-7.658,0-13.867-4.857-13.867-10.847l0,0c0-5.99,6.209-10.847,13.867-10.847
			H1420.3c7.659,0,13.867,4.856,13.867,10.847l0,0C1434.167,2301.785,1427.958,2306.643,1420.3,2306.643z"/>
		<path fill="#7D97F4" d="M1221.234,2447.416H909.54c-5.434,0-9.838-3.444-9.838-7.695s4.404-7.695,9.838-7.695h311.695
			c5.434,0,9.839,3.444,9.839,7.695S1226.668,2447.416,1221.234,2447.416z"/>
		<rect x="813.901" y="2607.095" fill="#7D97F4" width="311.694" height="15.392"/>
		<rect x="721.314" y="2782.167" fill="#7D97F4" width="311.694" height="15.391"/>
		<path fill="#7D97F4" d="M935.914,2972.629H624.219c-5.434,0-9.838-3.445-9.838-7.695c0-4.251,4.404-7.695,9.838-7.695h311.695
			c5.434,0,9.838,3.444,9.838,7.695C945.752,2969.184,941.348,2972.629,935.914,2972.629z"/>
		<path fill="#7D97F4" d="M842.041,3147.702H530.347c-5.435,0-9.838-3.445-9.838-7.695s4.404-7.695,9.838-7.695h311.694
			c5.435,0,9.839,3.445,9.839,7.695S847.476,3147.702,842.041,3147.702z"/>
	</g>
	<g>
		<g>
			
				<linearGradient id="SVGID_43_" gradientUnits="userSpaceOnUse" x1="-2941.8142" y1="2762.9336" x2="-2650.5273" y2="2762.9336" gradientTransform="matrix(0.4796 0.8774 -0.8774 0.4796 5408.4492 2351.5977)">
				<stop  offset="0" style="stop-color:#09005D"/>
				<stop  offset="1" style="stop-color:#1A0F91"/>
			</linearGradient>
			<path fill="url(#SVGID_43_)" d="M1563.578,1199.545l-617.739,310.121c-17.088,8.579-26.272,27.574-22.384,46.295l0,0
				c5.834,28.086,37.388,42.29,62.282,28.038l584.907-334.86c16.016-9.17,35.287-10.779,52.536-4.219
				c43.724,16.629,149.54,36.681,339.018-38.829c260.861-103.957,419.435-285.086,377.878-361.11
				c-50.624-92.61-193.648-40.11-366.146,37.01c-137.606,61.521-344.111,182.482-378.595,282.085
				C1589.956,1179.612,1578.272,1192.168,1563.578,1199.545z"/>
			
				<linearGradient id="SVGID_44_" gradientUnits="userSpaceOnUse" x1="-2594.7212" y1="2334.6787" x2="-3144.7361" y2="2465.2756" gradientTransform="matrix(0.4796 0.8774 -0.8774 0.4796 5408.4492 2351.5977)">
				<stop  offset="0" style="stop-color:#FEBBBA"/>
				<stop  offset="1" style="stop-color:#FF928E"/>
			</linearGradient>
			<path fill="url(#SVGID_44_)" d="M2249.874,860.843c-105.548,31.852-497.01,186.046-594.681,322.789
				c0,0-17.971,61.82,80.925,74.37c93.935,11.92,492.021-33.108,575.016-339.349C2317.539,895.02,2309.704,842.788,2249.874,860.843
				z"/>
			<g>
				<g>
					
						<linearGradient id="SVGID_45_" gradientUnits="userSpaceOnUse" x1="-2782.623" y1="2053.9922" x2="-2643.2334" y2="2053.9922" gradientTransform="matrix(0.4796 0.8774 -0.8774 0.4796 5408.4492 2351.5977)">
						<stop  offset="0" style="stop-color:#09005D"/>
						<stop  offset="1" style="stop-color:#1A0F91"/>
					</linearGradient>
					<path fill="url(#SVGID_45_)" d="M2268.096,905.528l94.672,98.771l-107.881-84.143c-5.604-4.371-4.899-13.052,1.337-16.461l0,0
						C2260.141,901.555,2265.007,902.306,2268.096,905.528z"/>
					
						<linearGradient id="SVGID_46_" gradientUnits="userSpaceOnUse" x1="-2662.0703" y1="2026.4258" x2="-2631.9316" y2="2026.4258" gradientTransform="matrix(0.4796 0.8774 -0.8774 0.4796 5408.4492 2351.5977)">
						<stop  offset="0" style="stop-color:#09005D"/>
						<stop  offset="1" style="stop-color:#1A0F91"/>
					</linearGradient>
					<circle fill="url(#SVGID_46_)" cx="2360.961" cy="1000.993" r="15.068"/>
				</g>
				<g>
					
						<linearGradient id="SVGID_47_" gradientUnits="userSpaceOnUse" x1="-2799.6965" y1="2138.7959" x2="-2652.9219" y2="2138.7959" gradientTransform="matrix(0.4796 0.8774 -0.8774 0.4796 5408.4492 2351.5977)">
						<stop  offset="0" style="stop-color:#09005D"/>
						<stop  offset="1" style="stop-color:#1A0F91"/>
					</linearGradient>
					<path fill="url(#SVGID_47_)" d="M2202.579,924.901l64.871,120.459l-81.506-109.888c-4.233-5.708-1.237-13.886,5.683-15.507l0,0
						C2195.974,918.948,2200.463,920.972,2202.579,924.901z"/>
					
						<linearGradient id="SVGID_48_" gradientUnits="userSpaceOnUse" x1="-2671.6252" y1="2128.7617" x2="-2641.479" y2="2128.7617" gradientTransform="matrix(0.4796 0.8774 -0.8774 0.4796 5408.4492 2351.5977)">
						<stop  offset="0" style="stop-color:#09005D"/>
						<stop  offset="1" style="stop-color:#1A0F91"/>
					</linearGradient>
					<circle fill="url(#SVGID_48_)" cx="2266.591" cy="1041.692" r="15.068"/>
				</g>
				<g>
					
						<linearGradient id="SVGID_49_" gradientUnits="userSpaceOnUse" x1="-2818.5315" y1="2236.7461" x2="-2671.7568" y2="2236.7461" gradientTransform="matrix(0.4796 0.8774 -0.8774 0.4796 5408.4492 2351.5977)">
						<stop  offset="0" style="stop-color:#09005D"/>
						<stop  offset="1" style="stop-color:#1A0F91"/>
					</linearGradient>
					<path fill="url(#SVGID_49_)" d="M2107.604,955.353l64.87,120.459l-81.505-109.889c-4.234-5.708-1.237-13.885,5.683-15.506l0,0
						C2100.999,949.399,2105.488,951.422,2107.604,955.353z"/>
					
						<linearGradient id="SVGID_50_" gradientUnits="userSpaceOnUse" x1="-2690.4604" y1="2226.7129" x2="-2660.3145" y2="2226.7129" gradientTransform="matrix(0.4796 0.8774 -0.8774 0.4796 5408.4492 2351.5977)">
						<stop  offset="0" style="stop-color:#09005D"/>
						<stop  offset="1" style="stop-color:#1A0F91"/>
					</linearGradient>
					<circle fill="url(#SVGID_50_)" cx="2171.616" cy="1072.143" r="15.069"/>
				</g>
				<g>
					
						<linearGradient id="SVGID_51_" gradientUnits="userSpaceOnUse" x1="-2826.0652" y1="2315.8594" x2="-2679.291" y2="2315.8594" gradientTransform="matrix(0.4796 0.8774 -0.8774 0.4796 5408.4492 2351.5977)">
						<stop  offset="0" style="stop-color:#09005D"/>
						<stop  offset="1" style="stop-color:#1A0F91"/>
					</linearGradient>
					<path fill="url(#SVGID_51_)" d="M2034.578,986.686l64.87,120.458l-81.506-109.888c-4.234-5.708-1.237-13.886,5.683-15.506l0,0
						C2027.972,980.732,2032.461,982.755,2034.578,986.686z"/>
					
						<linearGradient id="SVGID_52_" gradientUnits="userSpaceOnUse" x1="-2697.9944" y1="2305.8252" x2="-2667.8477" y2="2305.8252" gradientTransform="matrix(0.4796 0.8774 -0.8774 0.4796 5408.4492 2351.5977)">
						<stop  offset="0" style="stop-color:#09005D"/>
						<stop  offset="1" style="stop-color:#1A0F91"/>
					</linearGradient>
					<circle fill="url(#SVGID_52_)" cx="2098.589" cy="1103.477" r="15.068"/>
				</g>
				<g>
					
						<linearGradient id="SVGID_53_" gradientUnits="userSpaceOnUse" x1="-2833.5989" y1="2410.041" x2="-2686.8242" y2="2410.041" gradientTransform="matrix(0.4796 0.8774 -0.8774 0.4796 5408.4492 2351.5977)">
						<stop  offset="0" style="stop-color:#09005D"/>
						<stop  offset="1" style="stop-color:#1A0F91"/>
					</linearGradient>
					<path fill="url(#SVGID_53_)" d="M1948.329,1025.245l64.87,120.459l-81.506-109.888c-4.233-5.709-1.236-13.886,5.684-15.507l0,0
						C1941.723,1019.292,1946.213,1021.314,1948.329,1025.245z"/>
					
						<linearGradient id="SVGID_54_" gradientUnits="userSpaceOnUse" x1="-2705.5273" y1="2400.0078" x2="-2675.3821" y2="2400.0078" gradientTransform="matrix(0.4796 0.8774 -0.8774 0.4796 5408.4492 2351.5977)">
						<stop  offset="0" style="stop-color:#09005D"/>
						<stop  offset="1" style="stop-color:#1A0F91"/>
					</linearGradient>
					<circle fill="url(#SVGID_54_)" cx="2012.34" cy="1142.036" r="15.068"/>
				</g>
				<g>
					
						<linearGradient id="SVGID_55_" gradientUnits="userSpaceOnUse" x1="-2829.8298" y1="2500.457" x2="-2683.0557" y2="2500.457" gradientTransform="matrix(0.4796 0.8774 -0.8774 0.4796 5408.4492 2351.5977)">
						<stop  offset="0" style="stop-color:#09005D"/>
						<stop  offset="1" style="stop-color:#1A0F91"/>
					</linearGradient>
					<path fill="url(#SVGID_55_)" d="M1870.807,1071.915l64.87,120.458l-81.506-109.888c-4.234-5.708-1.237-13.885,5.684-15.506l0,0
						C1864.2,1065.962,1868.689,1067.984,1870.807,1071.915z"/>
					
						<linearGradient id="SVGID_56_" gradientUnits="userSpaceOnUse" x1="-2701.759" y1="2490.4229" x2="-2671.613" y2="2490.4229" gradientTransform="matrix(0.4796 0.8774 -0.8774 0.4796 5408.4492 2351.5977)">
						<stop  offset="0" style="stop-color:#09005D"/>
						<stop  offset="1" style="stop-color:#1A0F91"/>
					</linearGradient>
					<circle fill="url(#SVGID_56_)" cx="1934.818" cy="1188.705" r="15.069"/>
				</g>
				<g>
					
						<linearGradient id="SVGID_57_" gradientUnits="userSpaceOnUse" x1="-2724.6167" y1="2092.4893" x2="-2614.2324" y2="2092.4893" gradientTransform="matrix(0.4796 0.8774 -0.8774 0.4796 5408.4492 2351.5977)">
						<stop  offset="0" style="stop-color:#09005D"/>
						<stop  offset="1" style="stop-color:#1A0F91"/>
					</linearGradient>
					<path fill="url(#SVGID_57_)" d="M2267.601,970.794l65.612,82.708l-76.815-72.422c-3.99-3.762-2.822-10.381,2.215-12.55l0,0
						C2261.775,967.168,2265.46,968.096,2267.601,970.794z"/>
					
						<linearGradient id="SVGID_58_" gradientUnits="userSpaceOnUse" x1="-2628.7556" y1="2075.6924" x2="-2605.498" y2="2075.6924" gradientTransform="matrix(0.4796 0.8774 -0.8774 0.4796 5408.4492 2351.5977)">
						<stop  offset="0" style="stop-color:#09005D"/>
						<stop  offset="1" style="stop-color:#1A0F91"/>
					</linearGradient>
					<circle fill="url(#SVGID_58_)" cx="2332.063" cy="1050.832" r="11.627"/>
				</g>
				<g>
					
						<linearGradient id="SVGID_59_" gradientUnits="userSpaceOnUse" x1="-2826.3669" y1="2579.5801" x2="-2681.6182" y2="2579.5801" gradientTransform="matrix(0.4796 0.8774 -0.8774 0.4796 5408.4492 2351.5977)">
						<stop  offset="0" style="stop-color:#09005D"/>
						<stop  offset="1" style="stop-color:#1A0F91"/>
					</linearGradient>
					<path fill="url(#SVGID_59_)" d="M1810.632,1111.542l33.021,132.771l-51.756-126.648c-2.688-6.579,2.24-13.76,9.346-13.616l0,0
						C1805.706,1104.138,1809.554,1107.21,1810.632,1111.542z"/>
					
						<linearGradient id="SVGID_60_" gradientUnits="userSpaceOnUse" x1="-2699.959" y1="2595.2227" x2="-2669.8149" y2="2595.2227" gradientTransform="matrix(0.4796 0.8774 -0.8774 0.4796 5408.4492 2351.5977)">
						<stop  offset="0" style="stop-color:#09005D"/>
						<stop  offset="1" style="stop-color:#1A0F91"/>
					</linearGradient>
					<circle fill="url(#SVGID_60_)" cx="1843.73" cy="1240.546" r="15.069"/>
				</g>
				<g>
					
						<linearGradient id="SVGID_61_" gradientUnits="userSpaceOnUse" x1="-2819.4851" y1="2675.1729" x2="-2677.8252" y2="2675.1729" gradientTransform="matrix(0.4796 0.8774 -0.8774 0.4796 5408.4492 2351.5977)">
						<stop  offset="0" style="stop-color:#09005D"/>
						<stop  offset="1" style="stop-color:#1A0F91"/>
					</linearGradient>
					<path fill="url(#SVGID_61_)" d="M1735.947,1161.251l19.949,135.354l-39.19-131.083c-2.036-6.809,3.568-13.477,10.626-12.642
						l0,0C1731.766,1153.403,1735.296,1156.835,1735.947,1161.251z"/>
					
						<linearGradient id="SVGID_62_" gradientUnits="userSpaceOnUse" x1="-2695.9663" y1="2697.0068" x2="-2665.8259" y2="2697.0068" gradientTransform="matrix(0.4796 0.8774 -0.8774 0.4796 5408.4492 2351.5977)">
						<stop  offset="0" style="stop-color:#09005D"/>
						<stop  offset="1" style="stop-color:#1A0F91"/>
					</linearGradient>
					<circle fill="url(#SVGID_62_)" cx="1756.338" cy="1292.863" r="15.068"/>
				</g>
				<g>
					
						<linearGradient id="SVGID_63_" gradientUnits="userSpaceOnUse" x1="-2756.8447" y1="2178.0322" x2="-2625.5137" y2="2178.0322" gradientTransform="matrix(0.4796 0.8774 -0.8774 0.4796 5408.4492 2351.5977)">
						<stop  offset="0" style="stop-color:#09005D"/>
						<stop  offset="1" style="stop-color:#1A0F91"/>
					</linearGradient>
					<path fill="url(#SVGID_63_)" d="M2187.392,981.12l54.821,109.269l-69.953-100.258c-3.634-5.208-0.745-12.434,5.478-13.702l0,0
						C2181.646,975.632,2185.603,977.556,2187.392,981.12z"/>
					
						<linearGradient id="SVGID_64_" gradientUnits="userSpaceOnUse" x1="-2642.1973" y1="2172.5215" x2="-2615.2607" y2="2172.5215" gradientTransform="matrix(0.4796 0.8774 -0.8774 0.4796 5408.4492 2351.5977)">
						<stop  offset="0" style="stop-color:#09005D"/>
						<stop  offset="1" style="stop-color:#1A0F91"/>
					</linearGradient>
					<circle fill="url(#SVGID_64_)" cx="2241.541" cy="1087.092" r="13.464"/>
				</g>
				<g>
					
						<linearGradient id="SVGID_65_" gradientUnits="userSpaceOnUse" x1="-2753.052" y1="2272.5586" x2="-2621.7471" y2="2272.5586" gradientTransform="matrix(0.4796 0.8774 -0.8774 0.4796 5408.4492 2351.5977)">
						<stop  offset="0" style="stop-color:#09005D"/>
						<stop  offset="1" style="stop-color:#1A0F91"/>
					</linearGradient>
					<path fill="url(#SVGID_65_)" d="M2106.252,1029.739l55.421,108.966l-70.503-99.871c-3.663-5.188-0.814-12.431,5.401-13.732l0,0
						C2100.476,1024.283,2104.443,1026.185,2106.252,1029.739z"/>
					
						<linearGradient id="SVGID_66_" gradientUnits="userSpaceOnUse" x1="-2638.4368" y1="2266.3906" x2="-2611.5" y2="2266.3906" gradientTransform="matrix(0.4796 0.8774 -0.8774 0.4796 5408.4492 2351.5977)">
						<stop  offset="0" style="stop-color:#09005D"/>
						<stop  offset="1" style="stop-color:#1A0F91"/>
					</linearGradient>
					<circle fill="url(#SVGID_66_)" cx="2160.983" cy="1135.411" r="13.464"/>
				</g>
				<g>
					
						<linearGradient id="SVGID_67_" gradientUnits="userSpaceOnUse" x1="-2771.8965" y1="2359.0771" x2="-2640.5811" y2="2359.0771" gradientTransform="matrix(0.4796 0.8774 -0.8774 0.4796 5408.4492 2351.5977)">
						<stop  offset="0" style="stop-color:#09005D"/>
						<stop  offset="1" style="stop-color:#1A0F91"/>
					</linearGradient>
					<path fill="url(#SVGID_67_)" d="M2021.311,1054.716l55.196,109.08l-70.298-100.018c-3.651-5.195-0.788-12.432,5.431-13.721l0,0
						C2015.545,1049.248,2019.509,1051.157,2021.311,1054.716z"/>
					
						<linearGradient id="SVGID_68_" gradientUnits="userSpaceOnUse" x1="-2657.2693" y1="2353.1563" x2="-2630.3325" y2="2353.1563" gradientTransform="matrix(0.4796 0.8774 -0.8774 0.4796 5408.4492 2351.5977)">
						<stop  offset="0" style="stop-color:#09005D"/>
						<stop  offset="1" style="stop-color:#1A0F91"/>
					</linearGradient>
					<circle fill="url(#SVGID_68_)" cx="2075.823" cy="1160.5" r="13.464"/>
				</g>
				<g>
					
						<linearGradient id="SVGID_69_" gradientUnits="userSpaceOnUse" x1="-2775.5596" y1="2454.5195" x2="-2644.3682" y2="2454.5195" gradientTransform="matrix(0.4796 0.8774 -0.8774 0.4796 5408.4492 2351.5977)">
						<stop  offset="0" style="stop-color:#09005D"/>
						<stop  offset="1" style="stop-color:#1A0F91"/>
					</linearGradient>
					<path fill="url(#SVGID_69_)" d="M1935.731,1097.118l57.384,107.945l-72.299-98.58c-3.756-5.121-1.039-12.414,5.152-13.828l0,0
						C1929.857,1091.767,1933.859,1093.596,1935.731,1097.118z"/>
					
						<linearGradient id="SVGID_70_" gradientUnits="userSpaceOnUse" x1="-2661.0759" y1="2446.1953" x2="-2634.1389" y2="2446.1953" gradientTransform="matrix(0.4796 0.8774 -0.8774 0.4796 5408.4492 2351.5977)">
						<stop  offset="0" style="stop-color:#09005D"/>
						<stop  offset="1" style="stop-color:#1A0F91"/>
					</linearGradient>
					<circle fill="url(#SVGID_70_)" cx="1992.365" cy="1201.782" r="13.464"/>
				</g>
				<g>
					
						<linearGradient id="SVGID_71_" gradientUnits="userSpaceOnUse" x1="-2775.6951" y1="2532.8291" x2="-2644.8398" y2="2532.8291" gradientTransform="matrix(0.4796 0.8774 -0.8774 0.4796 5408.4492 2351.5977)">
						<stop  offset="0" style="stop-color:#09005D"/>
						<stop  offset="1" style="stop-color:#1A0F91"/>
					</linearGradient>
					<path fill="url(#SVGID_71_)" d="M1868.773,1135.129l39.892,115.559l-56.082-108.628c-2.913-5.643,0.905-12.424,7.241-12.857
						l0,0C1863.804,1128.929,1867.472,1131.358,1868.773,1135.129z"/>
					
						<linearGradient id="SVGID_72_" gradientUnits="userSpaceOnUse" x1="-2661.365" y1="2541.6953" x2="-2634.4292" y2="2541.6953" gradientTransform="matrix(0.4796 0.8774 -0.8774 0.4796 5408.4492 2351.5977)">
						<stop  offset="0" style="stop-color:#09005D"/>
						<stop  offset="1" style="stop-color:#1A0F91"/>
					</linearGradient>
					<circle fill="url(#SVGID_72_)" cx="1908.435" cy="1247.33" r="13.463"/>
				</g>
				<g>
					
						<linearGradient id="SVGID_73_" gradientUnits="userSpaceOnUse" x1="-2778.9431" y1="2630.6504" x2="-2649.4063" y2="2630.6504" gradientTransform="matrix(0.4796 0.8774 -0.8774 0.4796 5408.4492 2351.5977)">
						<stop  offset="0" style="stop-color:#09005D"/>
						<stop  offset="1" style="stop-color:#1A0F91"/>
					</linearGradient>
					<path fill="url(#SVGID_73_)" d="M1785.831,1177.549l30.575,118.365l-47.265-112.744c-2.456-5.856,1.891-12.313,8.241-12.241
						l0,0C1781.37,1170.974,1784.833,1173.687,1785.831,1177.549z"/>
					
						<linearGradient id="SVGID_74_" gradientUnits="userSpaceOnUse" x1="-2665.8093" y1="2644.1113" x2="-2638.8743" y2="2644.1113" gradientTransform="matrix(0.4796 0.8774 -0.8774 0.4796 5408.4492 2351.5977)">
						<stop  offset="0" style="stop-color:#09005D"/>
						<stop  offset="1" style="stop-color:#1A0F91"/>
					</linearGradient>
					<circle fill="url(#SVGID_74_)" cx="1816.443" cy="1292.549" r="13.464"/>
				</g>
				<g>
					
						<linearGradient id="SVGID_75_" gradientUnits="userSpaceOnUse" x1="-2654.5217" y1="2305.834" x2="-2559.3096" y2="2305.834" gradientTransform="matrix(0.4796 0.8774 -0.8774 0.4796 5408.4492 2351.5977)">
						<stop  offset="0" style="stop-color:#09005D"/>
						<stop  offset="1" style="stop-color:#1A0F91"/>
					</linearGradient>
					<path fill="url(#SVGID_75_)" d="M2120.25,1131.205l43.869,77.313l-54.523-70.208c-2.832-3.647-1.003-9.002,3.469-10.154l0,0
						C2115.873,1127.433,2118.818,1128.683,2120.25,1131.205z"/>
					
						<linearGradient id="SVGID_76_" gradientUnits="userSpaceOnUse" x1="-2571.4756" y1="2298.1055" x2="-2551.8892" y2="2298.1055" gradientTransform="matrix(0.4796 0.8774 -0.8774 0.4796 5408.4492 2351.5977)">
						<stop  offset="0" style="stop-color:#09005D"/>
						<stop  offset="1" style="stop-color:#1A0F91"/>
					</linearGradient>
					<circle fill="url(#SVGID_76_)" cx="2163.509" cy="1206.148" r="9.79"/>
				</g>
				<g>
					
						<linearGradient id="SVGID_77_" gradientUnits="userSpaceOnUse" x1="-2650.7559" y1="2219.1865" x2="-2555.543" y2="2219.1865" gradientTransform="matrix(0.4796 0.8774 -0.8774 0.4796 5408.4492 2351.5977)">
						<stop  offset="0" style="stop-color:#09005D"/>
						<stop  offset="1" style="stop-color:#1A0F91"/>
					</linearGradient>
					<path fill="url(#SVGID_77_)" d="M2198.081,1092.953l43.869,77.314l-54.523-70.209c-2.832-3.647-1.003-9.002,3.469-10.154l0,0
						C2193.704,1089.181,2196.649,1090.431,2198.081,1092.953z"/>
					
						<linearGradient id="SVGID_78_" gradientUnits="userSpaceOnUse" x1="-2567.7092" y1="2211.458" x2="-2548.1223" y2="2211.458" gradientTransform="matrix(0.4796 0.8774 -0.8774 0.4796 5408.4492 2351.5977)">
						<stop  offset="0" style="stop-color:#09005D"/>
						<stop  offset="1" style="stop-color:#1A0F91"/>
					</linearGradient>
					<circle fill="url(#SVGID_78_)" cx="2241.34" cy="1167.896" r="9.791"/>
				</g>
				<g>
					
						<linearGradient id="SVGID_79_" gradientUnits="userSpaceOnUse" x1="-2654.8181" y1="2389.8848" x2="-2559.4609" y2="2389.8848" gradientTransform="matrix(0.4796 0.8774 -0.8774 0.4796 5408.4492 2351.5977)">
						<stop  offset="0" style="stop-color:#09005D"/>
						<stop  offset="1" style="stop-color:#1A0F91"/>
					</linearGradient>
					<path fill="url(#SVGID_79_)" d="M2047.402,1171.822l31.379,83.171l-43.004-77.8c-2.234-4.041,0.402-9.049,4.998-9.495l0,0
						C2043.662,1167.418,2046.379,1169.108,2047.402,1171.822z"/>
					
						<linearGradient id="SVGID_80_" gradientUnits="userSpaceOnUse" x1="-2571.5063" y1="2394.9258" x2="-2551.9187" y2="2394.9258" gradientTransform="matrix(0.4796 0.8774 -0.8774 0.4796 5408.4492 2351.5977)">
						<stop  offset="0" style="stop-color:#09005D"/>
						<stop  offset="1" style="stop-color:#1A0F91"/>
					</linearGradient>
					<circle fill="url(#SVGID_80_)" cx="2078.544" cy="1252.557" r="9.791"/>
				</g>
				<g>
					
						<linearGradient id="SVGID_81_" gradientUnits="userSpaceOnUse" x1="-2662.3804" y1="2489.748" x2="-2566.8496" y2="2489.748" gradientTransform="matrix(0.4796 0.8774 -0.8774 0.4796 5408.4492 2351.5977)">
						<stop  offset="0" style="stop-color:#09005D"/>
						<stop  offset="1" style="stop-color:#1A0F91"/>
					</linearGradient>
					<path fill="url(#SVGID_81_)" d="M1956.057,1212.831l34.84,81.782l-46.229-75.928c-2.401-3.944,0.021-9.058,4.595-9.696l0,0
						C1952.135,1208.588,1954.92,1210.163,1956.057,1212.831z"/>
					
						<linearGradient id="SVGID_82_" gradientUnits="userSpaceOnUse" x1="-2578.9331" y1="2491.1475" x2="-2559.3457" y2="2491.1475" gradientTransform="matrix(0.4796 0.8774 -0.8774 0.4796 5408.4492 2351.5977)">
						<stop  offset="0" style="stop-color:#09005D"/>
						<stop  offset="1" style="stop-color:#1A0F91"/>
					</linearGradient>
					<circle fill="url(#SVGID_82_)" cx="1990.558" cy="1292.188" r="9.79"/>
				</g>
				<g>
					
						<linearGradient id="SVGID_83_" gradientUnits="userSpaceOnUse" x1="-2785.022" y1="2019.748" x2="-2705.8301" y2="2019.748" gradientTransform="matrix(0.4796 0.8774 -0.8774 0.4796 5408.4492 2351.5977)">
						<stop  offset="0" style="stop-color:#09005D"/>
						<stop  offset="1" style="stop-color:#1A0F91"/>
					</linearGradient>
					<path fill="url(#SVGID_83_)" d="M2287.174,887.576l76.828,44.715l-82.455-33.212c-4.283-1.725-5.398-7.272-2.115-10.52l0,0
						C2281.494,886.521,2284.668,886.117,2287.174,887.576z"/>
					
						<linearGradient id="SVGID_84_" gradientUnits="userSpaceOnUse" x1="-2717.9763" y1="1991.4795" x2="-2698.3889" y2="1991.4795" gradientTransform="matrix(0.4796 0.8774 -0.8774 0.4796 5408.4492 2351.5977)">
						<stop  offset="0" style="stop-color:#09005D"/>
						<stop  offset="1" style="stop-color:#1A0F91"/>
					</linearGradient>
					<circle fill="url(#SVGID_84_)" cx="2362.282" cy="930.551" r="9.79"/>
				</g>
			</g>
		</g>
		<g>
			<linearGradient id="SVGID_85_" gradientUnits="userSpaceOnUse" x1="1253.1748" y1="2010.8105" x2="2476.269" y2="1731.6257">
				<stop  offset="0" style="stop-color:#FEBBBA"/>
				<stop  offset="1" style="stop-color:#FF928E"/>
			</linearGradient>
			<path fill="url(#SVGID_85_)" d="M1124.433,1887.003c0,0-102.435,223.259-156.179,315.732c0,0-10.674,58.187,0,76.483l9.097,4.043
				l-42.456-1.264c0,0-3.772-78.266-0.826-82.638c2.945-4.372,8.835-4.086,8.835-4.086s18.205-144.226,70.926-175.007
				l51.093-175.979L1124.433,1887.003z"/>
			
				<linearGradient id="SVGID_86_" gradientUnits="userSpaceOnUse" x1="270.8428" y1="1635.5488" x2="176.012" y2="2251.9458" gradientTransform="matrix(-1 0 0 1 1132.0703 0)">
				<stop  offset="0" style="stop-color:#53D8FF"/>
				<stop  offset="1" style="stop-color:#3840F7"/>
			</linearGradient>
			<path fill="url(#SVGID_86_)" d="M995.483,2294.223c0.063,1.024-33.151,0.556-51.195,0.227
				c-6.662-0.122-12.342-4.805-13.761-11.314l-13.626-71.585c-1.295-6.804,3.025-13.411,9.776-14.954l7.605-1.739
				c0,0,10.851,14.884,7.435,28.896c-3.416,14.013-6.455,50.312,2.176,54.54c8.631,4.229,33.459,4.969,33.459,4.969
				S994.916,2285.004,995.483,2294.223z"/>
			
				<linearGradient id="SVGID_87_" gradientUnits="userSpaceOnUse" x1="70.1904" y1="1604.6777" x2="-24.641" y2="2221.0791" gradientTransform="matrix(-1 0 0 1 1132.0703 0)">
				<stop  offset="0" style="stop-color:#53D8FF"/>
				<stop  offset="1" style="stop-color:#3840F7"/>
			</linearGradient>
			<path fill="url(#SVGID_87_)" d="M1221.524,2295.521c3.359,1.914,1.973,7.044-1.893,7.005
				c-30.194-0.304-97.854-1.259-103.865-3.759c-7.762-3.229,2.829-31.12,13.975-40.561l61.543,20.086L1221.524,2295.521z"/>
			<linearGradient id="SVGID_88_" gradientUnits="userSpaceOnUse" x1="1328.6602" y1="2054.5732" x2="2711.2937" y2="1755.4453">
				<stop  offset="0" style="stop-color:#FEBBBA"/>
				<stop  offset="1" style="stop-color:#FF928E"/>
			</linearGradient>
			<path fill="url(#SVGID_88_)" d="M1240.626,1872.765c0,0-66.195,320.231-84.921,382.698l44.298,27.799
				c0,0-22.199-3.775-38.66-4.969c-16.462-1.192-31.604-20.086-31.604-20.086l5.307-8.464c0,0,16.601-318.488,12.559-354.653
				L1240.626,1872.765z"/>
			
				<linearGradient id="SVGID_89_" gradientUnits="userSpaceOnUse" x1="-1926.0313" y1="1397.7529" x2="-2257.1423" y2="1884.0728" gradientTransform="matrix(-1 0 0 1 -783.5234 0)">
				<stop  offset="0" style="stop-color:#4F52FF"/>
				<stop  offset="1" style="stop-color:#4042E2"/>
			</linearGradient>
			<path fill="url(#SVGID_89_)" d="M1267.695,1365.044c-25.374,7.036-111.332,29.649-164.996,28.726l32.948,185.931l-2.622,30.325
				l107.424-0.48c0,0,30.24-70.231,54.1-105.246c6.892-10.113,1.763-22.175-2.143-33.772l5.366-3.573
				c5.46-3.635,7.829-10.464,5.79-16.699l-26.159-80.037C1276.045,1366.183,1271.797,1363.906,1267.695,1365.044z"/>
			
				<linearGradient id="SVGID_90_" gradientUnits="userSpaceOnUse" x1="-206.459" y1="1577.0723" x2="149.1554" y2="1978.1262" gradientTransform="matrix(-1 0 0 1 1132.0703 0)">
				<stop  offset="0" style="stop-color:#09005D"/>
				<stop  offset="1" style="stop-color:#1A0F91"/>
			</linearGradient>
			<path fill="url(#SVGID_90_)" d="M1249.058,1593.675l-2.113,18.373c0,0,30.357,90.916-15.18,303.259
				c0,0-98.623,27.939-179.681-38.916c0,0,22.866-200.422,29.111-209.756c31.107-46.5,51.831-56.609,51.831-56.609l0.934-20.071
				C1133.96,1589.954,1220.657,1605.629,1249.058,1593.675z"/>
			
				<linearGradient id="SVGID_91_" gradientUnits="userSpaceOnUse" x1="-74.9409" y1="1352.6465" x2="-7.0845" y2="1352.6465" gradientTransform="matrix(-1 0 0 1 1132.0703 0)">
				<stop  offset="0" style="stop-color:#FEBBBA"/>
				<stop  offset="1" style="stop-color:#FF928E"/>
			</linearGradient>
			<path fill="url(#SVGID_91_)" d="M1207.006,1380.03c0.377-0.498-22.427-68.849-22.427-68.849l-32.665,2.962l-12.76,77.541
				C1139.155,1391.685,1190.346,1402.018,1207.006,1380.03z"/>
			
				<linearGradient id="SVGID_92_" gradientUnits="userSpaceOnUse" x1="2719.6709" y1="1093.7988" x2="3213.5815" y2="1127.3848" gradientTransform="matrix(-0.918 -0.3966 -0.3966 0.918 4060.4292 1317.7686)">
				<stop  offset="0" style="stop-color:#FEBBBA"/>
				<stop  offset="1" style="stop-color:#FF928E"/>
			</linearGradient>
			<path fill="url(#SVGID_92_)" d="M1209.989,1210.76c1.462,2.109,52.457,54.58,11.278,113.267
				c-2.433,3.468-6.369,5.598-10.605,5.647c-10.865,0.128-33.482-1.386-55.909-13.903c-31.092-17.354-27.888-83.307-19.848-99.429
				C1142.946,1200.22,1195.503,1189.859,1209.989,1210.76z"/>
			
				<linearGradient id="SVGID_93_" gradientUnits="userSpaceOnUse" x1="2800.8467" y1="1064.0273" x2="2626.9912" y2="1411.7379" gradientTransform="matrix(-0.918 -0.3966 -0.3966 0.918 4060.4292 1317.7686)">
				<stop  offset="0" style="stop-color:#09005D"/>
				<stop  offset="1" style="stop-color:#1A0F91"/>
			</linearGradient>
			<path fill="url(#SVGID_93_)" d="M1201.92,1177.543c1.54,0.919,30.629,27.638,2.93,45.114
				c-27.7,17.477-40.379,29.331-37.055,43.697c3.029,13.087,21.683,14.432,11.347,34.473c-2.069,4.012-2.014,8.798,0.413,12.603
				c10.808,16.938,34.327,64.86-22.202,94.298c-4.594,2.393-7.413,7.218-6.892,12.372c2.435,24.067,0.604,90.702-95.249,86.696
				c-94.719-3.958-101.111-69.754-100.137-94.526c0.211-5.358-3.096-10.123-8.113-12.015c-9.112-3.436-21.124-10.388-15.387-22.069
				c3.484-7.096,10.813-11.637,18.406-14.537c7.516-2.867,10.37-12.344,5.524-18.767c-3.66-4.852-6.094-11.009-5.005-18.505
				c2.958-20.377,36.362-70.695,92.659-57.348c4.695,1.114,11.031-1.004,13.561-5.113c0.037-0.062,0.075-0.122,0.114-0.183
				c2.533-3.938,2.972-8.894,0.604-12.933c-5.705-9.734-11.086-26.695,6.157-42.717c15.293-14.21,32.646-13.735,44.453-10.874
				c6.932,1.681,13.811-2.589,15.218-9.581C1127.099,1168.573,1142.405,1142.019,1201.92,1177.543z"/>
			
				<linearGradient id="SVGID_94_" gradientUnits="userSpaceOnUse" x1="-569.2666" y1="1063.6699" x2="-345.8989" y2="1063.6699" gradientTransform="matrix(0.9607 0.2777 -0.2777 0.9607 2135.4304 457.6846)">
				<stop  offset="0" style="stop-color:#FEBBBA"/>
				<stop  offset="1" style="stop-color:#FF928E"/>
			</linearGradient>
			<path fill="url(#SVGID_94_)" d="M1270.434,1403.564c-0.841-9.772,8.125-17.436,17.663-15.149
				c24.263,5.817,68.066,10.296,113.483-14.754c29.459-16.248,59.545-97.641,59.545-97.641s15.958-37.151,25.595-34.366
				s-6.963,24.091-6.963,24.091s19.912,21.417,49.573,9.107c29.66-12.309-13.174,27.516-40.049,30.188
				c0,0-45.604,192.488-204.928,149.645c-5.835-1.568-10.094-6.637-10.611-12.657L1270.434,1403.564z"/>
		</g>
	</g>
</g>
</svg>
