<svg id="undraw_schedule_meeting_52nu" xmlns="http://www.w3.org/2000/svg" width="130.987" height="95.777" viewBox="0 0 130.987 95.777">
  <path id="Path_338" data-name="Path 338" d="M651.994,412.9a1.6,1.6,0,0,1-1.6-1.5l-.238-3.63a1.6,1.6,0,0,1,1.494-1.7L680.1,404.2a3.421,3.421,0,0,1,.447,6.828L652.1,412.895Q652.048,412.9,651.994,412.9Z" transform="translate(-572.325 -367.575)" fill="#796ac8"/>
  <path id="Path_339" data-name="Path 339" d="M674.9,412.351a1.6,1.6,0,0,1-1.6-1.543l-.2-5.423a1.6,1.6,0,0,1,1.541-1.661l23.39-.874a1.6,1.6,0,0,1,1.661,1.541l.2,5.423a1.6,1.6,0,0,1-1.541,1.661l-23.39.874Z" transform="translate(-589.619 -366.559)" fill="#2f2e41"/>
  <path id="Path_340" data-name="Path 340" d="M775.786,541.907h-3.638a1.6,1.6,0,0,1-1.6-1.6V509.982a1.6,1.6,0,0,1,1.6-1.6h3.638a1.6,1.6,0,0,1,1.6,1.6V540.3A1.6,1.6,0,0,1,775.786,541.907Z" transform="translate(-663.099 -446.13)" fill="#2f2e41"/>
  <path id="Path_341" data-name="Path 341" d="M738.651,541.907h-3.638a1.6,1.6,0,0,1-1.6-1.6V509.982a1.6,1.6,0,0,1,1.6-1.6h3.638a1.6,1.6,0,0,1,1.6,1.6V540.3A1.6,1.6,0,0,1,738.651,541.907Z" transform="translate(-635.099 -446.13)" fill="#2f2e41"/>
  <circle id="Ellipse_60" data-name="Ellipse 60" cx="12.572" cy="12.572" r="12.572" transform="translate(94.589 5.461)" fill="#796ac8"/>
  <path id="Path_342" data-name="Path 342" d="M736.568,320.962a2.982,2.982,0,0,1-1.089-.639,2.005,2.005,0,0,1-.586-1.587,1.349,1.349,0,0,1,.6-1.038,1.744,1.744,0,0,1,1.663-.019l-.023-4.908.493,0,.027,5.77-.38-.239a1.493,1.493,0,0,0-1.514-.186.866.866,0,0,0-.375.67,1.515,1.515,0,0,0,.436,1.183,4.075,4.075,0,0,0,2.244.828l-.078.487A8.126,8.126,0,0,1,736.568,320.962Z" transform="translate(-636.212 -298.637)" fill="#2f2e41"/>
  <rect id="Rectangle_152" data-name="Rectangle 152" width="0.493" height="2.655" transform="translate(95.775 14.374) rotate(-82.477)" fill="#2f2e41"/>
  <rect id="Rectangle_153" data-name="Rectangle 153" width="0.493" height="2.655" transform="translate(104.084 15.471) rotate(-82.477)" fill="#2f2e41"/>
  <path id="Path_343" data-name="Path 343" d="M719.458,430.853h0a2.1,2.1,0,0,1-2.1-2.1s3.34-18.124,5.249-28.747a8.948,8.948,0,0,1,8.806-7.366h0a11.334,11.334,0,0,1,11.334,11.334v3.579a23.294,23.294,0,0,1-23.294,23.294Z" transform="translate(-622.999 -358.865)" fill="#2f2e41"/>
  <path id="Path_344" data-name="Path 344" d="M769.83,440.647a1.6,1.6,0,0,1-1.471.936l-3.638-.032a1.6,1.6,0,0,1-1.588-1.616l.247-28.5a3.421,3.421,0,0,1,6.842.059l-.247,28.5A1.594,1.594,0,0,1,769.83,440.647Z" transform="translate(-657.509 -370.473)" fill="#796ac8"/>
  <path id="Path_345" data-name="Path 345" d="M768.467,430.8a1.6,1.6,0,0,1-1.471.936l-6.214-.054a1.6,1.6,0,0,1-1.588-1.616l.2-23.405a1.6,1.6,0,0,1,1.616-1.588l6.214.054a1.6,1.6,0,0,1,1.588,1.616l-.2,23.405A1.6,1.6,0,0,1,768.467,430.8Z" transform="translate(-654.54 -368.234)" fill="#2f2e41"/>
  <path id="Path_346" data-name="Path 346" d="M726.8,265.949c-1.959.333-4.146.713-6.013-.2a3.471,3.471,0,0,1-2.122-3.821c.712-3.34,4.535-4.816,7.608-4.518a8.162,8.162,0,0,1,4.829,2.177.447.447,0,0,0,.755-.313,3.083,3.083,0,0,1,2-2.725,7.276,7.276,0,0,1,4.363-.062,19.371,19.371,0,0,1,14.965,16.2,19.155,19.155,0,0,1-.615,8.2,10.647,10.647,0,0,1-4.391,6.245c-2.043,1.2-5.014,1.51-6.9-.175-1.51-1.35-2.191-3.873-.952-5.62a3.459,3.459,0,0,1,3.255-1.407,3.1,3.1,0,0,1,2.5,2.222,3.037,3.037,0,0,1-1.055,3,2.949,2.949,0,0,1-4.2-.8c-.3-.482-1.065-.039-.763.446a3.916,3.916,0,0,0,3.22,1.806,3.62,3.62,0,0,0,3.187-1.785,3.778,3.778,0,0,0,.112-3.779,4.048,4.048,0,0,0-3.374-2.02,4.4,4.4,0,0,0-3.639,1.878,4.674,4.674,0,0,0-.681,3.428,5.672,5.672,0,0,0,1.667,3.167,5.858,5.858,0,0,0,3.715,1.511,8.509,8.509,0,0,0,7.326-3.956,16.787,16.787,0,0,0,2.637-8.6,20.278,20.278,0,0,0-6.82-16.24,20.608,20.608,0,0,0-7.48-4.18c-2.731-.837-6.544-1.446-8.388,1.344a3.4,3.4,0,0,0-.567,1.908l.755-.313a9.3,9.3,0,0,0-10.194-1.627,6.732,6.732,0,0,0-3.644,4.056,4.241,4.241,0,0,0,1.841,4.773c2.178,1.445,4.88,1.045,7.305.633.56-.1.322-.947-.235-.852Z" transform="translate(-623.265 -255.324)" fill="#2f2e41"/>
  <path id="Path_347" data-name="Path 347" d="M409.645,361.82H338.062a4.31,4.31,0,0,1-4.3-4.3v-42.8a4.31,4.31,0,0,1,4.3-4.3h71.584a4.31,4.31,0,0,1,4.3,4.3v42.8A4.31,4.31,0,0,1,409.645,361.82Zm-71.584-50.674a3.571,3.571,0,0,0-3.567,3.567v42.8a3.571,3.571,0,0,0,3.567,3.567h71.584a3.571,3.571,0,0,0,3.567-3.567v-42.8a3.571,3.571,0,0,0-3.567-3.567Z" transform="translate(-333.757 -296.858)" fill="#3f3d56"/>
  <path id="Path_348" data-name="Path 348" d="M380.832,332.558a3.075,3.075,0,1,1,3.075-3.075A3.075,3.075,0,0,1,380.832,332.558Zm0-5.412a2.337,2.337,0,1,0,2.337,2.337A2.337,2.337,0,0,0,380.832,327.146Z" transform="translate(-366.933 -308.922)" fill="#3f3d56"/>
  <path id="Path_349" data-name="Path 349" d="M591.832,332.558a3.075,3.075,0,1,1,3.075-3.075A3.075,3.075,0,0,1,591.832,332.558Zm0-5.412a2.337,2.337,0,1,0,2.337,2.337A2.337,2.337,0,0,0,591.832,327.146Z" transform="translate(-526.029 -308.922)" fill="#3f3d56"/>
  <path id="Path_350" data-name="Path 350" d="M372.631,390.462H359.348a2.093,2.093,0,0,1-2.091-2.091V380.5a2.093,2.093,0,0,1,2.091-2.091h13.284a2.093,2.093,0,0,1,2.091,2.091v7.872A2.093,2.093,0,0,1,372.631,390.462Z" transform="translate(-351.476 -348.13)" fill="#e6e6e6"/>
  <path id="Path_351" data-name="Path 351" d="M476.631,390.462H463.348a2.093,2.093,0,0,1-2.091-2.091V380.5a2.093,2.093,0,0,1,2.091-2.091h13.284a2.093,2.093,0,0,1,2.091,2.091v7.872A2.093,2.093,0,0,1,476.631,390.462Z" transform="translate(-429.893 -348.13)" fill="#e6e6e6"/>
  <path id="Path_352" data-name="Path 352" d="M568.1,379.408a1.847,1.847,0,0,0-1.845,1.845v7.872a1.847,1.847,0,0,0,1.845,1.845h13.284a1.847,1.847,0,0,0,1.845-1.845v-7.872a1.847,1.847,0,0,0-1.845-1.845Z" transform="translate(-509.064 -348.884)" fill="#e6e6e6"/>
  <path id="Path_353" data-name="Path 353" d="M373.131,454.462H359.848a2.093,2.093,0,0,1-2.091-2.091V444.5a2.093,2.093,0,0,1,2.091-2.091h13.284a2.093,2.093,0,0,1,2.091,2.091v7.872A2.093,2.093,0,0,1,373.131,454.462Z" transform="translate(-351.853 -396.387)" fill="#e6e6e6"/>
  <path id="Path_354" data-name="Path 354" d="M477.132,454.462H463.848a2.093,2.093,0,0,1-2.091-2.091V444.5a2.093,2.093,0,0,1,2.091-2.091h13.284a2.093,2.093,0,0,1,2.091,2.091v7.872A2.093,2.093,0,0,1,477.132,454.462Z" transform="translate(-430.27 -396.387)" fill="#e6e6e6"/>
  <path id="Path_355" data-name="Path 355" d="M581.131,454.462H567.848a2.093,2.093,0,0,1-2.091-2.091V444.5a2.093,2.093,0,0,1,2.091-2.091h13.284a2.093,2.093,0,0,1,2.091,2.091v7.872A2.093,2.093,0,0,1,581.131,454.462Z" transform="translate(-508.687 -396.387)" fill="#e6e6e6"/>
  <path id="Path_356" data-name="Path 356" d="M387.618,299.43a.862.862,0,0,1-.861-.861v-12.3a.861.861,0,0,1,1.722,0v12.3a.862.862,0,0,1-.861.861Z" transform="translate(-373.719 -278.008)" fill="#3f3d56"/>
  <path id="Path_357" data-name="Path 357" d="M598.618,299.43a.862.862,0,0,1-.861-.861v-12.3a.861.861,0,0,1,1.722,0v12.3a.862.862,0,0,1-.861.861Z" transform="translate(-532.815 -278.008)" fill="#3f3d56"/>
  <path id="Path_395" data-name="Path 395" d="M373.966,378.348a1.67,1.67,0,0,1-1-.334l-.018-.013-3.784-2.894a1.681,1.681,0,0,1,2.046-2.669l2.451,1.879,5.791-7.555a1.681,1.681,0,0,1,2.356-.311h0l-.036.05.037-.05a1.683,1.683,0,0,1,.311,2.357l-6.812,8.882a1.682,1.682,0,0,1-1.337.656Z" transform="translate(-359.955 -338.853)" fill="#796ac8"/>
  <path id="Path_395-2" data-name="Path 395" d="M480.966,441.348a1.67,1.67,0,0,1-1-.334l-.018-.013-3.784-2.894a1.681,1.681,0,1,1,2.046-2.669l2.451,1.879,5.791-7.555a1.681,1.681,0,0,1,2.356-.311h0l-.036.05.037-.05a1.683,1.683,0,0,1,.311,2.357l-6.812,8.882a1.682,1.682,0,0,1-1.337.656Z" transform="translate(-440.634 -386.355)" fill="#796ac8"/>
  <path id="Path_395-3" data-name="Path 395" d="M581.966,378.348a1.67,1.67,0,0,1-1-.334l-.018-.013-3.784-2.894a1.681,1.681,0,0,1,2.046-2.669l2.451,1.879,5.791-7.555a1.681,1.681,0,0,1,2.356-.311h0l-.036.05.037-.05a1.683,1.683,0,0,1,.311,2.357l-6.812,8.882a1.682,1.682,0,0,1-1.337.656Z" transform="translate(-516.789 -338.853)" fill="#796ac8"/>
</svg>
