<svg id="undraw_web_search_re_efla" xmlns="http://www.w3.org/2000/svg" width="132.806" height="104.555" viewBox="0 0 132.806 104.555">
  <rect id="Rectangle_205" data-name="Rectangle 205" width="120.514" height="77.182" transform="translate(0.051 0.068)" fill="#e6e6e6"/>
  <rect id="Rectangle_206" data-name="Rectangle 206" width="113.622" height="62.936" transform="translate(3.498 9.749)" fill="#fff"/>
  <rect id="Rectangle_207" data-name="Rectangle 207" width="120.514" height="5.12" fill="#796ac8"/>
  <circle id="Ellipse_80" data-name="Ellipse 80" cx="0.949" cy="0.949" r="0.949" transform="translate(2.856 1.669)" fill="#fff"/>
  <circle id="Ellipse_81" data-name="Ellipse 81" cx="0.949" cy="0.949" r="0.949" transform="translate(6.458 1.669)" fill="#fff"/>
  <circle id="Ellipse_82" data-name="Ellipse 82" cx="0.949" cy="0.949" r="0.949" transform="translate(10.06 1.669)" fill="#fff"/>
  <rect id="Rectangle_208" data-name="Rectangle 208" width="29.196" height="49.876" transform="translate(13.822 16.279)" fill="#e6e6e6"/>
  <rect id="Rectangle_209" data-name="Rectangle 209" width="24.33" height="13.729" transform="translate(48.057 16.279)" fill="#796ac8"/>
  <rect id="Rectangle_210" data-name="Rectangle 210" width="24.33" height="14.771" transform="translate(48.057 33.831)" fill="#e6e6e6"/>
  <rect id="Rectangle_211" data-name="Rectangle 211" width="24.33" height="13.729" transform="translate(48.057 52.426)" fill="#e6e6e6"/>
  <rect id="Rectangle_212" data-name="Rectangle 212" width="29.196" height="21.736" transform="translate(77.6 16.279)" fill="#e6e6e6"/>
  <rect id="Rectangle_213" data-name="Rectangle 213" width="29.196" height="21.736" transform="translate(77.6 44.419)" fill="#e6e6e6"/>
  <path id="Path_456" data-name="Path 456" d="M755.712,334.593v-4.679a6.27,6.27,0,1,1,12.541,0v4.679a.843.843,0,0,1-.842.842H756.554A.843.843,0,0,1,755.712,334.593Z" transform="translate(-660.164 -295.017)" fill="#2f2e41"/>
  <path id="Path_457" data-name="Path 457" d="M569.087,499.742l-2.212.612-3.413-8.239,3.264-.9Z" transform="translate(-457.997 -399.27)" fill="#ffb8b8"/>
  <path id="Path_458" data-name="Path 458" d="M2.786,0H7.212V2.786H0A2.786,2.786,0,0,1,2.786,0Z" transform="translate(104.439 101.632) rotate(-15.47)" fill="#2f2e41"/>
  <path id="Path_459" data-name="Path 459" d="M455.622,507.438h-2.295l-1.092-8.851h3.387Z" transform="translate(-367.589 -405.265)" fill="#ffb8b8"/>
  <path id="Path_460" data-name="Path 460" d="M437.21,542.372h4.426v2.786h-7.212A2.786,2.786,0,0,1,437.21,542.372Z" transform="translate(-353.111 -440.854)" fill="#2f2e41"/>
  <path id="Path_461" data-name="Path 461" d="M699.132,439.149a1.882,1.882,0,0,0,2.881.172l6.1,2.744-.555-3.431-5.708-2.079a1.892,1.892,0,0,0-2.719,2.6Z" transform="translate(-613.866 -386.441)" fill="#ffb8b8"/>
  <path id="Path_462" data-name="Path 462" d="M726.925,456.629a12.373,12.373,0,0,1-5.568-1.135,7.19,7.19,0,0,1-3.689-4.411c-.869-2.751.227-5.454,1.286-8.068a18.028,18.028,0,0,0,1.438-4.658l.056-.535c.251-2.4.467-4.482,1.665-5.261a2.913,2.913,0,0,1,2.553-.071l10.3,3.347L734.59,455.4l-.063.021A27.36,27.36,0,0,1,726.925,456.629Z" transform="translate(-628.985 -383.288)" fill="#2f2e41"/>
  <path id="Path_463" data-name="Path 463" d="M742.032,396.44s5.054-1.5,8.984-.936c0,0-2.246,12.353-1.5,16.471s-13.009,1.591-10.2-2.34l.936-4.679a3.122,3.122,0,0,1-.187-4.118Z" transform="translate(-646.531 -353.325)" fill="#6c63ff"/>
  <path id="Path_464" data-name="Path 464" d="M715.134,427.955l-6.228-1.168,2.174-16.735c.146-.467,3.515-11.07,5.045-11.644a26.117,26.117,0,0,1,3.4-.945l.222-.044-1.249,1.873-4.972,11.914Z" transform="translate(-622.118 -354.985)" fill="#2f2e41"/>
  <path id="Path_465" data-name="Path 465" d="M689.9,510.2l-8.047-1.341,4.516-18.441,6.72-25.219.066.448c.005.033.633,3.328,9.948,1.866l.082-.013.023.08,11.259,39.781-9.17,1.528-8.363-29.025Z" transform="translate(-600.125 -410.074)" fill="#2f2e41"/>
  <path id="Path_466" data-name="Path 466" d="M784.436,428.506l.005-.142c.006-.157.559-15.792.374-22.08a34.684,34.684,0,0,1,1.878-11.828l.017-.044.045-.013c2.643-.755,4.936,1.5,4.958,1.521l.032.032-.753,6.21,3.222,22.581Z" transform="translate(-683.512 -352.404)" fill="#2f2e41"/>
  <circle id="Ellipse_83" data-name="Ellipse 83" cx="4.597" cy="4.597" r="4.597" transform="translate(95.933 31.115)" fill="#ffb8b8"/>
  <path id="Path_467" data-name="Path 467" d="M747.787,337.6a4.966,4.966,0,0,1,4.96-4.96h.936a4.966,4.966,0,0,1,4.96,4.96v.094h-1.978l-.675-1.889-.135,1.889h-1.022l-.34-.953-.068.953h-6.638Z" transform="translate(-653.722 -302.332)" fill="#2f2e41"/>
  <path id="Path_468" data-name="Path 468" d="M779.206,352.294a.83.83,0,0,1-.066-.881c.992-1.886,2.38-5.372.537-7.521l-.133-.154H784.9v8.034l-4.861.858a.862.862,0,0,1-.149.013.839.839,0,0,1-.68-.347Z" transform="translate(-679.129 -311.35)" fill="#2f2e41"/>
  <path id="Path_469" data-name="Path 469" d="M484.289,186.376a25.272,25.272,0,1,0,1.433,37.323l31,26.157a2.329,2.329,0,1,0,3.007-3.557l0,0-31-26.157A25.274,25.274,0,0,0,484.289,186.376Zm-2,31.244a18.934,18.934,0,1,1-2.26-26.681h0a18.934,18.934,0,0,1,2.26,26.681Z" transform="translate(-405.755 -178.6)" fill="#3f3d56"/>
  <path id="Path_470" data-name="Path 470" d="M473.693,280.719a18.935,18.935,0,0,1-3.213-25.454q-.543.547-1.05,1.146a18.934,18.934,0,1,0,28.942,24.421q.506-.6.952-1.228A18.935,18.935,0,0,1,473.693,280.719Z" transform="translate(-423.838 -239.437)" opacity="0.3"/>
  <path id="Path_471" data-name="Path 471" d="M783.9,470.128a1.882,1.882,0,0,0,2.325-1.709l6.445-1.789-2.62-2.284-5.719,2.049a1.892,1.892,0,0,0-.432,3.733Z" transform="translate(-681.891 -409.384)" fill="#ffb8b8"/>
  <path id="Path_472" data-name="Path 472" d="M802.822,419.268l-.392-3.726,5.384-2.97-3.51-4.249.573-4.773,1.426-.611.044.057c.672.865,6.571,8.475,6.571,9.416,0,.966-1.128,3.8-2.672,4.576a67.419,67.419,0,0,1-7.318,2.253Z" transform="translate(-698.138 -359.471)" fill="#2f2e41"/>
  <path id="Path_473" data-name="Path 473" d="M643.266,727.671H571.953a.187.187,0,1,1,0-.374h71.313a.187.187,0,1,1,0,.374Z" transform="translate(-510.648 -623.117)" fill="#ccc"/>
</svg>
