<svg xmlns="http://www.w3.org/2000/svg" width="29.446" height="23.926" viewBox="0 0 29.446 23.926"><path d="M26.686,23.925a2.748,2.748,0,0,1-2.761-2.761v-9.2a5.15,5.15,0,0,1,1.294-2.9q1.294-1.7,2.387-1.7a1.161,1.161,0,0,1,.935.489A3.08,3.08,0,0,1,29.1,9.116q.173.776.258,1.481a11.3,11.3,0,0,1,.086,1.366v9.2a2.748,2.748,0,0,1-2.761,2.761ZM20.244,11.042H9.2A1.756,1.756,0,0,1,7.893,10.5,1.789,1.789,0,0,1,7.362,9.2L5.521,1.84A1.78,1.78,0,0,1,6.053.532,1.774,1.774,0,0,1,7.362,0H22.085a1.769,1.769,0,0,1,1.294.546,1.769,1.769,0,0,1,.546,1.294L22.085,9.2a1.866,1.866,0,0,1-1.84,1.84ZM5.521,21.165a2.664,2.664,0,0,1-.8,1.956,2.658,2.658,0,0,1-1.956.8A2.667,2.667,0,0,1,.8,23.12,2.661,2.661,0,0,1,0,21.165v-9.2A13.439,13.439,0,0,1,.072,10.6,11.274,11.274,0,0,1,.33,9.115,3.209,3.209,0,0,1,.905,7.85a1.161,1.161,0,0,1,.935-.488q1.093,0,2.387,1.7a5.15,5.15,0,0,1,1.294,2.9ZM9.2,12.883H20.244a1.793,1.793,0,0,1,1.294.532,1.737,1.737,0,0,1,.546,1.294,1.866,1.866,0,0,1-1.84,1.855H9.2a1.756,1.756,0,0,1-1.309-.546,1.806,1.806,0,0,1-.532-1.309A1.816,1.816,0,0,1,9.2,12.883Zm0,5.521H20.244a1.793,1.793,0,0,1,1.294.532,1.754,1.754,0,0,1,.546,1.309v1.84a1.866,1.866,0,0,1-1.84,1.84H9.2a1.756,1.756,0,0,1-1.309-.546,1.789,1.789,0,0,1-.532-1.294v-1.84A1.816,1.816,0,0,1,9.2,18.4Z" fill="#796ac8"/></svg>